<svg width="108" height="135" viewBox="0 0 108 135" fill="none" xmlns="http://www.w3.org/2000/svg">
<path d="M102.024 47.1543C102.024 47.1543 107.465 72.0943 107.052 90.7013C106.639 109.307 90.5234 114.262 90.5234 114.262V107.629C90.5234 107.629 100.027 100.41 100.646 90.0753C101.265 79.7393 95.6844 50.5973 95.6844 50.5973L102.024 47.1543Z" fill="#FEC23B"/>
<path d="M76.6701 2.1543L89.0701 2.2283C89.0701 2.2283 92.8531 1.3083 96.9221 12.4373C100.532 22.3063 107.671 46.1873 103.402 51.2813C99.1331 56.3833 92.6531 53.4863 91.5481 49.2173C90.4421 44.9483 83.9101 21.0343 81.3191 13.5953C78.7291 6.1573 76.6641 2.1553 76.6641 2.1553H76.6711L76.6701 2.1543ZM50.1451 3.1943C50.1451 3.1943 59.1701 1.8163 63.3051 21.6613C55.9991 22.0743 46.2161 21.8483 46.2161 21.8483C46.2161 21.8483 43.6001 6.9183 35.3281 4.5803C38.3711 2.8883 50.1451 3.2003 50.1451 3.2003V3.1943Z" fill="#DC6728"/>
<path d="M60.0125 15.5539C60.0125 15.5539 63.5685 4.29288 69.6355 2.22788C75.6955 0.16388 89.0675 2.22788 89.0675 2.22788C77.3535 9.66688 77.4935 19.6899 77.4935 19.6899L60.0185 15.5599L60.0125 15.5539ZM38.3555 16.9729C38.3555 16.9729 39.7405 5.25988 50.1425 3.19488C35.0525 1.95588 33.3945 1.67588 29.5385 3.19488C25.6825 4.71288 20.8545 9.39488 19.0625 16.9729C28.5725 18.0789 38.3555 16.9729 38.3555 16.9729Z" fill="#FEC23B"/>
<path d="M36.5656 19.5912C36.5656 19.5912 22.2356 16.2812 15.2086 22.9012C8.18363 29.5202 5.42663 44.5382 5.56763 54.4602C5.70763 64.3822 5.84063 94.4232 5.70763 106.41C5.56763 118.397 5.56763 124.737 15.3496 127.494C25.1326 130.251 62.3396 132.042 73.6396 129.838C84.9416 127.634 93.2056 115.367 94.5846 107.928C95.9626 100.489 87.5586 35.8592 83.8356 28.1412C80.1136 20.4232 66.3356 17.1202 36.5666 19.5972V19.5902L36.5656 19.5912Z" fill="#1D4482"/>
<path d="M76.2637 49.2201C81.9108 39.1571 79.8467 28.3951 79.8467 28.3951C78.0757 23.5741 56.5588 22.4821 46.7757 22.7611C37.7787 23.0141 20.7638 22.6881 14.3238 23.8071C8.51675 30.1871 5.91375 42.4931 5.59375 51.8101C8.94375 59.6281 19.0917 62.5251 36.3007 62.9911C56.4187 63.5441 70.6167 59.2691 76.2637 49.2131V49.2201Z" fill="#11294E"/>
<path d="M90.8328 66.7207C90.8328 66.7207 95.6868 66.7477 96.1068 70.0447C96.5268 73.3407 89.5938 82.3317 89.5938 82.3317L90.8328 66.7277V66.7207Z" fill="#2659AA"/>
<path d="M67.9133 19.6895C71.3563 24.9365 74.6793 33.7205 75.3583 48.3245C76.8703 80.7765 77.9823 108.766 77.4893 118.808C77.2762 123.23 76.1512 126.76 74.6992 129.59C85.4543 126.853 93.2463 115.125 94.5783 107.92C95.9563 100.481 87.5523 35.8515 83.8293 28.1335C81.8113 23.9435 76.8103 21.0535 67.9062 19.6895H67.9133Z" fill="#11294E"/>
<path d="M79.005 20.8156C79.005 20.8156 81.07 31.5766 75.423 41.6396C69.775 51.7016 55.576 55.9696 35.459 55.4176C15.34 54.8656 4.86496 51.0096 3.62696 39.8476C2.38696 28.6876 7.20896 18.0776 12.031 16.5596C16.852 15.0416 36.145 15.4546 45.928 15.1816C55.71 14.9086 77.234 15.9936 78.998 20.8156H79.005Z" fill="#316AC3"/>
<path d="M79.0104 20.8141C78.7234 20.0291 77.8974 19.3431 76.6924 18.7441C77.0384 21.9141 77.3924 30.2971 72.9304 38.2491C67.2824 48.3111 53.0844 52.5801 32.9664 52.0271C19.2214 51.6471 9.97738 49.7301 5.10938 44.9881C8.78538 52.2401 18.8214 54.9641 35.4634 55.4171C55.5824 55.9701 69.7804 51.6941 75.4274 41.6381C81.0744 31.5761 79.0104 20.8141 79.0104 20.8141Z" fill="#D2DEFF"/>
<path d="M4.32176 80.5723C4.32176 80.5723 61.7858 80.9853 67.3668 82.0173C72.9468 83.0503 74.8058 88.0113 75.2188 102.069C75.6318 116.127 75.2188 127.335 72.7408 130.825C70.2638 134.314 56.7588 135.347 39.8428 134.314C22.9278 133.282 8.24376 133.282 5.55976 129.766C2.87676 126.25 0.399756 118.192 0.605756 103.101C0.811756 88.0113 1.15876 81.3313 4.32776 80.5723H4.32176Z" fill="#2659AA"/>
<path d="M75.2238 102.069C74.8098 88.0113 72.9517 83.0493 67.3717 82.0173C61.7917 80.9853 4.32575 80.5723 4.32575 80.5723C4.05975 80.6323 3.81975 80.7463 3.59375 80.8923C19.7558 81.0523 53.9987 81.4783 58.2417 82.2643C63.8217 83.2963 65.6797 88.2573 66.0927 102.316C66.5057 116.374 66.0928 127.582 63.6157 131.071C62.2238 133.029 57.3558 134.214 50.3628 134.694C62.1308 134.78 70.8008 133.555 72.7458 130.825C75.2227 127.335 75.6438 116.127 75.2238 102.069Z" fill="#316AC3"/>
<path d="M71.4671 74.7988C71.4671 74.7988 68.5701 80.0928 68.7101 87.1188C68.8501 94.1448 69.2701 102.555 52.9341 102.828C36.5981 103.102 14.5491 104.067 7.66311 98.6928C0.770105 93.3188 3.24111 75.9568 8.34911 74.1658C13.4501 72.3748 68.7101 73.2268 71.4671 74.7988Z" fill="#2659AA"/>
<path d="M71.4696 74.7988C71.4696 74.7988 67.0216 79.4008 67.1616 86.4328C67.3016 93.4648 66.4816 100.904 50.1466 101.177C33.8116 101.45 14.5186 102.283 7.63262 96.9078C4.86262 94.7438 3.61062 90.9348 3.43762 87.0318C3.42362 91.6738 4.64962 96.3418 7.66562 98.6998C14.5586 104.074 36.6016 103.108 52.9366 102.835C69.2726 102.562 68.8466 94.1508 68.7136 87.1248C68.5806 80.0998 71.4706 74.8048 71.4706 74.8048L71.4696 74.7988Z" fill="#D2DEFF"/>
<path d="M38.9155 89.1816C38.9155 89.1816 37.3775 104.752 37.4575 118.537C36.2985 122.119 29.4055 122.119 28.9935 118.537C28.5805 114.954 29.1335 93.8696 29.8185 89.1816H38.9155Z" fill="#1D4482"/>
<path d="M36.8199 114.693H29.5619C29.2532 114.694 28.9474 114.633 28.6621 114.515C28.3768 114.397 28.1176 114.224 27.8992 114.005C27.6809 113.787 27.5077 113.528 27.3896 113.242C27.2715 112.957 27.2108 112.651 27.2109 112.342V108.746C27.2109 108.123 27.4585 107.525 27.8992 107.085C28.3399 106.644 28.9377 106.396 29.5609 106.396H36.8209C37.4442 106.396 38.0419 106.644 38.4826 107.085C38.9233 107.525 39.1709 108.123 39.1709 108.746V112.342C39.1711 112.651 39.1104 112.957 38.9923 113.242C38.8743 113.527 38.7012 113.787 38.483 114.005C38.2648 114.223 38.0057 114.396 37.7205 114.515C37.4353 114.633 37.1286 114.693 36.8199 114.693ZM29.5619 107.874C29.4481 107.874 29.3354 107.896 29.2302 107.94C29.125 107.983 29.0295 108.047 28.949 108.128C28.8685 108.208 28.8047 108.304 28.7613 108.409C28.7179 108.514 28.6957 108.627 28.6959 108.74V112.336C28.6959 112.815 29.0819 113.202 29.5619 113.202H36.8209C37.3009 113.202 37.6859 112.815 37.6859 112.336V108.74C37.6862 108.627 37.664 108.514 37.6206 108.409C37.5773 108.304 37.5136 108.208 37.4332 108.128C37.3529 108.047 37.2574 107.984 37.1523 107.94C37.0473 107.897 36.9347 107.874 36.8209 107.874H29.5619Z" fill="#D7E2FF"/>
<path d="M76.5533 75.395C76.5533 75.395 93.0633 78.325 96.0933 70.041C98.4363 88.634 100.088 99.103 98.0233 108.886C95.9593 118.669 85.4103 129.35 74.6953 129.59C77.4853 118.808 76.5533 75.389 76.5533 75.389V75.395Z" fill="#2659AA"/>
<path d="M96.0923 70.041C94.9073 73.284 91.6443 74.809 88.1213 75.461C88.2473 82.667 91.1773 90.432 87.1953 95.747C82.3743 102.013 82.3743 109.725 76.5933 115.026C76.5073 115.206 76.3733 115.379 76.2203 115.552C75.9143 121.579 75.4413 126.733 74.6953 129.597C85.4043 129.357 95.9523 118.675 98.0243 108.892C100.094 99.11 98.4363 88.634 96.0923 70.048V70.041Z" fill="#316AC3"/>
<path d="M66.946 27.308H13.138C12.8874 27.2999 12.6496 27.1946 12.4752 27.0144C12.3007 26.8343 12.2031 26.5933 12.2031 26.3425C12.2031 26.0916 12.3007 25.8506 12.4752 25.6705C12.6496 25.4903 12.8874 25.385 13.138 25.377H66.946C67.1967 25.385 67.4345 25.4903 67.6089 25.6705C67.7834 25.8506 67.881 26.0916 67.881 26.3425C67.881 26.5933 67.7834 26.8343 67.6089 27.0144C67.4345 27.1946 67.1967 27.2999 66.946 27.308Z" fill="#1D4482"/>
<path d="M20.2099 112.512C20.2099 98.0266 11.9059 86.2065 1.48995 85.5605C0.863948 89.1895 0.710948 94.9036 0.597948 103.108C0.391948 118.199 2.86795 126.257 5.55295 129.773C6.61195 131.158 9.53495 131.997 13.7169 132.563C17.7069 127.622 20.2099 120.47 20.2099 112.512Z" fill="#316AC3"/>
</svg>
