<svg width="259" height="189" viewBox="0 0 259 189" fill="none" xmlns="http://www.w3.org/2000/svg">
<path d="M10.3197 62.6558L15.9677 64.5258L10.3197 66.3978L8.44869 72.0458L6.57769 66.3978L0.929688 64.5268L6.57769 62.6558L8.44769 57.0078L10.3197 62.6558Z" fill="#F9B800"/>
<path d="M39.2437 44.3663L42.2897 45.3793L39.2437 46.3853L38.2307 49.4373L37.2247 46.3853L34.1797 45.3793L37.2247 44.3663L38.2307 41.3203L39.2437 44.3663Z" fill="#F7DAC4"/>
<path d="M30.2485 23.096L32.8445 23.961L30.2485 24.819L29.3905 27.414L28.5325 24.819L25.9375 23.961L28.5325 23.096L29.3905 20.5L30.2485 23.096Z" fill="#7DD3C7"/>
<path d="M110.791 38.3454L113.387 39.2034L110.791 40.0614L109.926 42.6564L109.068 40.0614L106.473 39.2034L109.068 38.3454L109.926 35.7494L110.791 38.3454ZM50.8315 4.40641L54.6795 5.68641L50.8315 6.95941L49.5585 10.7994L48.2855 6.95941L44.4375 5.68641L48.2855 4.40641L49.5585 0.566406L50.8315 4.40641Z" fill="#FCDB3D"/>
<path d="M92.0601 12.8968L94.1561 13.5928L92.0601 14.2828L91.3701 16.3778L90.6741 14.2828L88.5781 13.5928L90.6741 12.8968L91.3711 10.8008L92.0601 12.8968Z" fill="#F7DAC4"/>
<path d="M58.8498 149.545C58.8498 149.545 65.9528 142.905 62.3868 136.596C58.8208 130.287 58.2018 128.198 58.6308 120.559C59.0608 112.92 54.5588 108.729 46.3218 105.781C38.0778 102.834 39.1688 103.643 33.3798 97.0032C27.5838 90.3562 18.8268 89.9762 15.8728 93.4022C12.9188 96.8272 18.5808 101.702 20.4588 108.714C22.3368 115.72 20.2478 121.586 24.9958 126.13C29.7438 130.674 37.4458 131.799 37.7478 138.087C38.0498 144.375 53.6648 153.076 53.1028 156.924C57.5618 154.75 58.8558 149.552 58.8558 149.552L58.8498 149.545Z" fill="#4C7666"/>
<path d="M17.2218 101.358C17.6438 102.138 18.0868 102.961 18.5238 103.819C21.1888 104.692 26.4788 106.562 29.4958 108.497C30.2378 109.842 30.8821 111.238 31.4237 112.675C31.8738 113.885 32.4578 115.031 33.1187 116.142C30.1497 113.758 25.2548 110.888 20.7108 109.77C20.9148 110.705 21.0557 111.627 21.1607 112.52C24.7477 113.561 30.7268 115.474 34.0048 117.535C35.5378 119.772 37.4018 121.833 39.3298 123.837C34.8198 121.699 27.5478 119.336 21.7518 119.279C21.8718 120.145 22.0408 120.982 22.2938 121.784C25.5638 122.107 35.0948 123.176 40.4898 125.033C42.5368 127.115 44.5977 129.162 46.3417 131.286C47.3267 132.489 48.2417 134.015 49.0567 135.731C45.6037 133.544 37.1628 130.273 30.2488 129.809C31.9928 130.822 33.6948 131.771 35.0318 132.925C39.8638 133.579 46.0538 134.662 49.2678 136.182C50.5898 139.08 51.6458 142.491 52.3698 145.888C50.3097 143.314 43.5078 138.615 37.7118 137.877C37.7118 137.947 37.7257 138.017 37.7317 138.088C37.7677 138.883 38.0557 139.713 38.5138 140.564C41.9948 141.492 49.7887 143.785 52.4538 146.289C53.2277 150.059 53.5797 153.78 53.4177 156.748C53.5097 156.699 53.6008 156.65 53.6848 156.594C54.4094 153.311 54.7587 149.955 54.7258 146.592C56.2458 143.891 60.1358 140.31 62.9628 137.912C62.8075 137.454 62.61 137.012 62.3727 136.59C62.1747 136.245 61.9927 135.921 61.8158 135.598C58.5247 138.587 55.8158 142.871 54.6978 145.67C54.6138 143.483 54.3397 141.169 53.7627 138.847C54.7048 136.287 57.1667 132.826 59.2907 130.126C58.9663 129.091 58.7452 128.026 58.6308 126.946C55.9988 130.414 54.1567 135.007 53.5238 137.982C52.8408 135.584 51.8067 133.206 50.3087 130.998C51.4837 127.214 56.5197 121.087 58.6087 118.646C58.5555 117.663 58.3904 116.688 58.1168 115.741C53.6708 119.244 50.5617 126.918 50.0557 130.632C49.8157 130.294 49.5708 129.957 49.3027 129.626C48.3265 128.399 47.3253 127.191 46.2997 126.004C46.2787 121.129 51.5957 112.147 53.3617 109.299C52.4467 108.63 51.4277 108.026 50.2947 107.456C46.1447 112.576 45.0617 121.298 45.8147 125.448C44.4408 123.881 43.0263 122.349 41.5728 120.855C41.1858 115.96 43.2677 108.166 44.1897 105.022C42.7547 104.516 41.6857 104.136 40.8197 103.77C38.7178 108.637 39.1178 115.207 40.2997 119.547C37.9787 117.169 36.0798 115.228 34.2507 112.611C34.0887 108.884 35.1938 103.741 36.1148 100.155C35.3758 99.3324 34.4968 98.3054 33.3438 96.9834C33.3008 96.9334 33.2587 96.8914 33.2167 96.8424C31.7187 100.936 31.8097 106.014 32.5767 109.974C32.2036 109.329 31.8468 108.675 31.5068 108.011C30.3196 105.694 28.9014 103.503 27.2738 101.47C27.3717 98.7624 28.1667 95.3864 28.7507 93.2274C28.0011 92.8038 27.2174 92.4435 26.4078 92.1504C25.6278 94.6204 25.6208 97.5314 25.9998 99.9654C22.2368 95.7734 18.2627 93.4024 15.8438 93.3754C20.4637 96.3784 25.3738 101.583 28.7008 107.132C25.8458 104.755 21.1958 101.948 17.1938 101.336L17.2218 101.358Z" fill="#57947D"/>
<path d="M68.8784 167.934C68.8784 167.934 72.5084 158.079 66.0024 153.718C59.4954 149.357 57.8854 147.648 54.5924 140.066C51.3014 132.483 44.9224 130.626 35.5384 131.78C26.1554 132.941 27.6044 133.194 18.7844 129.593C9.9644 125.991 1.3344 129.874 0.144397 134.615C-1.0436 139.355 6.7844 141.311 12.0044 147.163C17.2234 153.015 18.0454 159.683 24.8334 161.765C31.6214 163.847 39.5974 161.188 42.9384 167.111C46.2864 173.033 65.5734 173.842 66.9024 177.83C70.1524 173.568 68.8724 167.926 68.8724 167.926L68.8784 167.934Z" fill="#85BF99"/>
<path d="M5.31663 141.65C6.10463 142.199 6.92763 142.776 7.76463 143.395C10.7616 142.945 16.7676 142.178 20.6226 142.579C21.9918 143.516 23.2918 144.55 24.5126 145.674C25.5326 146.623 26.6506 147.446 27.8326 148.192C23.8086 147.334 17.6896 146.94 12.7656 148.072C13.397 148.853 13.9888 149.665 14.5386 150.506C18.5056 149.767 25.2016 148.712 29.3656 149.106C31.9256 150.52 34.7256 151.61 37.5666 152.602C32.1786 152.728 24.0126 153.98 18.3996 156.738C18.9193 157.503 19.5031 158.223 20.1446 158.89C23.4646 157.617 33.1776 154.016 39.2756 153.186C42.2656 154.206 45.2406 155.176 47.9626 156.372C49.5026 157.054 51.1136 158.081 52.7386 159.347C48.3426 158.911 38.6146 159.854 31.7146 162.766C33.8886 162.892 35.9916 162.984 37.8416 163.455C42.8216 161.739 49.3206 159.776 53.1616 159.678C55.8406 161.83 58.5206 164.608 60.8626 167.542C57.6266 166.057 48.7786 164.827 42.8276 166.93C42.8706 166.993 42.9126 167.056 42.9476 167.127C43.3696 167.872 44.0446 168.54 44.9036 169.138C48.7086 168.343 57.3456 166.775 61.1366 167.893C63.7116 171.157 65.8636 174.575 67.1436 177.515C67.2066 177.424 67.2706 177.333 67.3266 177.241C66.7926 175.117 65.6316 171.227 63.4726 167.084C63.6266 163.743 65.6456 158.398 67.2066 154.712C66.8344 154.347 66.4294 154.017 65.9966 153.727C65.6456 153.488 65.3076 153.263 64.9846 153.038C63.2546 157.518 62.7266 162.97 63.0076 166.212C61.8676 164.144 60.4826 162.041 58.7946 160.086C58.4646 157.153 59.1606 152.623 59.8916 148.986C59.0754 148.146 58.3451 147.227 57.7116 146.243C56.8536 150.865 57.3036 156.196 58.1476 159.375C56.3256 157.392 54.1736 155.605 51.6556 154.191C50.9526 149.971 52.8366 141.615 53.6666 138.239C53.1377 137.314 52.5053 136.453 51.7816 135.672C49.1936 141.207 49.9186 150.126 51.2336 153.952C50.8367 153.737 50.4332 153.536 50.0236 153.347C48.4857 152.638 46.9333 151.96 45.3676 151.315C42.9826 146.616 43.7496 135.369 44.0736 131.768C42.7985 131.568 41.5093 131.471 40.2186 131.479C38.6986 138.436 41.8926 147.376 44.6286 151.012C42.2446 150.042 40.1686 149.289 38.3056 148.642C35.5556 144.105 33.7826 135.58 33.1426 132.091C31.5106 132.302 30.2936 132.45 29.2816 132.52C29.6116 138.239 33.1916 144.386 36.4416 147.995C33.0436 146.827 30.2726 145.878 27.2416 144.239C25.2786 140.715 23.8436 135.221 22.9926 131.311C21.8816 130.875 20.5386 130.312 18.7796 129.594C18.7166 129.566 18.6526 129.545 18.5826 129.517C19.1246 134.195 21.6846 139.055 24.3426 142.501C23.6716 142.058 23.0105 141.601 22.3596 141.13C20.0869 139.47 17.6526 138.044 15.0936 136.874C13.8706 134.216 13.0046 130.572 12.5196 128.202C11.5626 128.16 10.6276 128.202 9.73462 128.3C10.1776 131.064 11.5846 133.871 13.1386 136.037C7.46863 133.822 2.48863 133.463 0.140625 134.61C6.05562 135.264 13.3206 137.901 19.2226 141.643C15.3126 140.736 9.46663 140.279 5.30963 141.636L5.31663 141.65Z" fill="#57947D"/>
<path d="M51.6593 110.613C47.9393 103.009 43.5493 91.6282 41.9453 78.0332L42.7333 78.2292C44.3513 91.5932 48.6703 102.784 52.3413 110.275C57.0963 119.995 61.7883 125.763 61.8373 125.819L61.2533 126.298C61.2033 126.241 56.4633 120.403 51.6663 110.605L51.6593 110.613Z" fill="#AFEFBE"/>
<path d="M43.0242 82.9565C43.0242 82.9565 37.4322 78.7155 43.1582 66.1035C45.3522 75.1075 43.8122 80.9735 43.0242 82.9565ZM43.3242 86.5225C43.3242 86.5225 43.8312 78.1875 51.8702 74.1075C50.4642 84.8475 44.3302 86.9095 43.3242 86.5225Z" fill="#AFEFBE"/>
<path d="M43.6621 87.0568C43.6621 87.0568 37.7401 87.6058 31.7891 78.3848C43.0081 81.3738 44.0631 86.0518 43.6621 87.0568ZM45.6721 94.9168C45.6721 94.9168 46.1641 86.0468 54.7031 81.8338C52.5511 91.9838 46.6781 95.3038 45.6721 94.9168Z" fill="#AFEFBE"/>
<path d="M46.0136 95.4484C46.0136 95.4484 40.0916 95.9974 34.1406 86.7754C45.3606 89.7654 46.4146 94.4424 46.0136 95.4484ZM48.8846 103.93C48.8846 103.93 47.6466 95.1314 55.2076 89.3504C55.0676 99.7244 49.9466 104.12 48.8846 103.93Z" fill="#AFEFBE"/>
<path d="M49.3212 104.39C49.3212 104.39 43.6172 106.07 35.9922 98.1856C47.5772 98.9456 49.5182 103.327 49.3222 104.389L49.3212 104.39ZM52.0262 110.924C52.0262 110.924 50.6062 103.201 57.0702 97.8066C57.3372 106.971 52.9762 111.051 52.0262 110.924Z" fill="#AFEFBE"/>
<path d="M52.4357 111.31C52.4357 111.31 47.4637 113.012 40.4297 106.33C50.6917 106.57 52.5697 110.367 52.4357 111.31ZM55.4987 117.203C55.4987 117.203 54.2957 110.669 59.7617 106.111C59.9867 113.869 56.2937 117.316 55.4987 117.203Z" fill="#AFEFBE"/>
<path d="M55.8357 117.535C55.8357 117.535 51.6297 118.977 45.6797 113.322C54.3597 113.519 55.9487 116.734 55.8357 117.535ZM59.1197 123.173C59.1197 123.173 58.0857 117.56 62.7847 113.643C62.9747 120.303 59.8087 123.265 59.1197 123.173Z" fill="#AFEFBE"/>
<path d="M59.4173 123.457C59.4173 123.457 55.8023 124.695 50.6953 119.842C58.1513 120.011 59.5153 122.775 59.4173 123.457ZM77.3883 64.297C81.0463 55.948 85.2453 43.499 86.3423 28.791L85.5053 29.044C84.3803 43.505 80.2443 55.744 76.6353 63.974C71.9583 74.651 67.1753 81.073 67.1333 81.136L67.7873 81.629C67.8373 81.565 72.6753 75.066 77.3883 64.297Z" fill="#AFEFBE"/>
<path d="M85.4134 34.1389C85.4134 34.1389 91.2374 29.3199 84.5004 16.0059C82.5454 25.7959 84.4784 32.0359 85.4134 34.1389ZM85.2544 37.9849C85.2544 37.9849 84.3264 29.0379 75.4844 25.0209C77.4894 36.5149 84.1924 38.4559 85.2544 37.9849Z" fill="#AFEFBE"/>
<path d="M84.9081 38.5772C84.9081 38.5772 91.3081 38.8932 97.2871 28.7012C85.3511 32.4362 84.4301 37.5142 84.9081 38.5772ZM83.1081 47.1302C83.1081 47.1302 82.1721 37.6062 72.7891 33.4702C75.5671 44.2962 82.0461 47.6012 83.1081 47.1302Z" fill="#AFEFBE"/>
<path d="M82.7599 47.7207C82.7599 47.7207 89.1599 48.0377 95.1389 37.8457C83.2019 41.5807 82.2819 46.6587 82.7599 47.7207ZM80.0629 56.9757C80.0629 56.9757 80.9909 47.4517 72.5859 41.5717C73.2119 52.7277 78.9299 57.2287 80.0629 56.9757Z" fill="#AFEFBE"/>
<path d="M79.6117 57.496C79.6117 57.496 85.8297 59.043 93.6717 50.209C81.2367 51.559 79.3517 56.363 79.6117 57.496ZM76.9967 64.644C76.9967 64.644 78.1708 56.267 70.9688 50.76C71.1018 60.635 75.9837 64.827 76.9967 64.644Z" fill="#AFEFBE"/>
<path d="M76.5791 65.0779C76.5791 65.0779 82.0091 66.6819 89.2681 59.1699C78.2321 59.8939 76.3891 64.0719 76.5791 65.0779ZM73.5521 71.5719C73.5521 71.5719 74.5521 64.4899 68.4531 59.8259C68.5661 68.1819 72.6931 71.7199 73.5521 71.5719Z" fill="#AFEFBE"/>
<path d="M73.2097 71.9355C73.2097 71.9355 77.8027 73.2935 83.9437 66.9355C74.6097 67.5465 73.0477 71.0775 73.2097 71.9355ZM69.9297 78.1545C69.9297 78.1545 70.7877 72.0695 65.5547 68.0675C65.6527 75.2425 69.1977 78.2875 69.9297 78.1545Z" fill="#AFEFBE"/>
<path d="M69.6229 78.4795C69.6229 78.4795 73.5689 79.6475 78.8439 74.1895C70.8259 74.7165 69.4889 77.7485 69.6229 78.4795ZM52.6169 164.795C44.0289 161.714 31.3049 158.373 16.5469 158.274L16.8569 159.09C31.3749 159.231 43.8809 162.523 52.3499 165.561C63.3299 169.5 70.0749 173.84 70.1449 173.882L70.5879 173.2C70.5179 173.158 63.6949 168.769 52.6239 164.795H52.6169Z" fill="#AFEFBE"/>
<path d="M21.9425 158.842C21.9425 158.842 16.7305 153.356 3.89453 160.995C13.8045 162.275 19.9095 159.926 21.9425 158.842ZM25.7965 158.736C25.7965 158.736 16.9195 160.277 13.5155 169.378C24.8535 166.593 26.3375 159.77 25.7955 158.736H25.7965Z" fill="#AFEFBE"/>
<path d="M26.4091 159.04C26.4091 159.04 26.2891 152.632 15.7031 147.35C20.2471 159.019 25.3891 159.588 26.4091 159.04ZM35.0751 160.256C35.0751 160.256 25.6291 161.838 22.1331 171.496C32.7531 167.979 35.6091 161.283 35.0751 160.256Z" fill="#AFEFBE"/>
<path d="M35.6826 160.559C35.6826 160.559 35.5626 154.151 24.9766 148.869C29.5206 160.538 34.6626 161.108 35.6826 160.559ZM45.1156 162.628C45.1156 162.628 35.5426 162.354 30.2386 171.146C41.3386 169.76 45.4386 163.739 45.1156 162.628Z" fill="#AFEFBE"/>
<path d="M45.6579 163.041C45.6579 163.041 46.7839 156.725 37.4219 149.494C39.6159 161.824 44.5469 163.379 45.6579 163.041ZM52.9869 165.162C52.9869 165.162 44.5389 164.557 39.5309 172.125C49.3859 171.316 53.2329 166.154 52.9869 165.162Z" fill="#AFEFBE"/>
<path d="M53.4457 165.545C53.4457 165.545 54.6767 160.01 46.6797 153.271C48.1567 164.244 52.4537 165.799 53.4457 165.545ZM60.1377 168.121C60.1377 168.121 52.9917 167.608 48.7577 174.015C57.0927 173.333 60.3487 168.965 60.1377 168.121Z" fill="#AFEFBE"/>
<path d="M60.5297 168.45C60.5297 168.45 61.5707 163.773 54.8047 158.068C56.0567 167.346 59.6857 168.668 60.5297 168.45ZM66.9637 171.299C66.9637 171.299 60.8307 170.863 57.1877 176.363C64.3477 175.773 67.1397 172.024 66.9637 171.299Z" fill="#AFEFBE"/>
<path d="M67.3066 171.582C67.3066 171.582 68.2006 167.558 62.3906 162.67C63.4666 170.639 66.5826 171.772 67.3066 171.582Z" fill="#AFEFBE"/>
<path d="M181.276 89.6685C177.354 89.6685 174.164 92.6465 174.164 96.3165V136.843H209.874L216.128 83.3965L181.275 89.6755V89.6675L181.276 89.6685Z" fill="#CF642A"/>
<path d="M216.121 83.3887L181.268 89.6687C177.558 89.6687 174.502 92.3397 174.188 95.7347L215.414 89.4317L216.121 83.3967V83.3887Z" fill="#E17A43"/>
<path d="M225.258 136.373V90.7458C225.258 86.9808 221.989 83.9238 217.965 83.9238C213.942 83.9238 210.672 86.9808 210.672 90.7458V136.373H225.266H225.258Z" fill="#EDEEEF"/>
<path d="M213.735 136.375C213.649 132.477 213.617 128.572 213.578 124.674L213.531 112.972L213.578 101.27L213.633 95.4155L213.735 89.5605L213.838 95.4155L213.893 101.27L213.94 112.972L213.893 124.674C213.861 128.572 213.822 132.477 213.735 136.375ZM215.583 136.375C215.496 132.477 215.465 128.572 215.426 124.674L215.379 112.972L215.426 101.27L215.481 95.4155L215.583 89.5605L215.685 95.4155L215.74 101.27L215.787 112.972L215.74 124.674C215.709 128.572 215.67 132.477 215.583 136.375ZM217.427 136.375C217.34 132.477 217.309 128.572 217.27 124.674L217.222 112.972L217.269 101.27L217.324 95.4155L217.427 89.5605L217.529 95.4155L217.584 101.27L217.631 112.972L217.584 124.674C217.552 128.572 217.514 132.477 217.427 136.375ZM219.274 136.375C219.188 132.477 219.156 128.572 219.117 124.674L219.07 112.972L219.117 101.27L219.172 95.4155L219.274 89.5605L219.376 95.4155L219.431 101.27L219.479 112.972L219.432 124.674C219.4 128.572 219.361 132.477 219.274 136.375ZM221.114 136.375C221.028 132.477 220.996 128.572 220.957 124.674L220.91 112.972L220.957 101.27L221.012 95.4155L221.114 89.5605L221.216 95.4155L221.271 101.27L221.318 112.972L221.271 124.674C221.24 128.572 221.201 132.477 221.114 136.375Z" fill="#D3D8E5"/>
<path d="M217.961 83.9316C217.558 83.9337 217.155 83.9678 216.758 84.0336C220.216 84.5686 222.849 87.3736 222.849 90.7536V136.381H225.262V90.7526C225.262 86.9886 221.992 83.9316 217.969 83.9316H217.961Z" fill="#CF642A"/>
<path d="M211.454 136.838V90.7455C211.454 87.3895 214.37 84.6625 217.961 84.6625C221.553 84.6625 224.468 87.3895 224.468 90.7455V136.838H226.048V90.7455C226.048 86.5805 222.418 83.1855 217.961 83.1855C213.505 83.1855 209.875 86.5725 209.875 90.7455V136.838H211.454Z" fill="#AA5020"/>
<path d="M153.103 82.4742C148.537 82.4742 144.828 85.9482 144.828 90.2072V137.375H186.4L193.678 75.1582L153.111 82.4662L153.103 82.4742Z" fill="#32A570"/>
<path d="M144.82 102.264V137.384H186.393L187.304 129.612C170.832 124.284 154.094 116.394 144.828 102.264H144.82Z" fill="#249762"/>
<path d="M193.67 75.1738L153.103 82.4828C148.781 82.4828 145.228 85.5948 144.859 89.5478L192.845 82.2078L193.67 75.1738Z" fill="#40C387"/>
<path d="M204.295 136.848V83.7397C204.295 79.3547 200.492 75.8027 195.801 75.8027C191.109 75.8027 187.305 79.3547 187.305 83.7397V136.85H204.295V136.848Z" fill="#EDEEEF"/>
<path d="M190.884 136.849C190.797 132.31 190.737 127.77 190.704 123.23L190.648 109.61L190.703 95.9922L190.766 89.1782L190.884 82.3652L191.002 89.1782L191.065 95.9922L191.12 109.611L191.065 123.23C191.025 127.772 190.978 132.315 190.884 136.85V136.849ZM193.036 136.849C192.942 132.307 192.895 127.765 192.856 123.23L192.8 109.61L192.855 95.9922L192.918 89.1782L193.036 82.3652L193.154 89.1782L193.217 95.9922L193.272 109.611L193.217 123.23C193.177 127.772 193.131 132.315 193.037 136.85L193.036 136.849ZM195.181 136.849C195.086 132.307 195.039 127.765 195 123.23L194.945 109.61L195 95.9922L195.063 89.1782L195.181 82.3652L195.299 89.1782L195.362 95.9922L195.416 109.611L195.361 123.23C195.322 127.772 195.275 132.315 195.181 136.85V136.849ZM197.325 136.849C197.231 132.307 197.184 127.765 197.145 123.23L197.089 109.61L197.144 95.9922L197.207 89.1782L197.325 82.3652L197.443 89.1782L197.506 95.9922L197.561 109.611L197.506 123.23C197.466 127.772 197.419 132.315 197.326 136.85L197.325 136.849ZM199.478 136.849C199.383 132.307 199.336 127.765 199.297 123.23L199.242 109.61L199.297 95.9922L199.36 89.1782L199.478 82.3652L199.595 89.1782L199.658 95.9922L199.713 109.611L199.658 123.23C199.619 127.772 199.572 132.315 199.478 136.85V136.849Z" fill="#D3D8E5"/>
<path d="M195.804 75.8018C195.325 75.8018 194.862 75.8488 194.406 75.9198C198.43 76.5488 201.495 79.8018 201.495 83.7398V136.848H204.3V83.7378C204.3 79.3528 200.496 75.8008 195.805 75.8008L195.804 75.8018Z" fill="#32A570"/>
<path d="M188.231 137.384V83.7415C188.231 79.8355 191.625 76.6605 195.806 76.6605C199.986 76.6605 203.382 79.8355 203.382 83.7405V137.384H205.221V83.7415C205.221 78.8915 201.001 74.9395 195.806 74.9395C190.611 74.9395 186.391 78.8845 186.391 83.7415V137.384H188.231Z" fill="#5ED69F"/>
<path d="M190.883 89.6588L197.366 88.8848L195.377 91.5438L197.366 93.5738H190.946L190.883 89.6588Z" fill="#FF9D00"/>
<path d="M148.712 154.8H238.773V173.542H148.712C143.541 173.542 139.344 169.346 139.344 164.175C139.344 159.004 143.541 154.807 148.712 154.807V154.799V154.8Z" fill="#394E99"/>
<path d="M139.758 166.975C140.953 170.779 144.505 173.545 148.701 173.545H238.763V166.975H139.758Z" fill="#2D4987"/>
<path d="M255.294 155.72H169.477C165.091 155.72 161.539 159.524 161.539 164.215C161.539 168.907 165.091 172.711 169.477 172.711H255.294V155.72Z" fill="#EDEEEF"/>
<path d="M169.485 155.72C165.099 155.72 161.547 159.524 161.547 164.215C161.547 164.852 161.617 165.473 161.744 166.062C162.537 162.259 165.697 159.422 169.484 159.422H255.302V155.719L169.485 155.72Z" fill="#D3D8E5"/>
<path d="M257.72 171.789H169.49C165.583 171.789 162.409 168.394 162.409 164.213C162.409 160.033 165.584 156.637 169.489 156.637H257.72V154.799H169.49C164.64 154.799 160.688 159.019 160.688 164.214C160.688 169.409 164.633 173.629 169.49 173.629H257.72V171.789Z" fill="#546CAF"/>
<path d="M170.39 160.995C170.39 160.995 173.133 164.925 173.974 173.632C176.842 172.508 177.078 171.942 177.078 171.942L180.064 173.632C180.064 173.632 180.182 165.278 176.724 160.995H170.39ZM230.526 154.921H162.39C157.22 154.921 153.023 150.725 153.023 145.554C153.023 140.383 157.219 136.186 162.39 136.186H230.526V154.93V154.921Z" fill="#FF9D00"/>
<path d="M153.312 147.795C154.319 151.882 157.996 154.915 162.389 154.915H230.524V147.795H153.312Z" fill="#F28F00"/>
<path d="M247.048 137.1H183.156C178.771 137.1 175.219 140.904 175.219 145.595C175.219 150.287 178.771 154.091 183.156 154.091H247.048V137.1Z" fill="#EDEEEF"/>
<path d="M183.156 137.1C178.771 137.1 175.219 140.904 175.219 145.595C175.219 146.232 175.289 146.853 175.416 147.442C176.209 143.639 179.369 140.802 183.156 140.802H247.048V137.1H183.156Z" fill="#D3D8E5"/>
<path d="M249.465 153.169H183.161C179.255 153.169 176.08 149.774 176.08 145.593C176.08 141.413 179.255 138.017 183.16 138.017H249.465V136.178H183.161C178.311 136.178 174.359 140.398 174.359 145.593C174.359 150.788 178.304 155.008 183.161 155.008H249.465V153.169Z" fill="#FFCD2E"/>
<path d="M180 144.354C180 144.354 182.743 149.494 183.584 160.889C186.452 159.419 186.688 158.68 186.688 158.68L189.674 160.889C189.674 160.889 189.792 149.965 186.334 144.354H180Z" fill="#E5398B"/>
<path d="M161.024 101.154C161.024 101.154 166.465 126.094 166.052 144.701C165.639 163.307 149.523 168.262 149.523 168.262V161.629C149.523 161.629 159.027 154.41 159.646 144.075C160.265 133.739 154.684 104.597 154.684 104.597L161.024 101.154Z" fill="#FEC23B"/>
<path d="M135.67 56.1543L148.07 56.2283C148.07 56.2283 151.853 55.3083 155.922 66.4373C159.532 76.3063 166.671 100.187 162.402 105.281C158.133 110.383 151.653 107.486 150.548 103.217C149.442 98.9483 142.91 75.0343 140.319 67.5953C137.729 60.1573 135.664 56.1553 135.664 56.1553H135.671L135.67 56.1543ZM109.145 57.1943C109.145 57.1943 118.17 55.8163 122.305 75.6613C114.999 76.0743 105.216 75.8483 105.216 75.8483C105.216 75.8483 102.6 60.9183 94.3281 58.5803C97.3711 56.8883 109.145 57.2003 109.145 57.2003V57.1943Z" fill="#DC6728"/>
<path d="M119.012 69.5539C119.012 69.5539 122.568 58.2929 128.635 56.2279C134.695 54.1639 148.067 56.2279 148.067 56.2279C136.353 63.6669 136.493 73.6899 136.493 73.6899L119.019 69.5599L119.012 69.5539ZM97.3555 70.9729C97.3555 70.9729 98.7405 59.2599 109.142 57.1949C94.0525 55.9559 92.3945 55.6759 88.5385 57.1949C84.6825 58.7129 79.8545 63.3949 78.0625 70.9729C87.5725 72.0789 97.3555 70.9729 97.3555 70.9729Z" fill="#FEC23B"/>
<path d="M95.5656 73.5912C95.5656 73.5912 81.2356 70.2812 74.2086 76.9012C67.1836 83.5202 64.4266 98.5382 64.5676 108.46C64.7076 118.382 64.8406 148.423 64.7076 160.41C64.5676 172.397 64.5676 178.737 74.3496 181.494C84.1326 184.251 121.34 186.042 132.64 183.838C143.942 181.634 152.206 169.367 153.585 161.928C154.963 154.489 146.559 89.8592 142.836 82.1412C139.114 74.4232 125.336 71.1202 95.5666 73.5972V73.5902L95.5656 73.5912Z" fill="#1D4482"/>
<path d="M135.264 103.22C140.911 93.1571 138.847 82.3951 138.847 82.3951C137.076 77.5741 115.559 76.4821 105.776 76.7611C96.7787 77.0141 79.7638 76.6881 73.3238 77.8071C67.5168 84.1871 64.9137 96.4931 64.5938 105.81C67.9437 113.628 78.0917 116.525 95.3007 116.991C115.419 117.544 129.617 113.269 135.264 103.213V103.22Z" fill="#11294E"/>
<path d="M149.833 120.721C149.833 120.721 154.687 120.748 155.107 124.045C155.527 127.341 148.594 136.332 148.594 136.332L149.833 120.728V120.721Z" fill="#2659AA"/>
<path d="M126.913 73.6895C130.356 78.9365 133.679 87.7205 134.358 102.324C135.87 134.776 136.982 162.766 136.489 172.808C136.276 177.23 135.151 180.76 133.699 183.59C144.454 180.853 152.246 169.125 153.578 161.92C154.956 154.481 146.552 89.8515 142.829 82.1335C140.811 77.9435 135.81 75.0535 126.906 73.6895H126.913Z" fill="#11294E"/>
<path d="M138.005 74.8156C138.005 74.8156 140.07 85.5766 134.423 95.6396C128.775 105.702 114.576 109.97 94.459 109.418C74.34 108.866 63.865 105.01 62.627 93.8476C61.387 82.6876 66.209 72.0776 71.031 70.5596C75.852 69.0416 95.145 69.4546 104.928 69.1816C114.71 68.9086 136.234 69.9936 137.998 74.8156H138.005Z" fill="#316AC3"/>
<path d="M138.01 74.8141C137.723 74.0291 136.897 73.3431 135.692 72.7441C136.038 75.9141 136.392 84.2971 131.93 92.2491C126.282 102.311 112.084 106.58 91.9664 106.027C78.2214 105.647 68.9774 103.73 64.1094 98.9881C67.7854 106.24 77.8214 108.964 94.4634 109.417C114.582 109.97 128.78 105.694 134.427 95.6381C140.074 85.5761 138.01 74.8141 138.01 74.8141Z" fill="#D2DEFF"/>
<path d="M63.3218 134.572C63.3218 134.572 120.786 134.985 126.367 136.017C131.947 137.05 133.806 142.011 134.219 156.069C134.632 170.127 134.219 181.335 131.741 184.825C129.264 188.314 115.759 189.347 98.8428 188.314C81.9278 187.282 67.2438 187.282 64.5598 183.766C61.8768 180.25 59.3998 172.192 59.6058 157.101C59.8118 142.011 60.1588 135.331 63.3278 134.572H63.3218Z" fill="#2659AA"/>
<path d="M134.224 156.069C133.81 142.011 131.952 137.049 126.372 136.017C120.792 134.985 63.3258 134.572 63.3258 134.572C63.0598 134.632 62.8197 134.746 62.5938 134.892C78.7558 135.052 112.999 135.478 117.242 136.264C122.822 137.296 124.68 142.257 125.093 156.316C125.506 170.374 125.093 181.582 122.616 185.071C121.224 187.029 116.356 188.214 109.363 188.694C121.131 188.78 129.801 187.555 131.746 184.825C134.223 181.335 134.644 170.127 134.224 156.069Z" fill="#316AC3"/>
<path d="M130.467 128.799C130.467 128.799 127.57 134.093 127.71 141.119C127.85 148.145 128.27 156.555 111.934 156.828C95.5981 157.102 73.5491 158.067 66.6631 152.693C59.7701 147.319 62.2411 129.957 67.3491 128.166C72.4501 126.375 127.71 127.227 130.467 128.799Z" fill="#2659AA"/>
<path d="M130.47 128.799C130.47 128.799 126.022 133.401 126.162 140.433C126.302 147.465 125.482 154.904 109.147 155.177C92.8116 155.45 73.5186 156.283 66.6326 150.908C63.8626 148.744 62.6106 144.935 62.4376 141.032C62.4236 145.674 63.6496 150.342 66.6656 152.7C73.5586 158.074 95.6016 157.108 111.937 156.835C128.273 156.562 127.847 148.151 127.714 141.125C127.581 134.1 130.471 128.805 130.471 128.805L130.47 128.799Z" fill="#D2DEFF"/>
<path d="M97.9155 143.182C97.9155 143.182 96.3775 158.752 96.4575 172.537C95.2985 176.119 88.4055 176.119 87.9935 172.537C87.5805 168.954 88.1335 147.87 88.8185 143.182H97.9155Z" fill="#1D4482"/>
<path d="M95.8199 168.693H88.5619C88.2532 168.694 87.9474 168.633 87.6621 168.515C87.3768 168.397 87.1176 168.224 86.8992 168.005C86.6809 167.787 86.5077 167.528 86.3896 167.242C86.2715 166.957 86.2108 166.651 86.2109 166.342V162.746C86.2109 162.123 86.4585 161.525 86.8992 161.085C87.3399 160.644 87.9377 160.396 88.5609 160.396H95.8209C96.4442 160.396 97.0419 160.644 97.4826 161.085C97.9233 161.525 98.1709 162.123 98.1709 162.746V166.342C98.1711 166.651 98.1104 166.957 97.9923 167.242C97.8743 167.527 97.7012 167.787 97.483 168.005C97.2648 168.223 97.0057 168.396 96.7205 168.515C96.4353 168.633 96.1286 168.693 95.8199 168.693ZM88.5619 161.874C88.4481 161.874 88.3354 161.896 88.2302 161.94C88.125 161.983 88.0295 162.047 87.949 162.128C87.8685 162.208 87.8047 162.304 87.7613 162.409C87.7179 162.514 87.6957 162.627 87.6959 162.74V166.336C87.6959 166.815 88.0819 167.202 88.5619 167.202H95.8209C96.3009 167.202 96.6859 166.815 96.6859 166.336V162.74C96.6862 162.627 96.664 162.514 96.6206 162.409C96.5773 162.304 96.5136 162.208 96.4332 162.128C96.3529 162.047 96.2574 161.984 96.1523 161.94C96.0473 161.897 95.9347 161.874 95.8209 161.874H88.5619Z" fill="#D7E2FF"/>
<path d="M135.553 129.395C135.553 129.395 152.063 132.325 155.093 124.041C157.436 142.634 159.088 153.103 157.023 162.886C154.959 172.669 144.41 183.35 133.695 183.59C136.485 172.808 135.553 129.389 135.553 129.389V129.395Z" fill="#2659AA"/>
<path d="M155.092 124.041C153.907 127.284 150.644 128.809 147.121 129.461C147.247 136.667 150.177 144.432 146.195 149.747C141.374 156.013 141.374 163.725 135.593 169.026C135.507 169.206 135.373 169.379 135.22 169.552C134.914 175.579 134.441 180.733 133.695 183.597C144.404 183.357 154.952 172.675 157.024 162.892C159.094 153.11 157.436 142.634 155.092 124.048V124.041Z" fill="#316AC3"/>
<path d="M125.946 81.308H72.138C71.8874 81.2999 71.6496 81.1946 71.4752 81.0144C71.3007 80.8343 71.2031 80.5933 71.2031 80.3425C71.2031 80.0916 71.3007 79.8506 71.4752 79.6705C71.6496 79.4903 71.8874 79.385 72.138 79.377H125.946C126.197 79.385 126.434 79.4903 126.609 79.6705C126.783 79.8506 126.881 80.0916 126.881 80.3425C126.881 80.5933 126.783 80.8343 126.609 81.0144C126.434 81.1946 126.197 81.2999 125.946 81.308Z" fill="#1D4482"/>
<path d="M79.2099 166.512C79.2099 152.027 70.9059 140.207 60.4899 139.561C59.8639 143.19 59.7109 148.904 59.5979 157.108C59.3919 172.199 61.8679 180.257 64.5529 183.773C65.6119 185.158 68.5349 185.997 72.7169 186.563C76.7069 181.622 79.2099 174.47 79.2099 166.512Z" fill="#316AC3"/>
</svg>
