<svg width="84" height="64" viewBox="0 0 84 64" fill="none" xmlns="http://www.w3.org/2000/svg">
<path d="M38.2761 15.6685C34.3541 15.6685 31.1641 18.6465 31.1641 22.3165V62.8435H66.8741L73.1281 9.39648L38.2751 15.6755V15.6675L38.2761 15.6685Z" fill="#CF642A"/>
<path d="M73.1215 9.38867L38.2685 15.6687C34.5585 15.6687 31.5015 18.3397 31.1875 21.7347L72.4145 15.4317L73.1215 9.39667V9.38867Z" fill="#E17A43"/>
<path d="M82.2579 62.3728V16.7458C82.2579 12.9808 78.9889 9.92383 74.9649 9.92383C70.9419 9.92383 67.6719 12.9808 67.6719 16.7458V62.3728H82.2659H82.2579Z" fill="#EDEEEF"/>
<path d="M70.7353 62.3745C70.6493 58.4765 70.6172 54.5715 70.5782 50.6735L70.5312 38.9715L70.5782 27.2695L70.6332 21.4155L70.7353 15.5605L70.8382 21.4155L70.8932 27.2695L70.9403 38.9715L70.8932 50.6735C70.8612 54.5715 70.8223 58.4765 70.7353 62.3745ZM72.5833 62.3745C72.4963 58.4765 72.4653 54.5715 72.4263 50.6735L72.3792 38.9715L72.4263 27.2695L72.4812 21.4155L72.5833 15.5605L72.6852 21.4155L72.7402 27.2695L72.7873 38.9715L72.7402 50.6735C72.7092 54.5715 72.6703 58.4765 72.5833 62.3745ZM74.4273 62.3745C74.3403 58.4765 74.3092 54.5715 74.2702 50.6735L74.2223 38.9715L74.2692 27.2695L74.3242 21.4155L74.4273 15.5605L74.5293 21.4155L74.5843 27.2695L74.6312 38.9715L74.5843 50.6735C74.5523 54.5715 74.5143 58.4765 74.4273 62.3745ZM76.2743 62.3745C76.1883 58.4765 76.1562 54.5715 76.1172 50.6735L76.0703 38.9715L76.1172 27.2695L76.1722 21.4155L76.2743 15.5605L76.3763 21.4155L76.4313 27.2695L76.4792 38.9715L76.4323 50.6735C76.4003 54.5715 76.3613 58.4765 76.2743 62.3745ZM78.1143 62.3745C78.0283 58.4765 77.9963 54.5715 77.9573 50.6735L77.9102 38.9715L77.9573 27.2695L78.0123 21.4155L78.1143 15.5605L78.2162 21.4155L78.2712 27.2695L78.3183 38.9715L78.2712 50.6735C78.2402 54.5715 78.2013 58.4765 78.1143 62.3745Z" fill="#D3D8E5"/>
<path d="M74.9608 9.93164C74.5577 9.93369 74.1555 9.96779 73.7578 10.0336C77.2158 10.5686 79.8488 13.3736 79.8488 16.7536V62.3806H82.2618V16.7526C82.2618 12.9886 78.9918 9.93164 74.9688 9.93164H74.9608Z" fill="#CF642A"/>
<path d="M68.454 62.8375V16.7455C68.454 13.3895 71.37 10.6625 74.961 10.6625C78.553 10.6625 81.468 13.3895 81.468 16.7455V62.8375H83.048V16.7455C83.048 12.5805 79.418 9.18555 74.961 9.18555C70.505 9.18555 66.875 12.5725 66.875 16.7455V62.8375H68.454Z" fill="#AA5020"/>
<path d="M10.1031 8.4742C5.53713 8.4742 1.82812 11.9482 1.82812 16.2072V63.3752H43.4001L50.6781 1.1582L10.1111 8.4662L10.1031 8.4742Z" fill="#32A570"/>
<path d="M1.82031 28.2637V63.3837H43.3933L44.3043 55.6117C27.8323 50.2837 11.0943 42.3937 1.82831 28.2637H1.82031Z" fill="#249762"/>
<path d="M50.6704 1.17383L10.1034 8.48283C5.78138 8.48283 2.22837 11.5948 1.85938 15.5478L49.8454 8.20783L50.6704 1.17383Z" fill="#40C387"/>
<path d="M61.2947 62.8477V9.73973C61.2947 5.35473 57.4917 1.80273 52.8007 1.80273C48.1087 1.80273 44.3047 5.35473 44.3047 9.73973V62.8497H61.2947V62.8477Z" fill="#EDEEEF"/>
<path d="M47.8844 62.8492C47.797 58.31 47.737 53.7702 47.7044 49.2302L47.6484 35.6102L47.7034 21.9922L47.7664 15.1782L47.8844 8.36523L48.0024 15.1782L48.0654 21.9922L48.1204 35.6112L48.0654 49.2302C48.0254 53.7722 47.9784 58.3152 47.8844 62.8502V62.8492ZM50.0364 62.8492C49.9424 58.3072 49.8954 53.7652 49.8564 49.2302L49.8004 35.6102L49.8554 21.9922L49.9184 15.1782L50.0364 8.36523L50.1544 15.1782L50.2174 21.9922L50.2724 35.6112L50.2174 49.2302C50.1774 53.7722 50.1314 58.3152 50.0374 62.8502L50.0364 62.8492ZM52.1814 62.8492C52.0864 58.3072 52.0394 53.7652 52.0004 49.2302L51.9454 35.6102L52.0004 21.9922L52.0634 15.1782L52.1814 8.36523L52.2994 15.1782L52.3624 21.9922L52.4164 35.6112L52.3614 49.2302C52.3224 53.7722 52.2754 58.3152 52.1814 62.8502V62.8492ZM54.3254 62.8492C54.2314 58.3072 54.1844 53.7652 54.1454 49.2302L54.0894 35.6102L54.1444 21.9922L54.2074 15.1782L54.3254 8.36523L54.4434 15.1782L54.5064 21.9922L54.5614 35.6112L54.5064 49.2302C54.4664 53.7722 54.4194 58.3152 54.3264 62.8502L54.3254 62.8492ZM56.4784 62.8492C56.3834 58.3072 56.3364 53.7652 56.2974 49.2302L56.2424 35.6102L56.2974 21.9922L56.3604 15.1782L56.4784 8.36523L56.5954 15.1782L56.6584 21.9922L56.7134 35.6112L56.6584 49.2302C56.6194 53.7722 56.5724 58.3152 56.4784 62.8502V62.8492Z" fill="#D3D8E5"/>
<path d="M52.8042 1.80178C52.3252 1.80178 51.8623 1.84878 51.4062 1.91978C55.4303 2.54878 58.4953 5.80178 58.4953 9.73978V62.8478H61.3003V9.73778C61.3003 5.35278 57.4962 1.80078 52.8052 1.80078L52.8042 1.80178Z" fill="#32A570"/>
<path d="M45.2306 63.3845V9.74145C45.2306 5.83545 48.6246 2.66045 52.8056 2.66045C56.9856 2.66045 60.3816 5.83545 60.3816 9.74045V63.3845H62.2206V9.74145C62.2206 4.89145 58.0006 0.939453 52.8056 0.939453C47.6106 0.939453 43.3906 4.88445 43.3906 9.74145V63.3845H45.2306Z" fill="#5ED69F"/>
<path d="M47.8828 15.6588L54.3658 14.8848L52.3768 17.5438L54.3658 19.5738H47.9458L47.8828 15.6588Z" fill="#FF9D00"/>
</svg>
