<svg width="120" height="40" viewBox="0 0 120 40" fill="none" xmlns="http://www.w3.org/2000/svg">
<path d="M9.71175 19.7998H99.7728V38.5418H9.71175C4.54075 38.5418 0.34375 34.3458 0.34375 29.1748C0.34375 24.0038 4.54075 19.8068 9.71175 19.8068V19.7988V19.7998Z" fill="#394E99"/>
<path d="M0.757812 31.9746C1.95281 35.7786 5.50481 38.5446 9.70081 38.5446H99.7628V31.9746H0.757812Z" fill="#2D4987"/>
<path d="M116.294 20.7197H30.4771C26.0911 20.7197 22.5391 24.5237 22.5391 29.2147C22.5391 33.9067 26.0911 37.7107 30.4771 37.7107H116.294V20.7197Z" fill="#EDEEEF"/>
<path d="M30.4849 20.7197C26.0989 20.7197 22.5469 24.5237 22.5469 29.2147C22.5469 29.8517 22.6169 30.4727 22.7439 31.0617C23.5369 27.2587 26.6969 24.4217 30.4839 24.4217H116.302V20.7188L30.4849 20.7197Z" fill="#D3D8E5"/>
<path d="M118.72 36.7888H30.4895C26.5835 36.7888 23.4085 33.3938 23.4085 29.2128C23.4085 25.0328 26.5835 21.6368 30.4885 21.6368H118.72V19.7988H30.4895C25.6395 19.7988 21.6875 24.0188 21.6875 29.2138C21.6875 34.4088 25.6325 38.6288 30.4895 38.6288H118.72V36.7888Z" fill="#546CAF"/>
<path d="M31.3904 25.9945C31.3904 25.9945 34.1334 29.9245 34.9744 38.6315C37.8424 37.5075 38.0784 36.9415 38.0784 36.9415L41.0644 38.6315C41.0644 38.6315 41.1824 30.2775 37.7244 25.9945H31.3904ZM91.5264 19.9205H23.3904C18.2204 19.9205 14.0234 15.7245 14.0234 10.5535C14.0234 5.38255 18.2194 1.18555 23.3904 1.18555H91.5264V19.9295V19.9205Z" fill="#FF9D00"/>
<path d="M14.3125 12.7949C15.3185 16.8819 18.9965 19.9149 23.3895 19.9149H91.5245V12.7949H14.3125Z" fill="#F28F00"/>
<path d="M108.048 2.09961H44.1558C39.7708 2.09961 36.2188 5.90361 36.2188 10.5946C36.2188 15.2866 39.7708 19.0906 44.1558 19.0906H108.048V2.09961Z" fill="#EDEEEF"/>
<path d="M44.1558 2.09961C39.7708 2.09961 36.2188 5.90361 36.2188 10.5946C36.2188 11.2316 36.2887 11.8526 36.4157 12.4416C37.2087 8.63861 40.3688 5.80161 44.1558 5.80161H108.048V2.09961H44.1558Z" fill="#D3D8E5"/>
<path d="M110.465 18.1687H44.1614C40.2554 18.1687 37.0804 14.7737 37.0804 10.5927C37.0804 6.41273 40.2554 3.01673 44.1604 3.01673H110.465V1.17773H44.1614C39.3114 1.17773 35.3594 5.39773 35.3594 10.5927C35.3594 15.7877 39.3044 20.0077 44.1614 20.0077H110.465V18.1687Z" fill="#FFCD2E"/>
<path d="M41 9.35352C41 9.35352 43.743 14.4935 44.584 25.8885C47.452 24.4185 47.688 23.6795 47.688 23.6795L50.674 25.8885C50.674 25.8885 50.792 14.9645 47.334 9.35352H41Z" fill="#E5398B"/>
</svg>
