<svg width="1917" height="885" viewBox="0 0 1917 885" fill="none" xmlns="http://www.w3.org/2000/svg">
<path d="M1890.3 2.16231C1881.94 1.35093 1875.92 0.945312 1872.21 0.945312C1824.55 0.945312 1786.33 13.7419 1757.58 39.372C1730.11 63.8221 1716.36 95.0946 1716.36 133.116C1716.36 140.012 1716.81 146.908 1717.77 153.805C1708.11 149.784 1695.46 147.756 1679.78 147.756C1664.1 147.756 1651.25 152.107 1639.3 160.848C1626.41 170.252 1619.93 181.942 1619.93 195.844V196.694C1610.16 191.419 1597.78 188.765 1582.85 188.765C1569.59 188.765 1557.71 191.825 1547.2 197.91C1539.68 202.262 1534.13 207.793 1530.52 214.468C1524.92 206.097 1516.94 197.652 1506.71 189.134C1485.21 171.21 1462.13 162.25 1437.39 162.25C1414.93 162.25 1390.65 171.027 1364.47 188.617C1347.52 199.975 1335.65 211.814 1328.82 224.093C1325.6 221.438 1322.38 219.041 1319.15 216.866C1303.86 206.871 1285.72 201.893 1264.71 201.893C1240.6 201.893 1221.62 208.383 1207.74 221.365C1207.01 204.254 1203.25 191.272 1196.47 182.422C1189.07 172.87 1178.45 168.85 1164.57 170.362C1164.91 167.375 1165.11 163.983 1165.11 160.184C1165.11 146.503 1163.3 136.619 1159.74 130.534C1152.91 119.028 1139.15 113.312 1118.37 113.312C1099.28 113.312 1084.21 117.332 1073.24 125.371C1072.52 125.961 1071.86 126.515 1071.29 127.104C1062.82 107.56 1056.3 94.7626 1051.77 88.6778C1037.09 68.9112 1017.61 59.028 993.382 59.028C966.89 59.028 942.927 66.6618 921.534 81.9292C898.837 98.2291 886.377 120.357 884.075 148.272C877.021 144.364 868.089 142.409 857.199 142.409C843.589 142.409 830.438 145.397 817.786 151.37C814.911 152.734 812.343 154.173 810.08 155.684C807.703 146.613 803.256 138.906 796.814 132.6C785.351 121.463 768.405 115.894 745.938 115.894C722.052 115.894 700.965 124.265 682.716 141.045C664.313 158.045 655.149 177.849 655.149 200.492C655.149 205.544 655.801 211.333 657.104 217.897C656.644 217.676 656.223 217.455 655.84 217.197C646.523 212.256 637.552 209.785 628.963 209.785C611.634 209.785 598.636 213.214 589.895 220.111C586.062 223.098 583.032 226.711 580.77 230.952C576.936 226.232 572.45 221.401 567.351 216.497C547.299 197.098 525.177 187.363 501.062 187.363C483.617 187.363 465.367 195.292 446.236 211.149C426.759 227.449 415.947 245.999 413.801 266.798C411.04 261.525 408.126 257.099 405.02 253.522C394.861 242.016 380.406 236.3 361.659 236.3C349.236 236.3 339.153 238.587 331.37 243.196C330.182 243.897 328.994 244.671 327.805 245.593C327.46 244.118 327.077 242.716 326.732 241.462C323.741 228.592 319.984 217.64 315.459 208.568C302.194 182.163 281.183 168.925 252.39 168.925C240.313 168.925 229.042 170.252 218.536 172.908C216.044 140.86 208.607 114.382 196.338 93.472C174.024 55.6722 136.145 36.7906 82.7754 36.7906C72.9988 36.7906 62.187 38.6714 50.3401 42.4699C29.4449 49.1447 12.6521 60.3924 0 76.25V884.871H1916.95V6.29253C1910.4 4.55929 1901.49 3.19493 1890.26 2.16231H1890.3Z" fill="white"/>
</svg>
