<svg width="242" height="202" viewBox="0 0 242 202" fill="none" xmlns="http://www.w3.org/2000/svg">
<path d="M151.388 166.434C151.388 166.434 146.168 153.54 154.593 147.497C163.027 141.454 165.081 139.12 169.118 128.944C173.154 118.769 181.523 116.035 193.993 117.178C206.463 118.313 204.561 118.713 216.079 113.573C227.598 108.433 239.196 113.213 240.963 119.433C242.737 125.659 232.45 128.577 225.791 136.538C219.133 144.5 218.317 153.372 209.421 156.41C200.524 159.455 189.853 156.274 185.68 164.251C181.5 172.229 156.008 174.115 154.418 179.455C149.941 173.955 151.388 166.426 151.388 166.426V166.434Z" fill="#4C7666"/>
<path d="M234.42 128.95C233.405 129.71 232.334 130.509 231.255 131.364C227.274 130.9 219.28 130.133 214.197 130.828C212.423 132.126 210.746 133.549 209.177 135.088C207.866 136.384 206.419 137.527 204.892 138.566C210.176 137.263 218.265 136.48 224.828 137.766C224.028 138.828 223.278 139.928 222.582 141.06C217.298 140.244 208.385 139.133 202.894 139.829C199.56 141.803 195.899 143.37 192.191 144.801C199.329 144.737 210.191 146.056 217.738 149.469C217.058 150.516 216.338 151.499 215.523 152.395C211.079 150.844 198.066 146.495 189.953 145.656C186.036 147.126 182.135 148.542 178.593 150.244C176.587 151.211 174.493 152.642 172.399 154.377C178.194 153.61 191.119 154.457 200.376 158.014C197.506 158.27 194.725 158.486 192.295 159.181C185.628 157.119 176.947 154.793 171.855 154.833C168.402 157.798 164.973 161.587 161.991 165.568C166.211 163.466 177.874 161.467 185.836 163.993C185.788 164.081 185.732 164.161 185.684 164.257C185.156 165.264 184.293 166.167 183.174 166.999C178.098 166.111 166.604 164.393 161.639 166.039C158.37 170.468 155.669 175.088 154.094 179.037C154.006 178.917 153.918 178.797 153.838 178.677C154.453 175.847 155.828 170.652 158.506 165.072C158.162 160.652 155.269 153.666 153.039 148.854C153.502 148.374 154.014 147.918 154.597 147.494C155.053 147.167 155.493 146.855 155.908 146.544C158.386 152.403 159.313 159.597 159.074 163.905C160.496 161.123 162.247 158.278 164.397 155.615C164.717 151.723 163.597 145.752 162.471 140.964C163.517 139.817 164.446 138.57 165.245 137.239C166.571 143.322 166.204 150.389 165.221 154.633C167.555 151.931 170.321 149.469 173.598 147.503C174.349 141.883 171.503 130.9 170.264 126.472C170.927 125.227 171.728 124.06 172.654 122.995C176.316 130.221 175.732 142.043 174.149 147.175C174.661 146.879 175.189 146.591 175.724 146.327C177.73 145.324 179.756 144.36 181.799 143.434C184.757 137.119 183.269 122.259 182.694 117.504C184.277 117.191 185.98 117.016 187.786 116.96C190.088 126.104 186.236 138.07 182.766 143.002C185.492 141.799 188.248 140.663 191.031 139.597C194.485 133.474 196.467 122.115 197.171 117.479C199.337 117.687 200.951 117.839 202.302 117.879C202.102 125.465 197.626 133.746 193.477 138.669C197.922 136.983 201.551 135.609 205.5 133.314C207.954 128.566 209.624 121.236 210.575 116.024C212.022 115.401 213.781 114.602 216.083 113.578C216.167 113.54 216.252 113.505 216.339 113.474C215.819 119.694 212.638 126.224 209.257 130.9C210.129 130.289 210.985 129.655 211.823 128.998C214.761 126.705 217.924 124.715 221.263 123.058C222.766 119.486 223.765 114.626 224.308 111.476C225.537 111.383 226.772 111.386 228.001 111.484C227.53 115.161 225.779 118.934 223.829 121.876C231.239 118.702 237.817 118.015 240.975 119.438C233.165 120.557 223.661 124.354 216.011 129.549C221.151 128.182 228.873 127.335 234.428 128.949L234.42 128.95Z" fill="#57947D"/>
<path d="M148.754 168.965C148.754 168.965 150.001 157.095 158.826 155.92C167.651 154.745 170.152 153.81 177.315 147.734C184.477 141.659 191.919 142.97 200.895 148.862C209.88 154.752 208.273 154.289 219.072 155.049C229.872 155.808 236.722 164.105 235.555 169.533C234.388 174.96 225.419 173.026 217.162 176.367C208.905 179.708 204.708 186.095 196.747 184.808C188.777 183.521 181.983 176.807 175.604 181.163C169.217 185.52 149.146 176.663 145.788 180.06C144.613 174.089 148.754 168.973 148.754 168.973V168.965Z" fill="#85BF99"/>
<path d="M226.757 174.088C225.679 174.256 224.551 174.424 223.384 174.64C220.554 172.681 214.815 168.876 210.683 167.35C208.756 167.629 206.902 168.029 205.159 168.549C203.64 169.004 202.089 169.284 200.507 169.452C205.039 170.595 211.474 173.273 215.927 176.894C214.892 177.373 213.88 177.904 212.897 178.485C209.22 175.735 202.929 171.298 198.485 169.612C195.159 169.764 191.762 169.468 188.373 169.06C193.801 171.89 201.498 177.27 205.839 182.905C204.903 183.425 203.96 183.88 202.985 184.224C200.243 181.258 192.145 172.713 186.343 168.805C182.786 168.341 179.26 167.837 175.887 167.693C173.977 167.613 171.811 167.853 169.524 168.325C174.224 170.083 183.673 175.935 189.244 182.369C186.966 181.41 184.776 180.451 182.65 179.987C178.43 175.735 172.794 170.467 168.925 168.445C165.112 169.292 160.987 170.787 157.119 172.593C161.163 172.705 170.803 175.895 175.807 181.026C175.735 181.074 175.663 181.114 175.583 181.162C174.776 181.714 173.753 182.05 172.578 182.234C169.093 179.516 161.083 173.577 156.655 172.817C152.395 174.848 148.485 177.262 145.695 179.612L145.648 179.236C147.255 177.342 150.396 173.96 154.673 170.819C156.199 167.334 156.823 160.875 157.079 156.327C157.622 156.151 158.198 156.015 158.805 155.927C159.285 155.863 159.74 155.799 160.188 155.735C159.7 161.171 157.502 166.99 155.584 170.163C157.782 168.629 160.252 167.182 162.962 166.039C164.776 163.217 166.343 158.245 167.414 154.169C168.67 153.723 169.878 153.152 171.019 152.466C169.572 157.606 166.439 162.809 163.985 165.631C166.839 164.528 169.932 163.777 173.209 163.609C176.047 159.66 178.325 150.196 179.173 146.335C180.176 145.655 181.254 145.095 182.386 144.665C182.242 151.611 177.03 160.331 173.769 163.577C174.281 163.557 174.793 163.557 175.304 163.577C177.406 163.633 179.316 163.721 181.067 163.841C185.855 160.252 190.723 148.397 192.21 144.561C193.537 144.96 194.896 145.511 196.286 146.199C194.336 154.049 186.59 161.562 181.978 163.897C184.896 164.104 187.39 164.384 189.612 164.656C194.696 161.411 200.787 153.609 203.185 150.38C204.744 151.41 205.903 152.178 206.91 152.754C203.696 158.421 196.966 162.881 191.834 164.936C195.879 165.455 199.188 165.879 203.097 165.727C206.87 163.121 211.09 158.245 213.92 154.68C215.271 154.792 216.926 154.896 219.076 155.048C219.156 155.048 219.236 155.064 219.308 155.072C216.406 159.572 211.362 163.233 206.918 165.415C207.825 165.302 208.728 165.169 209.628 165.016C212.778 164.465 215.976 164.235 219.172 164.328C221.754 162.226 224.472 158.957 226.15 156.782C227.15 157.222 228.084 157.726 228.94 158.277C227.101 160.867 224.256 163.025 221.586 164.456C228.476 165.04 233.736 167.174 235.558 169.532C229.196 167.23 220.467 166.271 212.569 167.118C217.014 168.157 223.2 170.627 226.758 174.096L226.757 174.088Z" fill="#57947D"/>
<path d="M181.935 160.988C190.84 155.665 202.942 146.904 213.669 134.002L212.734 133.682C202.142 146.336 190.232 154.945 181.464 160.197C170.08 167.007 161.416 169.797 161.328 169.829L161.608 170.716C161.695 170.684 170.472 167.862 181.943 160.996L181.935 160.988Z" fill="#AFEFBE"/>
<path d="M209.281 138.333C209.281 138.333 217.858 137.71 220.408 120.932C212.134 128.709 209.808 135.775 209.281 138.333ZM206.598 141.795C206.598 141.795 211.642 132.89 206.102 123.33C200.372 135.296 205.303 141.523 206.598 141.795Z" fill="#AFEFBE"/>
<path d="M205.882 142.113C205.882 142.113 211.598 146.629 223.868 141.13C210.343 136.71 206.138 140.81 205.882 142.113ZM198.572 148.845C198.572 148.845 203.992 139.405 198.028 129.373C193.456 141.235 197.277 148.573 198.572 148.845Z" fill="#AFEFBE"/>
<path d="M197.868 149.164C197.868 149.164 203.583 153.68 215.853 148.181C202.328 143.761 198.123 147.861 197.868 149.164ZM189.252 155.968C189.252 155.968 196.398 147.758 192.489 136.76C185.702 147.51 188.036 155.448 189.252 155.968Z" fill="#AFEFBE"/>
<path d="M188.492 156.141C188.492 156.141 193.224 161.681 206.333 158.668C193.919 151.705 188.995 154.917 188.492 156.141ZM181.351 161.043C181.351 161.043 187.97 154.057 184.932 144.201C178.538 153.441 180.295 160.54 181.351 161.043Z" fill="#AFEFBE"/>
<path d="M180.683 161.179C180.683 161.179 184.656 166.247 196.343 164.081C185.639 157.47 181.171 160.116 180.683 161.179ZM173.598 165.191C173.598 165.191 179.201 159.284 176.628 150.947C171.216 158.765 172.703 164.768 173.598 165.191Z" fill="#AFEFBE"/>
<path d="M173.027 165.303C173.027 165.303 176.392 169.588 186.272 167.757C177.216 162.162 173.442 164.408 173.027 165.303ZM165.879 168.896C165.879 168.896 170.691 163.82 168.477 156.658C163.833 163.373 165.112 168.528 165.879 168.896Z" fill="#AFEFBE"/>
<path d="M165.391 168.994C165.391 168.994 168.277 172.679 176.766 171.104C168.988 166.3 165.743 168.226 165.391 168.994ZM193.151 118.929C200.368 108.922 209.465 93.646 215.108 74.502L213.933 74.598C208.321 93.406 199.368 108.418 192.254 118.29C183.03 131.087 174.868 138.226 174.789 138.298L175.508 139.128C175.588 139.057 183.845 131.838 193.142 118.938L193.151 118.929Z" fill="#AFEFBE"/>
<path d="M212.359 81.3125C212.359 81.3125 221.439 76.5965 216.316 57.0605C210.944 69.4505 211.72 78.2675 212.359 81.3125ZM211.048 86.3595C211.048 86.3595 212.366 74.2575 201.815 66.4245C201.192 82.1945 209.506 86.6715 211.048 86.3595Z" fill="#AFEFBE"/>
<path d="M210.432 87.0463C210.432 87.0463 218.809 89.2843 229.624 77.5023C212.766 79.0453 210.104 85.5033 210.432 87.0463ZM205.604 97.8373C205.604 97.8373 207.075 84.9753 195.836 76.8223C196.428 91.9383 204.062 98.1493 205.604 97.8373Z" fill="#AFEFBE"/>
<path d="M204.986 98.5232C204.986 98.5232 213.363 100.761 224.178 88.9782C207.32 90.5212 204.658 96.9812 204.986 98.5232ZM198.769 110C198.769 110 202.71 97.6662 193.262 87.4902C190.912 102.43 197.195 110.008 198.769 110Z" fill="#AFEFBE"/>
<path d="M198.036 110.552C198.036 110.552 205.813 114.372 218.715 104.908C201.881 103.15 198.013 108.977 198.036 110.552ZM192.544 119.274C192.544 119.274 196.484 108.531 188.523 99.1855C185.893 112.296 191.154 119.226 192.544 119.274Z" fill="#AFEFBE"/>
<path d="M191.86 119.739C191.86 119.739 198.59 123.408 210.333 115.534C195.529 113.352 191.9 118.348 191.86 119.739ZM186.022 127.457C186.022 127.457 189.355 118.368 182.624 110.463C180.394 121.55 184.847 127.409 186.022 127.457Z" fill="#AFEFBE"/>
<path d="M185.446 127.843C185.446 127.843 191.137 130.945 201.073 124.286C188.547 122.44 185.478 126.668 185.446 127.843ZM179.336 135.141C179.336 135.141 182.198 127.331 176.418 120.545C174.508 130.065 178.328 135.101 179.336 135.141Z" fill="#AFEFBE"/>
<path d="M178.852 135.477C178.852 135.477 183.744 138.139 192.273 132.423C181.513 130.841 178.875 134.47 178.852 135.477Z" fill="#AFEFBE"/>
<path d="M109.322 37.4863L147.547 143.777L124.32 152.131L86.0938 45.8403L109.322 37.4863Z" fill="#FCDB3D"/>
<path d="M109.311 37.4824L147.536 143.772L129.709 150.183L91.4844 43.8934L109.311 37.4824Z" fill="#F9C00B"/>
<path d="M132.778 146.982L132.938 147.426L129.169 148.781L129.009 148.337L132.778 146.982ZM132.004 144.92L132.164 145.363L128.396 146.719L128.236 146.275L132.004 144.92ZM131.274 142.818L131.434 143.262L127.665 144.617L127.505 144.173L131.274 142.818ZM130.504 140.763L130.664 141.207L126.896 142.563L126.736 142.119L130.504 140.763ZM131.352 138.099L131.512 138.543L126.172 140.464L126.012 140.02L131.352 138.099ZM128.969 136.482L129.129 136.926L125.361 138.282L125.201 137.838L128.969 136.482ZM128.239 134.392L128.399 134.836L124.63 136.191L124.47 135.747L128.239 134.392ZM127.481 132.322L127.641 132.766L123.873 134.122L123.713 133.678L127.481 132.322ZM126.747 130.232L126.907 130.676L123.137 132.031L122.978 131.587L126.747 130.232ZM127.544 127.599L127.704 128.043L122.364 129.964L122.204 129.521L127.544 127.599ZM125.215 125.951L125.375 126.395L121.607 127.75L121.447 127.307L125.215 125.951ZM124.457 123.877L124.617 124.32L120.849 125.676L120.689 125.232L124.457 123.877ZM123.684 121.81L123.844 122.254L120.076 123.61L119.916 123.166L123.684 121.81ZM122.946 119.724L123.106 120.168L119.337 121.524L119.177 121.08L122.946 119.724ZM123.774 117.076L123.934 117.52L118.594 119.441L118.434 118.997L123.774 117.076ZM121.438 115.419L121.598 115.863L117.829 117.219L117.669 116.775L121.438 115.419ZM120.661 113.365L120.821 113.809L117.052 115.164L116.892 114.721L120.661 113.365ZM119.927 111.279L120.087 111.723L116.317 113.078L116.158 112.634L119.927 111.279ZM119.153 109.209L119.313 109.652L115.544 111.008L115.384 110.564L119.153 109.209ZM119.981 106.564L120.141 107.008L114.801 108.929L114.641 108.486L119.981 106.564ZM117.622 104.939L117.782 105.383L114.013 106.739L113.853 106.295L117.622 104.939ZM116.895 102.841L117.055 103.285L113.286 104.64L113.126 104.197L116.895 102.841ZM116.145 100.755L116.305 101.199L112.537 102.555L112.377 102.111L116.145 100.755ZM115.372 98.6973L115.532 99.1413L111.763 100.497L111.603 100.053L115.372 98.6973ZM116.223 96.0333L116.383 96.4773L111.043 98.3973L110.883 97.9533L116.223 96.0333ZM113.864 94.3923L114.024 94.8363L110.255 96.1923L110.095 95.7483L113.864 94.3923ZM113.107 92.3223L113.266 92.7663L109.497 94.1203L109.337 93.6763L113.107 92.3223ZM112.333 90.2523L112.493 90.6953L108.724 92.0513L108.564 91.6073L112.333 90.2523ZM111.614 88.1623L111.774 88.6063L108.005 89.9613L107.845 89.5173L111.614 88.1623ZM112.419 85.5253L112.579 85.9693L107.239 87.8903L107.079 87.4463L112.419 85.5253ZM110.09 83.8733L110.25 84.3163L106.482 85.6723L106.322 85.2283L110.09 83.8733ZM109.305 81.8223L109.465 82.2663L105.697 83.6203L105.537 83.1773L109.305 81.8223ZM108.551 79.7403L108.711 80.1843L104.943 81.5403L104.783 81.0963L108.551 79.7403ZM107.825 77.6383L107.985 78.0823L104.216 79.4373L104.056 78.9933L107.825 77.6383ZM108.677 74.9783L108.837 75.4223L103.496 77.3423L103.336 76.8993L108.676 74.9793L108.677 74.9783ZM106.301 73.3653L106.461 73.8093L102.693 75.1643L102.533 74.7203L106.301 73.3653ZM105.52 71.2983L105.68 71.7423L101.912 73.0983L101.752 72.6543L105.52 71.2983ZM104.809 69.1933L104.969 69.6373L101.2 70.9923L101.04 70.5483L104.809 69.1933ZM104.027 67.1383L104.187 67.5823L100.419 68.9383L100.259 68.4943L104.027 67.1383ZM104.867 64.4823L105.027 64.9263L99.6867 66.8463L99.5267 66.4033L104.867 64.4823ZM102.508 62.8533L102.668 63.2973L98.8997 64.6533L98.7397 64.2093L102.508 62.8533ZM101.739 60.7833L101.899 61.2273L98.1297 62.5833L97.9697 62.1393L101.739 60.7833ZM100.985 58.7003L101.145 59.1443L97.3757 60.5003L97.2157 60.0573L100.985 58.7003ZM100.259 56.6103L100.419 57.0553L96.6488 58.4103L96.4897 57.9663L100.259 56.6103ZM101.067 53.9823L101.227 54.4263L95.8867 56.3473L95.7267 55.9033L101.067 53.9823ZM98.7227 52.3303L98.8827 52.7733L95.1147 54.1293L94.9548 53.6863L98.7227 52.3303ZM97.9497 50.2713L98.1097 50.7153L94.3407 52.0713L94.1807 51.6273L97.9497 50.2713ZM97.2038 48.1973L97.3638 48.6413L93.5947 49.9963L93.4347 49.5533L97.2038 48.1973ZM96.4567 46.1153L96.6167 46.5593L92.8487 47.9143L92.6887 47.4713L96.4567 46.1153ZM97.3088 43.4473L97.4688 43.8913L92.1287 45.8123L91.9688 45.3683L97.3088 43.4473Z" fill="#CE7720"/>
<path d="M195.414 28.8448L201.824 30.9708L195.414 33.0968L193.287 39.5158L191.153 33.0968L184.742 30.9708L191.153 28.8438L193.287 22.4258L195.414 28.8448Z" fill="#F9B800"/>
<path d="M167.73 21.3291L170.512 22.2481L167.73 23.1751L166.811 25.9571L165.883 23.1751L163.102 22.2481L165.883 21.3281L166.811 18.5391L167.73 21.3291Z" fill="#F7DAC4"/>
<path d="M139.156 5.14953L143.912 6.72453L139.156 8.30753L137.581 13.0635L135.998 8.30753L131.242 6.72453L135.998 5.15053L137.581 0.394531L139.156 5.14953Z" fill="#7DD3C7"/>
<path d="M45.421 40.4216L48.211 41.3416L45.421 42.2686L44.502 45.0506L43.582 42.2686L40.793 41.3416L43.583 40.4216L44.503 37.6406L45.421 40.4216Z" fill="#F7DAC4"/>
<path d="M198.629 75.7574L125.154 51.0154C124.075 50.6522 122.896 50.7324 121.876 51.2383C120.857 51.7443 120.08 52.6346 119.716 53.7134L84.3572 158.725C83.994 159.804 84.0742 160.983 84.5801 162.003C85.0861 163.023 85.9764 163.8 87.0552 164.163L160.529 188.904C161.063 189.084 161.628 189.157 162.19 189.119C162.753 189.081 163.302 188.932 163.807 188.682C164.312 188.431 164.763 188.084 165.133 187.659C165.504 187.234 165.787 186.741 165.967 186.206L201.327 81.1944C201.507 80.6602 201.58 80.0957 201.542 79.5333C201.504 78.9709 201.355 78.4215 201.105 77.9165C200.854 77.4115 200.507 76.9609 200.082 76.5902C199.657 76.2196 199.163 75.9362 198.629 75.7564V75.7574Z" fill="#2659AA"/>
<path d="M192.962 84.1056L124.639 61.0996L92.7422 155.824L161.066 178.831L192.962 84.1056Z" fill="white"/>
<path d="M166.768 81.772L146.888 75.073C145.616 74.6417 144.566 73.7245 143.969 72.5216C143.371 71.3188 143.273 69.9283 143.698 68.654L146.784 59.502L176.272 69.43L173.186 78.582C172.755 79.8538 171.838 80.9032 170.635 81.5009C169.432 82.0987 168.042 82.1961 166.768 81.772ZM148.008 61.964L145.545 69.278C145.414 69.6669 145.361 70.0777 145.389 70.4871C145.417 70.8965 145.525 71.2964 145.708 71.6639C145.891 72.0314 146.144 72.3593 146.453 72.6288C146.762 72.8984 147.122 73.1044 147.511 73.235L167.391 79.933C167.78 80.0639 168.191 80.1169 168.6 80.0889C169.01 80.0609 169.409 79.9526 169.777 79.77C170.144 79.5874 170.472 79.3342 170.742 79.0248C171.011 78.7154 171.217 78.356 171.348 77.967L173.81 70.653L148.007 61.963L148.008 61.964Z" fill="#F2A72E"/>
<path d="M181.315 66.2548L144.695 53.9238L141.844 62.3938L178.464 74.7238L181.316 66.2538L181.315 66.2548Z" fill="#F2A72E"/>
<path d="M125.878 78.0664L125.723 78.5284L181.531 97.3214L181.687 96.8594L125.878 78.0664ZM123.999 83.6324L123.844 84.0954L179.652 102.887L179.808 102.425L123.999 83.6324ZM122.133 89.2074L121.977 89.6694L177.785 108.461L177.941 107.999L122.133 89.2074ZM120.249 94.7894L120.094 95.2514L175.902 114.043L176.058 113.581L120.249 94.7894ZM118.374 100.363L118.219 100.825L174.027 119.619L174.183 119.156L118.374 100.364V100.363ZM116.496 105.926L116.34 106.388L172.149 125.179L172.304 124.717L116.496 105.926ZM114.621 111.499L114.465 111.962L170.274 130.754L170.429 130.292L114.621 111.499ZM112.738 117.074L112.582 117.536L168.391 136.329L168.546 135.866L112.738 117.074ZM110.867 122.652L110.711 123.114L166.52 141.907L166.675 141.445L110.867 122.652ZM108.988 128.218L108.832 128.681L164.641 147.473L164.796 147.011L108.988 128.218ZM107.121 133.793L106.965 134.255L162.774 153.047L162.929 152.585L107.121 133.793ZM105.242 139.367L105.086 139.829L160.895 158.622L161.05 158.159L105.242 139.367ZM103.363 144.937L103.207 145.399L159.016 164.192L159.171 163.73L103.363 144.937ZM101.483 150.504L101.328 150.966L157.137 169.758L157.293 169.296L101.483 150.504Z" fill="#C5D3F9"/>
<path d="M122.854 104.14C122.854 104.14 120.783 101.51 120.197 98.11C119.611 94.703 123.247 90.56 123.19 87.938C123.133 85.308 122.668 84.373 122.668 84.373C123.148 84.909 123.611 85.423 124.054 85.93C126.684 88.91 128.669 91.424 129.854 94.76C131.241 98.653 128.976 103.568 128.976 103.568C128.976 103.568 127.34 104.811 126.733 104.796C126.126 104.782 122.854 104.146 122.854 104.146V104.14Z" fill="#AD4D0C"/>
<path d="M124.211 86.6074C124.211 86.6074 127.054 90.0434 128.304 94.2444C129.554 98.4444 128.497 101.052 126.397 101.152C124.297 101.252 125.075 97.4664 125.025 95.2084C124.975 92.9584 124.69 87.6504 124.218 86.6084L124.211 86.6074Z" fill="#BF5A16"/>
<path d="M130.878 118.315C131.907 129.209 134.85 177.421 132.9 177.6C130.95 177.786 124.842 129.874 123.82 118.98C122.791 108.086 124.163 105.671 126.113 105.485C128.063 105.3 129.856 107.421 130.885 118.315H130.878Z" fill="#8E5026"/>
<path d="M123.667 109.179L129.189 108.664L128.982 103.557L122.859 104.135L123.667 109.179Z" fill="#BFCCD6"/>
<path d="M129.28 115.267C129.552 118.153 133.116 170.887 132.266 170.966C131.416 171.044 126.466 118.439 126.194 115.56C125.923 112.674 126.394 110.274 127.244 110.195C128.094 110.117 129.009 112.388 129.28 115.267Z" fill="#A85F2D"/>
<path d="M144.705 99.0939C144.705 99.0939 144.198 95.5639 144.955 91.5639C145.713 87.5639 149.555 83.8919 150.406 80.9139C151.256 77.9339 151.256 76.7559 151.256 76.7559C151.399 77.4919 151.535 78.1989 151.663 78.8919C152.42 82.9709 152.906 86.3499 152.578 90.4359C152.192 95.2079 149.013 100.13 149.013 100.13C149.013 100.13 147.491 101.087 147.091 100.901C146.691 100.715 144.705 99.1079 144.705 99.1079V99.0939Z" fill="#6B3917"/>
<path d="M151.535 79.6973C151.535 79.6973 152.285 84.3473 151.706 89.4273C151.127 94.5063 149.534 97.1573 148.091 96.6923C146.649 96.2273 148.449 92.1703 149.177 89.6203C149.906 87.0703 151.507 81.0043 151.542 79.6973H151.535Z" fill="#9E480D"/>
<path d="M146.954 111.406C144.961 119.786 134.945 156.453 133.445 156.096C131.945 155.739 139.531 118.492 141.525 110.113C143.518 101.733 145.146 100.283 146.646 100.641C148.146 100.998 148.946 103.034 146.954 111.406Z" fill="#8E5026"/>
<path d="M143.898 102.78L148.141 103.793L149.277 99.9365L144.569 98.8145L143.898 102.78Z" fill="#BFCCD6"/>
<path d="M146.537 108.74C146.008 110.955 135.314 151.159 134.657 151.001C134 150.844 143.637 110.397 144.165 108.176C144.694 105.954 145.651 104.29 146.308 104.446C146.966 104.604 147.065 106.526 146.537 108.74Z" fill="#A85F2D"/>
<path d="M142.05 78.329C142.078 77.643 143.135 69.006 142.942 68.378L135 67.791C134.1 69.213 133.857 79.249 133.885 80.721C133.942 84.178 134.407 86.736 134.407 86.736C134.407 86.736 137.55 87.857 138.143 87.972C138.736 88.079 140.543 87.1 140.543 87.1C140.543 87.1 141.85 83.179 142.05 78.329Z" fill="#BF5A16"/>
<path d="M142.46 74.384C142.745 71.756 143.045 68.741 142.931 68.377L134.987 67.791C134.845 68.02 134.716 68.484 134.602 69.098L135.123 83.85L135.438 69.934L136.216 84.121L136.602 70.055L137.066 84.335L137.523 69.784L137.673 79.878L138.853 70.57L138.881 82.292L139.766 70.662L140.052 78.949L140.945 70.834L140.745 84.264L142.46 74.377V74.384Z" fill="#AD4D0C"/>
<path d="M140.163 101.978C139.52 112.9 135.106 160.998 133.155 160.884C131.198 160.769 132.448 112.486 133.084 101.564C133.727 90.6414 135.441 88.4624 137.399 88.5764C139.356 88.6914 140.806 91.0564 140.163 101.985V101.978Z" fill="#A35C2C"/>
<path d="M134.434 91.856L139.97 92.177L140.542 87.105L134.406 86.748L134.434 91.856Z" fill="#BFCCD6"/>
<path d="M139.06 98.7271C138.889 101.62 134.403 154.283 133.553 154.233C132.703 154.183 135.803 101.434 135.974 98.5481C136.146 95.6551 136.974 93.3551 137.824 93.4051C138.674 93.4551 139.232 95.8411 139.06 98.7271Z" fill="#BA6A35"/>
<path d="M127.852 165.936L123.109 166.957C122.864 167.01 122.61 167.015 122.363 166.97C122.116 166.925 121.881 166.832 121.67 166.696C121.459 166.56 121.276 166.384 121.134 166.177C120.991 165.971 120.89 165.739 120.837 165.493L110.5 118.903L112.272 106.494L118.987 117.074L129.324 163.664C129.431 164.16 129.337 164.677 129.062 165.103C128.787 165.53 128.354 165.829 127.859 165.936H127.852Z" fill="#5B69BC"/>
<path d="M112.407 106.708L112.272 106.494L110.5 118.903L120.837 165.493C120.889 165.739 120.99 165.972 121.132 166.179C121.275 166.385 121.457 166.562 121.668 166.698C121.88 166.834 122.116 166.927 122.363 166.971C122.61 167.016 122.864 167.011 123.109 166.957L123.694 166.829C123.94 166.777 124.173 166.676 124.379 166.534C124.586 166.391 124.763 166.209 124.899 165.998C125.035 165.786 125.128 165.551 125.173 165.303C125.217 165.056 125.213 164.803 125.159 164.557L112.4 106.701L112.407 106.708Z" fill="#4750A0"/>
<path d="M120.062 161.913L120.833 165.491C120.886 165.737 120.986 165.97 121.129 166.176C121.272 166.383 121.454 166.56 121.665 166.696C121.876 166.832 122.112 166.925 122.359 166.97C122.607 167.014 122.86 167.01 123.105 166.956L127.848 165.934C128.094 165.882 128.327 165.782 128.534 165.639C128.741 165.496 128.917 165.314 129.053 165.103C129.19 164.892 129.283 164.656 129.327 164.409C129.372 164.162 129.367 163.908 129.313 163.663L128.534 160.041L120.062 161.913Z" fill="#FF5545"/>
<path d="M112.272 106.493L110.5 118.902L110.536 119.052C111.522 119.623 113.472 120.331 114.965 118.195C117.294 119.13 118.465 117.823 118.944 117.009L112.272 106.486V106.493Z" fill="#FFA95C"/>
<path d="M112.317 111.688C112.639 111.638 112.954 111.567 113.267 111.481C113.832 111.238 114.368 110.938 114.89 110.617L112.275 106.502L111.539 111.652C111.796 111.674 112.061 111.695 112.318 111.695L112.317 111.688Z" fill="#4750A0"/>
<path d="M133.623 165.936L138.367 166.957C138.613 167.01 138.866 167.015 139.113 166.97C139.36 166.925 139.596 166.832 139.807 166.696C140.018 166.56 140.2 166.384 140.343 166.177C140.486 165.971 140.586 165.739 140.639 165.493L150.976 118.903L149.204 106.494L142.489 117.074L132.152 163.664C132.045 164.16 132.14 164.677 132.414 165.103C132.689 165.53 133.122 165.829 133.617 165.936H133.623Z" fill="#FFCD2E"/>
<path d="M149.076 106.708L149.212 106.494L150.983 118.903L140.646 165.493C140.594 165.739 140.494 165.972 140.351 166.178C140.208 166.385 140.026 166.561 139.815 166.697C139.604 166.833 139.368 166.926 139.121 166.971C138.874 167.016 138.621 167.011 138.375 166.957L137.789 166.829C137.544 166.777 137.311 166.676 137.104 166.533C136.898 166.391 136.721 166.208 136.585 165.997C136.449 165.786 136.356 165.55 136.312 165.303C136.267 165.056 136.272 164.802 136.325 164.557L149.083 106.701L149.076 106.708Z" fill="#F9B800"/>
<path d="M141.412 161.913L140.641 165.491C140.589 165.737 140.488 165.97 140.346 166.176C140.203 166.383 140.021 166.56 139.81 166.696C139.599 166.832 139.363 166.925 139.115 166.97C138.868 167.014 138.615 167.01 138.369 166.956L133.626 165.934C133.381 165.882 133.148 165.782 132.941 165.639C132.734 165.496 132.558 165.314 132.421 165.103C132.285 164.892 132.192 164.656 132.148 164.409C132.103 164.162 132.108 163.908 132.161 163.663L132.941 160.041L141.412 161.913Z" fill="#FF5545"/>
<path d="M149.211 106.493L150.983 118.902L150.947 119.052C149.961 119.623 148.011 120.331 146.518 118.195C144.189 119.13 143.018 117.823 142.539 117.009L149.211 106.486V106.493Z" fill="#FFA95C"/>
<path d="M149.166 111.684C148.845 111.633 148.528 111.564 148.216 111.477C147.651 111.234 147.116 110.934 146.594 110.613L149.208 106.498L149.944 111.648C149.685 111.673 149.426 111.687 149.166 111.691V111.684Z" fill="#594B40"/>
<path d="M127.812 170.695L132.627 171.295C133.677 171.424 134.627 170.681 134.762 169.631L140.942 122.311L138.084 110.111L132.326 121.247L126.147 168.566C126.019 169.616 126.762 170.566 127.812 170.702V170.695Z" fill="#35B6AA"/>
<path d="M137.982 110.333L138.096 110.111L140.954 122.312L134.774 169.632C134.743 169.882 134.663 170.123 134.539 170.341C134.415 170.56 134.249 170.752 134.051 170.907C133.853 171.061 133.626 171.175 133.384 171.242C133.142 171.309 132.888 171.327 132.639 171.296L132.039 171.225C131.789 171.195 131.548 171.115 131.329 170.991C131.111 170.867 130.918 170.701 130.764 170.502C130.609 170.304 130.495 170.077 130.428 169.835C130.361 169.592 130.343 169.339 130.374 169.089L137.974 110.333H137.982Z" fill="#20A898"/>
<path d="M135.22 166.002L134.77 169.631C134.739 169.88 134.659 170.121 134.535 170.34C134.411 170.559 134.245 170.751 134.047 170.906C133.849 171.06 133.622 171.174 133.379 171.241C133.137 171.308 132.884 171.327 132.634 171.296L127.82 170.696C127.571 170.665 127.33 170.585 127.111 170.461C126.892 170.337 126.7 170.171 126.545 169.973C126.391 169.774 126.277 169.548 126.21 169.305C126.143 169.063 126.124 168.809 126.155 168.56L126.612 164.881L135.22 166.002Z" fill="#FF5545"/>
<path d="M138.089 110.111L140.946 122.312L140.925 122.47C139.989 123.127 138.11 123.998 136.431 122.005C134.195 123.141 132.91 121.941 132.359 121.177L138.081 110.111H138.089Z" fill="#FFA95C"/>
<path d="M138.509 115.284C138.185 115.262 137.863 115.218 137.545 115.155C136.963 114.957 136.397 114.716 135.852 114.433L138.095 110.104L139.281 115.169C139.023 115.212 138.766 115.255 138.509 115.276V115.284Z" fill="#20A898"/>
<path d="M122.95 160.528L126.708 160.485C127.101 160.48 127.476 160.319 127.75 160.038C128.025 159.757 128.177 159.378 128.172 158.985L127.965 122.025L124.5 112.959L121.25 122.103L121.457 159.064C121.462 159.457 121.623 159.832 121.904 160.106C122.185 160.381 122.564 160.533 122.957 160.528H122.95Z" fill="#CE026D"/>
<path d="M124.438 113.145L124.503 112.959L127.967 122.024L128.174 158.985C128.178 159.378 128.026 159.756 127.751 160.037C127.477 160.318 127.102 160.479 126.709 160.485H126.246C125.854 160.49 125.476 160.339 125.195 160.066C124.914 159.793 124.752 159.42 124.746 159.028L124.438 113.145Z" fill="#E5398B"/>
<path d="M128.144 156.154L128.18 158.99C128.183 159.383 128.031 159.761 127.757 160.042C127.482 160.323 127.108 160.484 126.715 160.49L122.958 160.533C122.565 160.537 122.187 160.384 121.906 160.11C121.625 159.836 121.464 159.462 121.458 159.069L121.422 156.197L128.144 156.154Z" fill="#FF5545"/>
<path d="M124.502 112.967L127.966 122.032V122.153C127.324 122.753 125.973 123.618 124.473 122.268C122.873 123.375 121.766 122.589 121.266 122.061L124.502 112.967Z" fill="#FFA95C"/>
<path d="M125.364 116.895C125.114 116.917 124.864 116.917 124.614 116.895C124.148 116.805 123.689 116.678 123.242 116.516L124.507 112.959L125.95 116.724C125.76 116.789 125.567 116.843 125.371 116.888L125.364 116.895Z" fill="#CE026D"/>
<path d="M142.183 197.346H119.745C119.029 197.345 118.341 197.07 117.823 196.577C117.304 196.084 116.995 195.411 116.959 194.696L114.266 140.705H147.433L144.962 194.682C144.928 195.398 144.62 196.074 144.101 196.569C143.582 197.063 142.893 197.339 142.176 197.339L142.183 197.346Z" fill="#C5D3F9"/>
<path d="M116.967 194.697C117.002 195.412 117.311 196.086 117.83 196.579C118.349 197.073 119.037 197.347 119.753 197.347H142.191C142.908 197.347 143.598 197.071 144.116 196.576C144.635 196.082 144.944 195.406 144.977 194.69L145.335 186.91C139.984 188.775 122.604 187.075 122.197 180.96C121.817 175.288 120.353 148.299 119.947 140.713H114.281L116.975 194.704L116.967 194.697Z" fill="#B8CBF4"/>
<path d="M130.437 140.705L129.622 194.682C129.588 195.398 129.28 196.074 128.761 196.569C128.242 197.063 127.553 197.339 126.836 197.339H138.337C139.054 197.339 139.743 197.063 140.262 196.569C140.781 196.074 141.089 195.398 141.123 194.682L143.595 140.705H130.429H130.437Z" fill="#D7E3FF"/>
<path d="M142.736 189.916H119.198C118.105 189.916 117.148 189.316 116.648 188.416L116.962 194.688C116.998 195.403 117.307 196.077 117.825 196.57C118.344 197.064 119.033 197.339 119.748 197.338H142.186C142.903 197.338 143.593 197.062 144.112 196.568C144.63 196.073 144.939 195.397 144.972 194.681L145.258 188.495C144.999 188.929 144.632 189.289 144.193 189.539C143.753 189.79 143.256 189.922 142.75 189.923L142.736 189.916Z" fill="#ABBBF4"/>
<path d="M141.131 194.681L141.352 189.916H129.702L129.63 194.681C129.596 195.397 129.288 196.073 128.769 196.568C128.25 197.062 127.561 197.338 126.844 197.338H138.345C139.062 197.338 139.751 197.062 140.27 196.568C140.789 196.073 141.097 195.397 141.131 194.681Z" fill="#BBCCF9"/>
<path d="M146.963 150.939C141.913 156.161 138.648 164.462 138.648 173.813C138.648 181.871 141.076 189.15 144.977 194.351L146.963 150.939Z" fill="#D1D4E5"/>
<path d="M102.394 25.9548L105.184 26.8748L102.394 27.8018L101.474 30.5838L100.556 27.8018L97.7656 26.8748L100.556 25.9548L101.475 23.1738L102.394 25.9548Z" fill="#F7DAC4"/>
<path d="M88.3532 193.067C87.2771 193.463 86.088 193.416 85.0464 192.937C84.0049 192.458 83.1957 191.585 82.7962 190.51L79.3792 181.271C78.9837 180.195 79.0306 179.007 79.5096 177.965C79.9887 176.924 80.8608 176.114 81.9352 175.714C83.0112 175.319 84.2 175.366 85.2415 175.845C86.283 176.324 87.0923 177.196 87.4922 178.27L90.9102 187.51C91.3057 188.587 91.2586 189.776 90.7794 190.817C90.3001 191.859 89.4277 192.668 88.3532 193.067ZM30.9492 189.268C31.9637 189.802 33.1484 189.912 34.2438 189.574C35.3393 189.237 36.2563 188.479 36.7942 187.466L41.3992 178.757C41.9329 177.743 42.043 176.558 41.7053 175.462C41.3676 174.367 40.6096 173.45 39.5972 172.911C38.5827 172.378 37.398 172.268 36.3026 172.605C35.2071 172.943 34.2901 173.701 33.7522 174.713L29.1472 183.422C28.6132 184.437 28.503 185.622 28.8407 186.718C29.1785 187.813 29.9366 188.731 30.9492 189.268ZM82.8432 116.761C83.3671 117.127 84.0141 117.271 84.6437 117.162C85.2732 117.053 85.8343 116.701 86.2052 116.18L103.447 91.7185C103.813 91.1944 103.956 90.5473 103.848 89.9178C103.739 89.2883 103.386 88.7272 102.865 88.3565C102.342 87.9893 101.694 87.8443 101.065 87.9534C100.435 88.0625 99.8736 88.4167 99.5042 88.9385L82.2602 113.4C81.893 113.924 81.7481 114.571 81.8572 115.201C81.9662 115.831 82.3214 116.392 82.8432 116.761Z" fill="#1D4482"/>
<path d="M75.25 97.7567C75.7 96.7587 76.247 95.7857 76.907 94.8557C82.345 87.1937 92.97 85.3957 100.623 90.8327C108.285 96.2707 110.084 106.895 104.646 114.548C103.986 115.478 103.252 116.314 102.452 117.065L75.251 97.7477L75.25 97.7567Z" fill="#FEC23B"/>
<path d="M96.4366 89.3216C95.6161 88.7459 94.7164 88.2922 93.7656 87.9746C96.2374 88.4095 98.5826 89.3851 100.634 90.8316C108.296 96.2696 110.094 106.895 104.657 114.548C103.997 115.478 103.263 116.314 102.463 117.065L95.5256 112.14C96.2574 111.392 96.9288 110.588 97.5336 109.735C102.656 102.525 102.162 93.3806 96.4366 89.3126V89.3216Z" fill="#E77D44"/>
<path d="M45.2597 114.272C44.692 114.565 44.0316 114.622 43.4219 114.431C42.8123 114.24 42.3026 113.817 42.0037 113.252L28.1337 86.7319C27.8405 86.1642 27.7832 85.5038 27.9742 84.8941C28.1652 84.2845 28.589 83.7748 29.1537 83.4759C29.7208 83.1809 30.3818 83.1226 30.9918 83.3137C31.6019 83.5049 32.1113 83.93 32.4087 84.4959L46.2787 111.016C46.5737 111.583 46.632 112.244 46.4408 112.854C46.2497 113.464 45.8246 113.974 45.2587 114.271L45.2597 114.272Z" fill="#1D4482"/>
<path d="M67.0772 84.6957L65.5642 84.5957L64.2812 103.995L65.7933 104.095L67.0772 84.6957Z" fill="#7285B2"/>
<path d="M71.8907 80.534L61.3247 79.834L60.9297 85.811L71.4957 86.511L71.8907 80.534Z" fill="#7285B2"/>
<path d="M103.533 163.206C113.52 140.439 103.16 113.887 80.3928 103.901C57.6268 93.9138 31.0748 104.274 21.0878 127.041C11.1018 149.807 21.4618 176.359 44.2278 186.346C66.9948 196.332 93.5468 185.972 103.533 163.206Z" fill="#FEC23B"/>
<path d="M100.343 152.201C104.228 131.207 90.3593 111.038 69.3653 107.153C48.3703 103.267 28.2023 117.137 24.3163 138.131C20.4313 159.125 34.3003 179.294 55.2943 183.179C76.2893 187.064 96.4573 173.195 100.343 152.201Z" fill="#E77D44"/>
<path d="M96.2252 157.322C102.964 138.589 93.2412 117.941 74.5083 111.202C55.7753 104.463 35.1262 114.186 28.3882 132.919C21.6482 151.652 31.3722 172.301 50.1052 179.04C68.8382 185.779 89.4872 176.055 96.2252 157.322Z" fill="#FCF7EB"/>
<path d="M64.4091 113.517C55.8791 112.953 47.9271 115.821 41.8711 120.932C46.4437 118.982 51.412 118.139 56.3721 118.47C73.8401 119.626 87.0631 134.722 85.9071 152.19C85.3171 161.13 81.0651 168.951 74.7251 174.311C85.3611 169.771 93.1281 159.574 93.9441 147.246C95.1001 129.778 81.8771 114.682 64.4081 113.526L64.4091 113.517Z" fill="white"/>
<path d="M47.9346 127.887C47.5476 128.201 49.7606 136.611 52.8626 137.924C55.9656 139.237 61.2096 146.382 61.2096 146.382L62.2396 145.548L63.2676 144.713C63.2676 144.713 57.3716 138.106 56.7236 134.793C56.0846 131.491 48.3136 127.573 47.9256 127.887H47.9346Z" fill="#1D4482"/>
<path d="M88.9024 152.218C89.0324 151.736 77.7984 145.347 74.5144 146.103C71.2304 146.86 62.7974 144.158 62.7974 144.158L62.4534 145.439L62.1094 146.721C62.1094 146.721 70.7664 148.607 73.2224 150.904C75.6884 153.202 88.7724 152.692 88.9034 152.209V152.219L88.9024 152.218Z" fill="#1D4482"/>
<path d="M36.9541 163.661C36.8754 163.658 36.7995 163.63 36.7374 163.582C36.6752 163.534 36.63 163.467 36.6083 163.391C36.5865 163.315 36.5893 163.234 36.6162 163.16C36.6431 163.086 36.6928 163.023 36.7581 162.979L62.1101 144.619C62.1504 144.589 62.1963 144.567 62.245 144.555C62.2938 144.544 62.3444 144.542 62.3939 144.55C62.4433 144.558 62.4906 144.576 62.533 144.603C62.5753 144.63 62.6117 144.665 62.6401 144.707C62.6699 144.747 62.6913 144.793 62.7031 144.842C62.7148 144.89 62.7166 144.941 62.7084 144.99C62.7002 145.04 62.6821 145.087 62.6553 145.129C62.6284 145.172 62.5934 145.208 62.5521 145.237L37.2001 163.597C37.1304 163.651 37.0424 163.677 36.9541 163.67V163.661Z" fill="#E77D44"/>
<path d="M64.7965 145.3C64.7349 145.944 64.4246 146.539 63.9314 146.958C63.4383 147.378 62.8011 147.588 62.1552 147.546C61.5093 147.503 60.9055 147.21 60.472 146.729C60.0385 146.248 59.8095 145.618 59.8335 144.971C59.8951 144.326 60.2054 143.731 60.6985 143.312C61.1917 142.893 61.8289 142.682 62.4748 142.725C63.1207 142.768 63.7245 143.061 64.1579 143.541C64.5914 144.022 64.8205 144.653 64.7965 145.3ZM66.1075 115.106C66.0902 115.363 66.0223 115.615 65.9076 115.846C65.7929 116.078 65.6337 116.284 65.4391 116.454C65.2445 116.624 65.0183 116.753 64.7735 116.835C64.5287 116.918 64.2701 116.951 64.0125 116.933C63.4926 116.899 63.0075 116.66 62.6633 116.269C62.3192 115.877 62.1441 115.366 62.1765 114.846C62.2124 114.325 62.4529 113.84 62.8454 113.496C63.2379 113.152 63.7506 112.977 64.2715 113.01C64.5297 113.027 64.782 113.095 65.014 113.209C65.246 113.324 65.4532 113.483 65.6237 113.677C65.7942 113.872 65.9246 114.098 66.0077 114.343C66.0907 114.589 66.1246 114.848 66.1075 115.106ZM62.0795 175.989C62.0621 176.246 61.9941 176.498 61.8793 176.729C61.7646 176.961 61.6054 177.167 61.4108 177.337C61.2162 177.506 60.9901 177.636 60.7453 177.718C60.5006 177.8 60.2421 177.834 59.9845 177.816C59.4647 177.781 58.9797 177.542 58.6356 177.151C58.2916 176.76 58.1164 176.249 58.1485 175.729C58.1847 175.208 58.4254 174.723 58.8181 174.379C59.2107 174.035 59.7235 173.86 60.2445 173.893C60.7657 173.928 61.2516 174.168 61.5957 174.561C61.9398 174.954 62.1138 175.468 62.0795 175.989ZM50.4265 117.185C50.9065 118.155 50.5065 119.335 49.5285 119.815C49.297 119.929 49.0451 119.997 48.7874 120.013C48.5297 120.03 48.2712 119.996 48.0268 119.912C47.7824 119.829 47.5569 119.698 47.3633 119.527C47.1696 119.356 47.0117 119.149 46.8985 118.917C46.7841 118.685 46.7165 118.433 46.6998 118.176C46.683 117.918 46.7173 117.659 46.8008 117.415C46.8842 117.171 47.0152 116.945 47.186 116.752C47.3569 116.558 47.5644 116.4 47.7965 116.287C48.028 116.172 48.2799 116.105 48.5376 116.088C48.7953 116.071 49.0538 116.106 49.2982 116.189C49.5426 116.272 49.768 116.403 49.9617 116.574C50.1553 116.745 50.3133 116.953 50.4265 117.185ZM77.3755 171.927C77.8555 172.897 77.4555 174.076 76.4775 174.557C76.246 174.671 75.9941 174.739 75.7364 174.755C75.4787 174.772 75.2202 174.738 74.9758 174.654C74.7314 174.571 74.5059 174.44 74.3123 174.269C74.1186 174.098 73.9607 173.891 73.8475 173.659C73.7332 173.427 73.6658 173.175 73.6491 172.918C73.6325 172.66 73.6668 172.402 73.7503 172.158C73.8337 171.913 73.9646 171.688 74.1354 171.494C74.3061 171.301 74.5135 171.143 74.7455 171.03C74.977 170.915 75.2287 170.848 75.4864 170.831C75.7441 170.814 76.0025 170.848 76.2469 170.932C76.4913 171.015 76.7168 171.146 76.9105 171.317C77.1042 171.487 77.2622 171.695 77.3755 171.927ZM37.8685 126.821C38.3012 127.111 38.6013 127.56 38.703 128.071C38.8048 128.582 38.7 129.112 38.4115 129.546C38.1216 129.978 37.6722 130.278 37.1616 130.38C36.6511 130.482 36.121 130.377 35.6875 130.089C35.2547 129.799 34.9544 129.349 34.8524 128.839C34.7504 128.328 34.8551 127.797 35.1435 127.364C35.4334 126.931 35.883 126.631 36.3938 126.529C36.9046 126.427 37.4349 126.532 37.8685 126.821ZM88.5795 160.747C89.0122 161.037 89.3123 161.486 89.414 161.997C89.5158 162.508 89.411 163.038 89.1225 163.472C88.8326 163.904 88.3832 164.204 87.8726 164.306C87.3621 164.408 86.832 164.303 86.3985 164.015C85.9657 163.725 85.6654 163.275 85.5634 162.765C85.4614 162.254 85.5661 161.723 85.8545 161.29C86.1444 160.857 86.594 160.557 87.1048 160.455C87.6156 160.353 88.1459 160.458 88.5795 160.747ZM31.8185 141.44C32.0767 141.457 32.329 141.524 32.561 141.639C32.793 141.754 33.0002 141.913 33.1707 142.107C33.3412 142.302 33.4716 142.528 33.5547 142.773C33.6377 143.019 33.6716 143.278 33.6545 143.536C33.6371 143.793 33.5691 144.045 33.4543 144.276C33.3396 144.507 33.1803 144.714 32.9857 144.883C32.7911 145.053 32.565 145.182 32.3203 145.265C32.0755 145.347 31.817 145.38 31.5595 145.362C31.0396 145.328 30.5544 145.089 30.2101 144.698C29.8657 144.307 29.6904 143.796 29.7225 143.276C29.7584 142.755 29.9991 142.269 30.3918 141.925C30.7845 141.581 31.2974 141.407 31.8185 141.44ZM92.6975 145.467C92.9557 145.484 93.208 145.552 93.44 145.666C93.672 145.781 93.8792 145.94 94.0497 146.134C94.2202 146.329 94.3506 146.555 94.4337 146.8C94.5167 147.046 94.5506 147.305 94.5335 147.563C94.5162 147.82 94.4483 148.072 94.3336 148.303C94.2189 148.535 94.0597 148.741 93.8651 148.911C93.6705 149.081 93.4443 149.21 93.1995 149.292C92.9547 149.375 92.6961 149.408 92.4385 149.39C91.9184 149.356 91.433 149.117 91.0887 148.726C90.7443 148.335 90.5691 147.823 90.6015 147.303C90.6374 146.782 90.8781 146.296 91.2708 145.952C91.6635 145.608 92.1764 145.434 92.6975 145.467ZM33.8945 157.131C34.126 157.016 34.3779 156.949 34.6356 156.932C34.8933 156.915 35.1518 156.95 35.3962 157.033C35.6406 157.116 35.866 157.247 36.0597 157.418C36.2533 157.589 36.4113 157.797 36.5245 158.029C37.0045 158.999 36.6045 160.179 35.6265 160.659C35.395 160.773 35.1431 160.841 34.8854 160.857C34.6277 160.874 34.3692 160.84 34.1248 160.756C33.8804 160.673 33.6549 160.542 33.4613 160.371C33.2676 160.2 33.1097 159.993 32.9965 159.761C32.8821 159.529 32.8145 159.277 32.7978 159.02C32.781 158.762 32.8153 158.503 32.8988 158.259C32.9822 158.015 33.1132 157.789 33.284 157.596C33.4549 157.402 33.6624 157.244 33.8945 157.131ZM88.6365 130.182C88.868 130.067 89.1197 130 89.3774 129.983C89.6351 129.966 89.8935 130 90.1379 130.084C90.3823 130.167 90.6078 130.298 90.8015 130.469C90.9952 130.639 91.1532 130.847 91.2665 131.079C91.7465 132.059 91.3465 133.229 90.3685 133.709C89.3895 134.189 88.2185 133.79 87.7385 132.811C87.624 132.579 87.5563 132.328 87.5395 132.07C87.5227 131.812 87.557 131.554 87.6405 131.309C87.7239 131.065 87.8549 130.84 88.0258 130.646C88.1968 130.453 88.4043 130.295 88.6365 130.182ZM43.5385 169.685C43.8282 169.252 44.2778 168.952 44.7886 168.85C45.2994 168.748 45.8297 168.852 46.2635 169.141C46.6962 169.431 46.9963 169.88 47.098 170.391C47.1998 170.902 47.095 171.432 46.8065 171.866C46.5165 172.298 46.067 172.598 45.5563 172.7C45.0456 172.802 44.5153 172.698 44.0815 172.41C43.6488 172.12 43.3487 171.67 43.2469 171.159C43.1452 170.649 43.25 170.118 43.5385 169.685ZM77.4675 118.978C77.7573 118.545 78.2068 118.245 78.7176 118.143C79.2284 118.041 79.7587 118.145 80.1925 118.434C80.6253 118.724 80.9256 119.173 81.0276 119.684C81.1296 120.195 81.0249 120.725 80.7365 121.159C80.4467 121.592 79.9972 121.892 79.4864 121.994C78.9756 122.096 78.4452 121.991 78.0115 121.703C77.5787 121.413 77.2784 120.963 77.1764 120.453C77.0744 119.942 77.1791 119.411 77.4675 118.978Z" fill="#1D4482"/>
<path d="M55.2911 96.4334C54.9721 95.3638 54.5501 94.3276 54.0311 93.3394C49.6511 85.0274 39.3551 81.8454 31.0521 86.2274C22.7411 90.6074 19.5581 100.903 23.9401 109.206C24.4602 110.194 25.078 111.126 25.7841 111.99L55.2911 96.4244V96.4334Z" fill="#FEC23B"/>
<path d="M35.4117 85.2818C36.3012 84.8193 37.2531 84.4882 38.2377 84.2988C35.8007 84.4058 33.3567 85.0208 31.0527 86.2268C22.7407 90.6068 19.5587 100.903 23.9397 109.206C24.4597 110.193 25.0775 111.126 25.7837 111.99L33.3087 108.021C32.6817 107.184 32.122 106.298 31.6347 105.373C27.5077 97.5518 29.2017 88.5518 35.4127 85.2728V85.2828L35.4117 85.2818Z" fill="#E77D44"/>
<path d="M96.9915 79.714C92.4155 71.62 86.6115 67.289 67.5495 66.028C48.4895 64.767 42.1625 68.305 36.5625 75.716C31.7555 82.08 21.2545 85.521 21.1445 85.558L22.0335 88.333C22.4985 88.185 33.5105 84.581 38.8845 77.477C43.9655 70.757 49.5145 67.756 67.3565 68.936C85.1985 70.116 90.3055 73.813 94.4565 81.154C98.8375 88.912 109.289 93.927 109.731 94.134L110.977 91.502C110.873 91.45 100.934 86.674 96.9985 79.714H96.9895H96.9915Z" fill="#7285B2"/>
</svg>
