<svg width="121" height="176" viewBox="0 0 121 176" fill="none" xmlns="http://www.w3.org/2000/svg">
<path d="M116.629 53.7574L43.1542 29.0154C42.0753 28.6522 40.8963 28.7324 39.8765 29.2383C38.8567 29.7443 38.0796 30.6346 37.7162 31.7134L2.35718 136.725C1.99397 137.804 2.07416 138.983 2.58012 140.003C3.08607 141.023 3.97636 141.8 5.05518 142.163L78.5292 166.904C79.0634 167.084 79.6278 167.157 80.1903 167.119C80.7527 167.081 81.3021 166.932 81.807 166.682C82.312 166.431 82.7627 166.084 83.1333 165.659C83.504 165.234 83.7873 164.741 83.9672 164.206L119.327 59.1944C119.507 58.6602 119.58 58.0957 119.542 57.5333C119.504 56.9709 119.355 56.4215 119.105 55.9165C118.854 55.4115 118.507 54.9609 118.082 54.5902C117.657 54.2196 117.163 53.9362 116.629 53.7564V53.7574Z" fill="#2659AA"/>
<path d="M110.962 62.1056L42.6392 39.0996L10.7422 133.824L79.0662 156.831L110.962 62.1056Z" fill="white"/>
<path d="M84.7679 59.772L64.8879 53.073C63.6159 52.6417 62.5663 51.7245 61.9685 50.5216C61.3708 49.3188 61.2735 47.9283 61.6979 46.654L64.7839 37.502L94.2719 47.43L91.1859 56.582C90.7547 57.8538 89.8376 58.9032 88.635 59.5009C87.4324 60.0987 86.0421 60.1961 84.7679 59.772ZM66.0079 39.964L63.5449 47.278C63.414 47.6669 63.361 48.0777 63.389 48.4871C63.417 48.8965 63.5253 49.2964 63.7079 49.6639C63.8905 50.0314 64.1437 50.3593 64.4531 50.6288C64.7625 50.8984 65.1219 51.1044 65.511 51.235L85.3909 57.933C85.7798 58.0639 86.1907 58.1169 86.6001 58.0889C87.0095 58.0609 87.4094 57.9526 87.7769 57.77C88.1444 57.5874 88.4723 57.3342 88.7418 57.0248C89.0114 56.7154 89.2174 56.356 89.3479 55.967L91.8099 48.653L66.0069 39.963L66.0079 39.964Z" fill="#F2A72E"/>
<path d="M99.3148 44.2548L62.6948 31.9238L59.8438 40.3938L96.4638 52.7238L99.3158 44.2538L99.3148 44.2548Z" fill="#F2A72E"/>
<path d="M43.8781 56.0664L43.7231 56.5284L99.5311 75.3214L99.6871 74.8594L43.8781 56.0664ZM41.9991 61.6324L41.8441 62.0954L97.6521 80.8874L97.8081 80.4254L41.9991 61.6324ZM40.1331 67.2074L39.9771 67.6694L95.7851 86.4614L95.9411 85.9994L40.1331 67.2074ZM38.2491 72.7894L38.0941 73.2514L93.9021 92.0434L94.0581 91.5814L38.2491 72.7894ZM36.3741 78.3634L36.2191 78.8254L92.0271 97.6194L92.1831 97.1564L36.3741 78.3644V78.3634ZM34.4961 83.9264L34.3401 84.3884L90.1491 103.179L90.3041 102.717L34.4961 83.9264ZM32.6211 89.4994L32.4651 89.9624L88.2741 108.754L88.4291 108.292L32.6211 89.4994ZM30.7381 95.0744L30.5821 95.5364L86.3911 114.329L86.5461 113.866L30.7381 95.0744ZM28.8671 100.652L28.7111 101.114L84.5201 119.907L84.6751 119.445L28.8671 100.652ZM26.9881 106.218L26.8321 106.681L82.6411 125.473L82.7961 125.011L26.9881 106.218ZM25.1211 111.793L24.9651 112.255L80.7741 131.047L80.9291 130.585L25.1211 111.793ZM23.2421 117.367L23.0861 117.829L78.8951 136.622L79.0501 136.159L23.2421 117.367ZM21.3631 122.937L21.2071 123.399L77.0161 142.192L77.1711 141.73L21.3631 122.937ZM19.4831 128.504L19.3281 128.966L75.1371 147.758L75.2931 147.296L19.4831 128.504Z" fill="#C5D3F9"/>
<path d="M40.8538 82.14C40.8538 82.14 38.7828 79.51 38.1968 76.11C37.6108 72.703 41.2468 68.56 41.1898 65.938C41.1328 63.308 40.6678 62.373 40.6678 62.373C41.1478 62.909 41.6108 63.423 42.0538 63.93C44.6838 66.91 46.6688 69.424 47.8538 72.76C49.2408 76.653 46.9758 81.568 46.9758 81.568C46.9758 81.568 45.3398 82.8111 44.7328 82.7961C44.1258 82.7821 40.8538 82.146 40.8538 82.146V82.14Z" fill="#AD4D0C"/>
<path d="M42.2109 64.6074C42.2109 64.6074 45.0539 68.0434 46.3039 72.2444C47.5539 76.4444 46.4969 79.0524 44.3969 79.1524C42.2969 79.2524 43.0749 75.4664 43.0249 73.2084C42.9749 70.9584 42.6899 65.6504 42.2179 64.6084L42.2109 64.6074Z" fill="#BF5A16"/>
<path d="M48.8781 96.3154C49.9071 107.209 52.8501 155.421 50.9001 155.6C48.9501 155.786 42.8421 107.874 41.8201 96.9804C40.7911 86.0864 42.1631 83.6714 44.1131 83.4854C46.0631 83.3004 47.8561 85.4214 48.8851 96.3154H48.8781Z" fill="#8E5026"/>
<path d="M41.6674 87.1786L47.1894 86.6636L46.9824 81.5566L40.8594 82.1346L41.6674 87.1786Z" fill="#BFCCD6"/>
<path d="M47.2798 93.2673C47.5518 96.1533 51.1158 148.887 50.2658 148.966C49.4158 149.044 44.4658 96.4393 44.1938 93.5603C43.9228 90.6743 44.3938 88.2743 45.2438 88.1953C46.0938 88.1173 47.0088 90.3883 47.2798 93.2673Z" fill="#A85F2D"/>
<path d="M62.7053 77.0939C62.7053 77.0939 62.1983 73.5639 62.9553 69.5639C63.7133 65.5639 67.5553 61.8919 68.4063 58.9139C69.2563 55.9339 69.2563 54.7559 69.2563 54.7559C69.3993 55.4919 69.5353 56.1989 69.6633 56.8919C70.4203 60.9709 70.9063 64.3499 70.5783 68.4359C70.1923 73.2079 67.0133 78.1299 67.0133 78.1299C67.0133 78.1299 65.4913 79.0869 65.0913 78.9009C64.6913 78.7149 62.7053 77.1079 62.7053 77.1079V77.0939Z" fill="#6B3917"/>
<path d="M69.5348 57.6973C69.5348 57.6973 70.2848 62.3473 69.7058 67.4273C69.1268 72.5063 67.5338 75.1573 66.0908 74.6923C64.6488 74.2273 66.4488 70.1703 67.1768 67.6203C67.9058 65.0703 69.5068 59.0043 69.5418 57.6973H69.5348Z" fill="#9E480D"/>
<path d="M64.9539 89.4058C62.9609 97.7858 52.9449 134.453 51.4449 134.096C49.9449 133.739 57.5309 96.4918 59.5249 88.1128C61.5179 79.7328 63.1459 78.2828 64.6459 78.6408C66.1459 78.9978 66.9459 81.0338 64.9539 89.4058Z" fill="#8E5026"/>
<path d="M61.8984 80.7804L66.1414 81.7934L67.2774 77.9365L62.5694 76.8145L61.8984 80.7804Z" fill="#BFCCD6"/>
<path d="M64.5371 86.7397C64.0081 88.9547 53.3141 129.159 52.6571 129.001C52.0001 128.844 61.6371 88.3967 62.1651 86.1757C62.6941 83.9537 63.6511 82.2897 64.3081 82.4457C64.9661 82.6037 65.0651 84.5257 64.5371 86.7397Z" fill="#A85F2D"/>
<path d="M60.0499 56.329C60.0779 55.643 61.1349 47.006 60.9419 46.378L52.9999 45.791C52.0999 47.213 51.8569 57.249 51.8849 58.721C51.9419 62.178 52.4069 64.736 52.4069 64.736C52.4069 64.736 55.5499 65.857 56.1429 65.972C56.7359 66.079 58.5429 65.1 58.5429 65.1C58.5429 65.1 59.8499 61.179 60.0499 56.329Z" fill="#BF5A16"/>
<path d="M60.4596 52.384C60.7446 49.756 61.0446 46.741 60.9306 46.377L52.9866 45.791C52.8446 46.02 52.7156 46.484 52.6016 47.098L53.1226 61.85L53.4376 47.934L54.2156 62.121L54.6016 48.055L55.0656 62.335L55.5226 47.784L55.6726 57.878L56.8526 48.57L56.8806 60.292L57.7656 48.662L58.0516 56.949L58.9446 48.834L58.7446 62.264L60.4596 52.377V52.384Z" fill="#AD4D0C"/>
<path d="M58.1631 79.9784C57.5201 90.9004 53.1061 138.998 51.1551 138.884C49.1981 138.769 50.4482 90.4864 51.0842 79.5644C51.7272 68.6414 53.4411 66.4624 55.3991 66.5764C57.3561 66.6914 58.8061 69.0564 58.1631 79.9854V79.9784Z" fill="#A35C2C"/>
<path d="M52.4342 69.856L57.9702 70.177L58.5423 65.105L52.4062 64.748L52.4342 69.856Z" fill="#BFCCD6"/>
<path d="M57.0605 76.7271C56.8895 79.6201 52.4035 132.283 51.5535 132.233C50.7035 132.183 53.8035 79.4341 53.9745 76.5481C54.1465 73.6551 54.9745 71.3551 55.8245 71.4051C56.6745 71.4551 57.2325 73.8411 57.0605 76.7271Z" fill="#BA6A35"/>
<path d="M45.852 143.936L41.109 144.957C40.8637 145.01 40.6103 145.015 40.3633 144.97C40.1163 144.925 39.8805 144.832 39.6695 144.696C39.4585 144.56 39.2764 144.384 39.1335 144.177C38.9907 143.971 38.8899 143.739 38.837 143.493L28.5 96.9031L30.272 84.4941L36.987 95.0741L47.324 141.664C47.4309 142.16 47.3366 142.677 47.0619 143.103C46.7872 143.53 46.3545 143.829 45.859 143.936H45.852Z" fill="#5B69BC"/>
<path d="M30.407 84.7081L30.272 84.4941L28.5 96.9031L38.837 143.493C38.8893 143.739 38.9897 143.972 39.1324 144.179C39.2751 144.385 39.4572 144.562 39.6684 144.698C39.8796 144.834 40.1156 144.927 40.3628 144.971C40.61 145.016 40.8636 145.011 41.109 144.957L41.694 144.829C41.9397 144.777 42.1726 144.676 42.3793 144.534C42.586 144.391 42.7625 144.209 42.8986 143.998C43.0348 143.786 43.1279 143.551 43.1725 143.303C43.2172 143.056 43.2126 142.803 43.159 142.557L30.4 84.7011L30.407 84.7081Z" fill="#4750A0"/>
<path d="M38.0625 139.913L38.8335 143.491C38.8859 143.737 38.9864 143.97 39.1291 144.176C39.2718 144.383 39.4539 144.56 39.6651 144.696C39.8762 144.832 40.1121 144.925 40.3593 144.97C40.6065 145.014 40.8601 145.01 41.1055 144.956L45.8485 143.934C46.0942 143.882 46.3271 143.782 46.5339 143.639C46.7407 143.496 46.9173 143.314 47.0534 143.103C47.1896 142.892 47.2827 142.656 47.3273 142.409C47.3719 142.162 47.3672 141.908 47.3135 141.663L46.5335 138.041L38.0625 139.913Z" fill="#FF5545"/>
<path d="M30.272 84.4933L28.5 96.9023L28.536 97.0523C29.522 97.6233 31.472 98.3313 32.965 96.1953C35.294 97.1303 36.465 95.8233 36.944 95.0093L30.272 84.4863V84.4933Z" fill="#FFA95C"/>
<path d="M30.3171 89.688C30.6391 89.638 30.9541 89.567 31.2671 89.481C31.8321 89.238 32.3681 88.938 32.8901 88.617L30.2751 84.502L29.5391 89.652C29.7961 89.674 30.0611 89.695 30.3181 89.695L30.3171 89.688Z" fill="#4750A0"/>
<path d="M51.6234 143.936L56.3674 144.957C56.6127 145.01 56.8661 145.015 57.1131 144.97C57.3601 144.925 57.5958 144.832 57.8068 144.696C58.0179 144.56 58.2 144.384 58.3428 144.177C58.4857 143.971 58.5865 143.739 58.6394 143.493L68.9764 96.9031L67.2044 84.4941L60.4894 95.0741L50.1524 141.664C50.0455 142.16 50.1398 142.677 50.4145 143.103C50.6892 143.53 51.1219 143.829 51.6174 143.936H51.6234Z" fill="#FFCD2E"/>
<path d="M67.0762 84.7081L67.2122 84.4941L68.9832 96.9031L58.6462 143.493C58.5939 143.739 58.4936 143.972 58.351 144.178C58.2083 144.385 58.0263 144.561 57.8152 144.697C57.6041 144.833 57.3683 144.926 57.1211 144.971C56.874 145.016 56.6205 145.011 56.3752 144.957L55.7892 144.829C55.5437 144.777 55.3109 144.676 55.1043 144.533C54.8976 144.391 54.7213 144.208 54.5852 143.997C54.4492 143.786 54.3562 143.55 54.3116 143.303C54.267 143.056 54.2716 142.802 54.3252 142.557L67.0832 84.7011L67.0762 84.7081Z" fill="#F9B800"/>
<path d="M59.4123 139.913L58.6413 143.491C58.5889 143.737 58.4884 143.97 58.3457 144.176C58.203 144.383 58.0209 144.56 57.8097 144.696C57.5986 144.832 57.3627 144.925 57.1155 144.97C56.8683 145.014 56.6147 145.01 56.3693 144.956L51.6263 143.934C51.3806 143.882 51.1477 143.782 50.9409 143.639C50.7341 143.496 50.5575 143.314 50.4214 143.103C50.2852 142.892 50.1921 142.656 50.1475 142.409C50.1029 142.162 50.1076 141.908 50.1613 141.663L50.9413 138.041L59.4123 139.913Z" fill="#FF5545"/>
<path d="M67.2111 84.4933L68.9831 96.9023L68.9471 97.0523C67.9611 97.6233 66.0111 98.3313 64.5181 96.1953C62.1891 97.1303 61.0181 95.8233 60.5391 95.0093L67.2111 84.4863V84.4933Z" fill="#FFA95C"/>
<path d="M67.1657 89.684C66.8454 89.6329 66.5283 89.5638 66.2158 89.4771C65.6508 89.2341 65.1158 88.934 64.5938 88.613L67.2077 84.498L67.9437 89.648C67.6851 89.673 67.4256 89.6874 67.1657 89.691V89.684Z" fill="#594B40"/>
<path d="M45.8122 148.695L50.6272 149.295C51.6772 149.424 52.6272 148.681 52.7622 147.631L58.9422 100.311L56.0842 88.1113L50.3262 99.2473L44.1472 146.566C44.0192 147.616 44.7622 148.566 45.8122 148.702V148.695Z" fill="#35B6AA"/>
<path d="M55.982 88.3333L56.096 88.1113L58.954 100.312L52.774 147.632C52.7431 147.882 52.6634 148.123 52.5393 148.341C52.4153 148.56 52.2494 148.752 52.0512 148.907C51.8529 149.061 51.6262 149.175 51.3839 149.242C51.1416 149.309 50.8885 149.327 50.639 149.296L50.039 149.225C49.7894 149.195 49.5483 149.115 49.3295 148.991C49.1107 148.867 48.9184 148.701 48.7638 148.502C48.6092 148.304 48.4952 148.077 48.4283 147.835C48.3614 147.592 48.343 147.339 48.374 147.089L55.974 88.3333H55.982Z" fill="#20A898"/>
<path d="M53.2202 144.002L52.7702 147.631C52.7392 147.88 52.6595 148.121 52.5354 148.34C52.4113 148.559 52.2454 148.751 52.047 148.906C51.8487 149.06 51.6218 149.174 51.3794 149.241C51.137 149.308 50.8837 149.327 50.6342 149.296L45.8202 148.696C45.5706 148.665 45.3295 148.585 45.1108 148.461C44.892 148.337 44.6999 148.171 44.5453 147.973C44.3907 147.774 44.2766 147.548 44.2097 147.305C44.1428 147.063 44.1242 146.809 44.1552 146.56L44.6122 142.881L53.2202 144.002Z" fill="#FF5545"/>
<path d="M56.0894 88.1113L58.9464 100.312L58.9254 100.47C57.9894 101.127 56.1104 101.998 54.4314 100.005C52.1954 101.141 50.9104 99.9413 50.3594 99.1773L56.0814 88.1113H56.0894Z" fill="#FFA95C"/>
<path d="M56.5086 93.2835C56.1848 93.2616 55.8627 93.2185 55.5446 93.1545C54.9628 92.9569 54.3969 92.7156 53.8516 92.4325L56.0946 88.1035L57.2806 93.1685C57.0226 93.2115 56.7656 93.2545 56.5086 93.2755V93.2835Z" fill="#20A898"/>
<path d="M40.95 138.528L44.708 138.485C45.101 138.48 45.4759 138.319 45.7504 138.038C46.0249 137.757 46.1765 137.378 46.172 136.985L45.965 100.025L42.5 90.959L39.25 100.103L39.457 137.064C39.462 137.457 39.6228 137.832 39.9041 138.106C40.1853 138.381 40.564 138.533 40.957 138.528H40.95Z" fill="#CE026D"/>
<path d="M42.4375 91.145L42.5025 90.959L45.9675 100.024L46.1745 136.985C46.1777 137.378 46.0255 137.756 45.7511 138.037C45.4766 138.318 45.1022 138.479 44.7095 138.485H44.2455C43.8536 138.49 43.4758 138.339 43.1947 138.066C42.9136 137.793 42.7521 137.42 42.7455 137.028L42.4375 91.145Z" fill="#E5398B"/>
<path d="M46.1439 134.154L46.1799 136.99C46.1834 137.383 46.0312 137.761 45.7567 138.042C45.4822 138.323 45.1077 138.484 44.7149 138.49L40.9579 138.533C40.5653 138.537 40.1873 138.384 39.9064 138.11C39.6254 137.836 39.4642 137.462 39.4579 137.069L39.4219 134.197L46.1439 134.154Z" fill="#FF5545"/>
<path d="M42.5016 90.9668L45.9656 100.032V100.153C45.3236 100.753 43.9726 101.618 42.4726 100.268C40.8726 101.375 39.7656 100.589 39.2656 100.061L42.5016 90.9668Z" fill="#FFA95C"/>
<path d="M43.3642 94.895C43.1142 94.917 42.8642 94.917 42.6142 94.895C42.1476 94.8048 41.6889 94.6781 41.2422 94.516L42.5072 90.959L43.9502 94.724C43.7601 94.7885 43.5669 94.8433 43.3712 94.888L43.3642 94.895Z" fill="#CE026D"/>
<path d="M60.1826 175.346H37.7446C37.0291 175.345 36.3412 175.07 35.8228 174.577C35.3043 174.084 34.995 173.411 34.9586 172.696L32.2656 118.705H65.4326L62.9616 172.682C62.9279 173.398 62.6197 174.074 62.1009 174.569C61.582 175.063 60.8926 175.339 60.1756 175.339L60.1826 175.346Z" fill="#C5D3F9"/>
<path d="M34.9672 172.697C35.0024 173.412 35.3114 174.086 35.8301 174.579C36.3488 175.073 37.0374 175.347 37.7533 175.347H60.1913C60.9082 175.347 61.5977 175.071 62.1165 174.576C62.6353 174.082 62.9436 173.406 62.9773 172.69L63.3352 164.91C57.9842 166.775 40.6043 165.075 40.1973 158.96C39.8173 153.288 38.3533 126.299 37.9473 118.713H32.2812L34.9753 172.704L34.9672 172.697Z" fill="#B8CBF4"/>
<path d="M48.4369 118.705L47.6219 172.682C47.5883 173.398 47.28 174.074 46.7612 174.569C46.2423 175.063 45.5529 175.339 44.8359 175.339H56.3369C57.0539 175.339 57.7433 175.063 58.2622 174.569C58.781 174.074 59.0892 173.398 59.1229 172.682L61.5949 118.705H48.4289H48.4369Z" fill="#D7E3FF"/>
<path d="M60.7364 167.916H37.1984C36.1054 167.916 35.1484 167.316 34.6484 166.416L34.9624 172.688C34.9976 173.403 35.3066 174.077 35.8253 174.57C36.3439 175.064 37.0326 175.339 37.7484 175.338H60.1864C60.9034 175.338 61.5929 175.062 62.1117 174.568C62.6305 174.073 62.9387 173.397 62.9724 172.681L63.2584 166.495C62.9993 166.929 62.6321 167.289 62.1926 167.539C61.7531 167.79 61.2562 167.922 60.7504 167.923L60.7364 167.916Z" fill="#ABBBF4"/>
<path d="M59.1307 172.681L59.3517 167.916H47.7017L47.6297 172.681C47.5961 173.397 47.2878 174.073 46.769 174.568C46.2502 175.062 45.5607 175.338 44.8438 175.338H56.3447C57.0617 175.338 57.7512 175.062 58.27 174.568C58.7888 174.073 59.0971 173.397 59.1307 172.681Z" fill="#BBCCF9"/>
<path d="M64.9634 128.939C59.9134 134.161 56.6484 142.462 56.6484 151.813C56.6484 159.871 59.0764 167.15 62.9774 172.351L64.9634 128.939Z" fill="#D1D4E5"/>
<path d="M20.3936 3.95483L23.1836 4.87483L20.3936 5.80183L19.4736 8.58383L18.5556 5.80183L15.7656 4.87483L18.5556 3.95483L19.4746 1.17383L20.3936 3.95483Z" fill="#F7DAC4"/>
</svg>
