<svg width="98" height="164" viewBox="0 0 98 164" fill="none" xmlns="http://www.w3.org/2000/svg">
<path d="M58.8498 134.545C58.8498 134.545 65.9528 127.905 62.3868 121.596C58.8208 115.287 58.2018 113.198 58.6308 105.559C59.0608 97.9202 54.5588 93.7292 46.3218 90.7812C38.0778 87.8342 39.1688 88.6432 33.3798 82.0032C27.5838 75.3562 18.8268 74.9762 15.8728 78.4022C12.9188 81.8272 18.5808 86.7022 20.4588 93.7142C22.3368 100.72 20.2478 106.586 24.9958 111.13C29.7438 115.674 37.4458 116.799 37.7478 123.087C38.0498 129.375 53.6648 138.076 53.1028 141.924C57.5618 139.75 58.8558 134.552 58.8558 134.552L58.8498 134.545Z" fill="#4C7666"/>
<path d="M17.2218 86.3584C17.6438 87.1384 18.0868 87.9614 18.5238 88.8194C21.1888 89.6924 26.4788 91.5624 29.4958 93.4974C30.2378 94.842 30.8821 96.2383 31.4237 97.6754C31.8738 98.8854 32.4578 100.031 33.1187 101.142C30.1497 98.7584 25.2548 95.8884 20.7108 94.7704C20.9148 95.7054 21.0557 96.6274 21.1607 97.5204C24.7477 98.5614 30.7268 100.474 34.0048 102.535C35.5378 104.772 37.4018 106.833 39.3298 108.837C34.8198 106.699 27.5478 104.336 21.7518 104.279C21.8718 105.145 22.0408 105.982 22.2938 106.784C25.5638 107.107 35.0948 108.176 40.4898 110.033C42.5368 112.115 44.5977 114.162 46.3417 116.286C47.3267 117.489 48.2417 119.015 49.0567 120.731C45.6037 118.544 37.1628 115.273 30.2488 114.809C31.9928 115.822 33.6948 116.771 35.0318 117.925C39.8638 118.579 46.0538 119.662 49.2678 121.182C50.5898 124.08 51.6458 127.491 52.3698 130.888C50.3097 128.314 43.5078 123.615 37.7118 122.877C37.7118 122.947 37.7257 123.017 37.7317 123.088C37.7677 123.883 38.0557 124.713 38.5138 125.564C41.9948 126.492 49.7887 128.785 52.4538 131.289C53.2277 135.059 53.5797 138.78 53.4177 141.748C53.5097 141.699 53.6008 141.65 53.6848 141.594C54.4094 138.311 54.7587 134.955 54.7258 131.592C56.2458 128.891 60.1358 125.31 62.9628 122.912C62.8075 122.454 62.61 122.012 62.3727 121.59C62.1747 121.245 61.9927 120.921 61.8158 120.598C58.5247 123.587 55.8158 127.871 54.6978 130.67C54.6138 128.483 54.3397 126.169 53.7627 123.847C54.7048 121.287 57.1667 117.826 59.2907 115.126C58.9663 114.091 58.7452 113.026 58.6308 111.946C55.9988 115.414 54.1567 120.007 53.5238 122.982C52.8408 120.584 51.8067 118.206 50.3087 115.998C51.4837 112.214 56.5197 106.087 58.6087 103.646C58.5555 102.663 58.3904 101.688 58.1168 100.741C53.6708 104.244 50.5617 111.918 50.0557 115.632C49.8157 115.294 49.5708 114.957 49.3027 114.626C48.3265 113.399 47.3253 112.191 46.2997 111.004C46.2787 106.129 51.5957 97.1474 53.3617 94.2994C52.4467 93.6304 51.4277 93.0264 50.2947 92.4564C46.1447 97.5764 45.0617 106.298 45.8147 110.448C44.4408 108.881 43.0263 107.349 41.5728 105.855C41.1858 100.96 43.2677 93.1664 44.1897 90.0224C42.7547 89.5164 41.6857 89.1364 40.8197 88.7704C38.7178 93.6374 39.1178 100.207 40.2997 104.547C37.9787 102.169 36.0798 100.228 34.2507 97.6114C34.0887 93.8844 35.1938 88.7414 36.1148 85.1554C35.3758 84.3324 34.4968 83.3054 33.3438 81.9834C33.3008 81.9334 33.2587 81.8914 33.2167 81.8424C31.7187 85.9364 31.8097 91.0144 32.5767 94.9744C32.2036 94.3292 31.8468 93.6746 31.5068 93.0114C30.3196 90.6941 28.9014 88.5026 27.2738 86.4704C27.3717 83.7624 28.1667 80.3864 28.7507 78.2274C28.0011 77.8038 27.2174 77.4435 26.4078 77.1504C25.6278 79.6204 25.6208 82.5314 25.9998 84.9654C22.2368 80.7734 18.2627 78.4024 15.8438 78.3754C20.4637 81.3784 25.3738 86.5834 28.7008 92.1324C25.8458 89.7554 21.1958 86.9484 17.1938 86.3364L17.2218 86.3584Z" fill="#57947D"/>
<path d="M68.8784 152.934C68.8784 152.934 72.5084 143.079 66.0024 138.718C59.4954 134.357 57.8854 132.648 54.5924 125.066C51.3014 117.483 44.9224 115.626 35.5384 116.78C26.1554 117.941 27.6044 118.194 18.7844 114.593C9.9644 110.991 1.3344 114.874 0.144397 119.615C-1.0436 124.355 6.7844 126.311 12.0044 132.163C17.2234 138.015 18.0454 144.683 24.8334 146.765C31.6214 148.847 39.5974 146.188 42.9384 152.111C46.2864 158.033 65.5734 158.842 66.9024 162.83C70.1524 158.568 68.8724 152.926 68.8724 152.926L68.8784 152.934Z" fill="#85BF99"/>
<path d="M5.31663 126.65C6.10463 127.199 6.92763 127.776 7.76463 128.395C10.7616 127.945 16.7676 127.178 20.6226 127.579C21.9918 128.516 23.2918 129.55 24.5126 130.674C25.5326 131.623 26.6506 132.446 27.8326 133.192C23.8086 132.334 17.6896 131.94 12.7656 133.072C13.397 133.853 13.9888 134.665 14.5386 135.506C18.5056 134.767 25.2016 133.712 29.3656 134.106C31.9256 135.52 34.7256 136.61 37.5666 137.602C32.1786 137.728 24.0126 138.98 18.3996 141.738C18.9193 142.503 19.5031 143.223 20.1446 143.89C23.4646 142.617 33.1776 139.016 39.2756 138.186C42.2656 139.206 45.2406 140.176 47.9626 141.372C49.5026 142.054 51.1136 143.081 52.7386 144.347C48.3426 143.911 38.6146 144.854 31.7146 147.766C33.8886 147.892 35.9916 147.984 37.8416 148.455C42.8216 146.739 49.3206 144.776 53.1616 144.678C55.8406 146.83 58.5206 149.608 60.8626 152.542C57.6266 151.057 48.7786 149.827 42.8276 151.93C42.8706 151.993 42.9126 152.056 42.9476 152.127C43.3696 152.872 44.0446 153.54 44.9036 154.138C48.7086 153.343 57.3456 151.775 61.1366 152.893C63.7116 156.157 65.8636 159.575 67.1436 162.515C67.2066 162.424 67.2706 162.333 67.3266 162.241C66.7926 160.117 65.6316 156.227 63.4726 152.084C63.6266 148.743 65.6456 143.398 67.2066 139.712C66.8344 139.347 66.4294 139.017 65.9966 138.727C65.6456 138.488 65.3076 138.263 64.9846 138.038C63.2546 142.518 62.7266 147.97 63.0076 151.212C61.8676 149.144 60.4826 147.041 58.7946 145.086C58.4646 142.153 59.1606 137.623 59.8916 133.986C59.0754 133.146 58.3451 132.227 57.7116 131.243C56.8536 135.865 57.3036 141.196 58.1476 144.375C56.3256 142.392 54.1736 140.605 51.6556 139.191C50.9526 134.971 52.8366 126.615 53.6666 123.239C53.1377 122.314 52.5053 121.453 51.7816 120.672C49.1936 126.207 49.9186 135.126 51.2336 138.952C50.8367 138.737 50.4332 138.536 50.0236 138.347C48.4857 137.638 46.9333 136.96 45.3676 136.315C42.9826 131.616 43.7496 120.369 44.0736 116.768C42.7985 116.568 41.5093 116.471 40.2186 116.479C38.6986 123.436 41.8926 132.376 44.6286 136.012C42.2446 135.042 40.1686 134.289 38.3056 133.642C35.5556 129.105 33.7826 120.58 33.1426 117.091C31.5106 117.302 30.2936 117.45 29.2816 117.52C29.6116 123.239 33.1916 129.386 36.4416 132.995C33.0436 131.827 30.2726 130.878 27.2416 129.239C25.2786 125.715 23.8436 120.221 22.9926 116.311C21.8816 115.875 20.5386 115.312 18.7796 114.594C18.7166 114.566 18.6526 114.545 18.5826 114.517C19.1246 119.195 21.6846 124.055 24.3426 127.501C23.6716 127.058 23.0105 126.601 22.3596 126.13C20.0869 124.47 17.6526 123.044 15.0936 121.874C13.8706 119.216 13.0046 115.572 12.5196 113.202C11.5626 113.16 10.6276 113.202 9.73462 113.3C10.1776 116.064 11.5846 118.871 13.1386 121.037C7.46863 118.822 2.48863 118.463 0.140625 119.61C6.05562 120.264 13.3206 122.901 19.2226 126.643C15.3126 125.736 9.46663 125.279 5.30963 126.636L5.31663 126.65Z" fill="#57947D"/>
<path d="M51.6593 95.6132C47.9393 88.0092 43.5493 76.6282 41.9453 63.0332L42.7333 63.2292C44.3513 76.5932 48.6703 87.7842 52.3413 95.2752C57.0963 104.995 61.7883 110.763 61.8373 110.819L61.2533 111.298C61.2033 111.241 56.4633 105.403 51.6663 95.6052L51.6593 95.6132Z" fill="#AFEFBE"/>
<path d="M43.0242 67.9565C43.0242 67.9565 37.4322 63.7155 43.1582 51.1035C45.3522 60.1075 43.8122 65.9735 43.0242 67.9565ZM43.3242 71.5225C43.3242 71.5225 43.8312 63.1875 51.8702 59.1075C50.4642 69.8475 44.3302 71.9095 43.3242 71.5225Z" fill="#AFEFBE"/>
<path d="M43.6621 72.0568C43.6621 72.0568 37.7401 72.6058 31.7891 63.3848C43.0081 66.3738 44.0631 71.0518 43.6621 72.0568ZM45.6721 79.9168C45.6721 79.9168 46.1641 71.0468 54.7031 66.8338C52.5511 76.9838 46.6781 80.3038 45.6721 79.9168Z" fill="#AFEFBE"/>
<path d="M46.0136 80.4484C46.0136 80.4484 40.0916 80.9974 34.1406 71.7754C45.3606 74.7654 46.4146 79.4424 46.0136 80.4484ZM48.8846 88.9304C48.8846 88.9304 47.6466 80.1314 55.2076 74.3504C55.0676 84.7244 49.9466 89.1204 48.8846 88.9304Z" fill="#AFEFBE"/>
<path d="M49.3212 89.3896C49.3212 89.3896 43.6172 91.0696 35.9922 83.1856C47.5772 83.9456 49.5182 88.3266 49.3222 89.3886L49.3212 89.3896ZM52.0262 95.9236C52.0262 95.9236 50.6062 88.2006 57.0702 82.8066C57.3372 91.9706 52.9762 96.0506 52.0262 95.9236Z" fill="#AFEFBE"/>
<path d="M52.4357 96.3103C52.4357 96.3103 47.4637 98.0123 40.4297 91.3303C50.6917 91.5703 52.5697 95.3673 52.4357 96.3103ZM55.4987 102.203C55.4987 102.203 54.2957 95.6693 59.7617 91.1113C59.9867 98.8693 56.2937 102.316 55.4987 102.203Z" fill="#AFEFBE"/>
<path d="M55.8357 102.535C55.8357 102.535 51.6297 103.977 45.6797 98.3223C54.3597 98.5193 55.9487 101.734 55.8357 102.535ZM59.1197 108.173C59.1197 108.173 58.0857 102.56 62.7847 98.6433C62.9747 105.303 59.8087 108.265 59.1197 108.173Z" fill="#AFEFBE"/>
<path d="M59.4173 108.457C59.4173 108.457 55.8023 109.695 50.6953 104.842C58.1513 105.011 59.5153 107.775 59.4173 108.457ZM77.3883 49.297C81.0463 40.948 85.2453 28.499 86.3423 13.791L85.5053 14.044C84.3803 28.505 80.2443 40.744 76.6353 48.974C71.9583 59.651 67.1753 66.073 67.1333 66.136L67.7873 66.629C67.8373 66.565 72.6753 60.066 77.3883 49.297Z" fill="#AFEFBE"/>
<path d="M85.4134 19.1389C85.4134 19.1389 91.2374 14.3199 84.5004 1.00586C82.5454 10.7959 84.4784 17.0359 85.4134 19.1389ZM85.2544 22.9849C85.2544 22.9849 84.3264 14.0379 75.4844 10.0209C77.4894 21.5149 84.1924 23.4559 85.2544 22.9849Z" fill="#AFEFBE"/>
<path d="M84.9081 23.5772C84.9081 23.5772 91.3081 23.8932 97.2871 13.7012C85.3511 17.4362 84.4301 22.5142 84.9081 23.5772ZM83.1081 32.1302C83.1081 32.1302 82.1721 22.6062 72.7891 18.4702C75.5671 29.2962 82.0461 32.6012 83.1081 32.1302Z" fill="#AFEFBE"/>
<path d="M82.7599 32.7207C82.7599 32.7207 89.1599 33.0377 95.1389 22.8457C83.2019 26.5807 82.2819 31.6587 82.7599 32.7207ZM80.0629 41.9757C80.0629 41.9757 80.9909 32.4517 72.5859 26.5717C73.2119 37.7277 78.9299 42.2287 80.0629 41.9757Z" fill="#AFEFBE"/>
<path d="M79.6117 42.496C79.6117 42.496 85.8297 44.043 93.6717 35.209C81.2367 36.559 79.3517 41.363 79.6117 42.496ZM76.9967 49.644C76.9967 49.644 78.1708 41.267 70.9688 35.76C71.1018 45.635 75.9837 49.827 76.9967 49.644Z" fill="#AFEFBE"/>
<path d="M76.5791 50.0779C76.5791 50.0779 82.0091 51.6819 89.2681 44.1699C78.2321 44.8939 76.3891 49.0719 76.5791 50.0779ZM73.5521 56.5719C73.5521 56.5719 74.5521 49.4899 68.4531 44.8259C68.5661 53.1819 72.6931 56.7199 73.5521 56.5719Z" fill="#AFEFBE"/>
<path d="M73.2097 56.9355C73.2097 56.9355 77.8027 58.2935 83.9437 51.9355C74.6097 52.5465 73.0477 56.0775 73.2097 56.9355ZM69.9297 63.1545C69.9297 63.1545 70.7877 57.0695 65.5547 53.0675C65.6527 60.2425 69.1977 63.2875 69.9297 63.1545Z" fill="#AFEFBE"/>
<path d="M69.6229 63.4795C69.6229 63.4795 73.5689 64.6475 78.8439 59.1895C70.8259 59.7165 69.4889 62.7485 69.6229 63.4795ZM52.6169 149.795C44.0289 146.714 31.3049 143.373 16.5469 143.274L16.8569 144.09C31.3749 144.231 43.8809 147.523 52.3499 150.561C63.3299 154.5 70.0749 158.84 70.1449 158.882L70.5879 158.2C70.5179 158.158 63.6949 153.769 52.6239 149.795H52.6169Z" fill="#AFEFBE"/>
<path d="M21.9425 143.842C21.9425 143.842 16.7305 138.356 3.89453 145.995C13.8045 147.275 19.9095 144.926 21.9425 143.842ZM25.7965 143.736C25.7965 143.736 16.9195 145.277 13.5155 154.378C24.8535 151.593 26.3375 144.77 25.7955 143.736H25.7965Z" fill="#AFEFBE"/>
<path d="M26.4091 144.04C26.4091 144.04 26.2891 137.632 15.7031 132.35C20.2471 144.019 25.3891 144.588 26.4091 144.04ZM35.0751 145.256C35.0751 145.256 25.6291 146.838 22.1331 156.496C32.7531 152.979 35.6091 146.283 35.0751 145.256Z" fill="#AFEFBE"/>
<path d="M35.6826 145.559C35.6826 145.559 35.5626 139.151 24.9766 133.869C29.5206 145.538 34.6626 146.108 35.6826 145.559ZM45.1156 147.628C45.1156 147.628 35.5426 147.354 30.2386 156.146C41.3386 154.76 45.4386 148.739 45.1156 147.628Z" fill="#AFEFBE"/>
<path d="M45.6579 148.041C45.6579 148.041 46.7839 141.725 37.4219 134.494C39.6159 146.824 44.5469 148.379 45.6579 148.041ZM52.9869 150.162C52.9869 150.162 44.5389 149.557 39.5309 157.125C49.3859 156.316 53.2329 151.154 52.9869 150.162Z" fill="#AFEFBE"/>
<path d="M53.4457 150.545C53.4457 150.545 54.6767 145.01 46.6797 138.271C48.1567 149.244 52.4537 150.799 53.4457 150.545ZM60.1377 153.121C60.1377 153.121 52.9917 152.608 48.7577 159.015C57.0927 158.333 60.3487 153.965 60.1377 153.121Z" fill="#AFEFBE"/>
<path d="M60.5297 153.45C60.5297 153.45 61.5707 148.773 54.8047 143.068C56.0567 152.346 59.6857 153.668 60.5297 153.45ZM66.9637 156.299C66.9637 156.299 60.8307 155.863 57.1877 161.363C64.3477 160.773 67.1397 157.024 66.9637 156.299Z" fill="#AFEFBE"/>
<path d="M67.3066 156.582C67.3066 156.582 68.2006 152.558 62.3906 147.67C63.4666 155.639 66.5826 156.772 67.3066 156.582Z" fill="#AFEFBE"/>
</svg>
