<svg width="97" height="131" viewBox="0 0 97 131" fill="none" xmlns="http://www.w3.org/2000/svg">
<path d="M6.38773 112.434C6.38773 112.434 1.16773 99.5403 9.59273 93.4973C18.0267 87.4543 20.0807 85.1203 24.1177 74.9443C28.1537 64.7693 36.5227 62.0353 48.9927 63.1783C61.4627 64.3133 59.5607 64.7133 71.0787 59.5733C82.5977 54.4333 94.1957 59.2133 95.9627 65.4333C97.7367 71.6593 87.4497 74.5773 80.7907 82.5383C74.1327 90.5003 73.3167 99.3723 64.4207 102.41C55.5237 105.455 44.8527 102.274 40.6797 110.251C36.4997 118.229 11.0077 120.115 9.41773 125.455C4.94073 119.955 6.38773 112.426 6.38773 112.426V112.434Z" fill="#4C7666"/>
<path d="M89.4201 74.9503C88.4051 75.7103 87.3341 76.5093 86.2551 77.3643C82.2741 76.9003 74.2801 76.1333 69.1971 76.8283C67.4234 78.1257 65.7458 79.5494 64.1771 81.0883C62.8661 82.3843 61.4191 83.5273 59.8921 84.5663C65.1761 83.2633 73.2651 82.4803 79.8281 83.7663C79.0279 84.8283 78.2784 85.9275 77.5821 87.0603C72.2981 86.2443 63.3851 85.1333 57.8941 85.8293C54.5601 87.8033 50.8991 89.3703 47.1911 90.8013C54.3291 90.7373 65.1911 92.0563 72.7381 95.4693C72.0581 96.5163 71.3381 97.4993 70.5231 98.3953C66.0791 96.8443 53.0661 92.4953 44.9531 91.6563C41.0361 93.1263 37.1351 94.5423 33.5931 96.2443C31.5871 97.2113 29.4931 98.6423 27.3991 100.377C33.1941 99.6103 46.1191 100.457 55.3761 104.014C52.5061 104.27 49.7251 104.486 47.2951 105.181C40.6281 103.119 31.9471 100.793 26.8551 100.833C23.4021 103.798 19.9731 107.587 16.9911 111.568C21.2111 109.466 32.8741 107.467 40.8361 109.993C40.7881 110.081 40.7321 110.161 40.6841 110.257C40.1561 111.264 39.2931 112.167 38.1741 112.999C33.0981 112.111 21.6041 110.393 16.6391 112.039C13.3701 116.468 10.6691 121.088 9.09406 125.037C9.00606 124.917 8.91806 124.797 8.83806 124.677C9.45306 121.847 10.8281 116.652 13.5061 111.072C13.1621 106.652 10.2691 99.6663 8.03906 94.8543C8.50206 94.3743 9.01406 93.9183 9.59706 93.4943C10.0531 93.1673 10.4931 92.8553 10.9081 92.5443C13.3861 98.4033 14.3131 105.597 14.0741 109.905C15.4961 107.123 17.2471 104.278 19.3971 101.615C19.7171 97.7233 18.5971 91.7523 17.4711 86.9643C18.5165 85.8173 19.4457 84.5695 20.2451 83.2393C21.5711 89.3223 21.2041 96.3893 20.2211 100.633C22.5551 97.9313 25.3211 95.4693 28.5981 93.5033C29.3491 87.8833 26.5031 76.9003 25.2641 72.4723C25.9266 71.2266 26.7284 70.0601 27.6541 68.9953C31.3161 76.2213 30.7321 88.0433 29.1491 93.1753C29.6611 92.8793 30.1891 92.5913 30.7241 92.3273C32.7303 91.324 34.7557 90.3595 36.7991 89.4343C39.7571 83.1193 38.2691 68.2593 37.6941 63.5043C39.2771 63.1913 40.9801 63.0163 42.7861 62.9603C45.0881 72.1043 41.2361 84.0703 37.7661 89.0023C40.4924 87.7989 43.2482 86.6635 46.0311 85.5973C49.4851 79.4743 51.4671 68.1153 52.1711 63.4793C54.3371 63.6873 55.9511 63.8393 57.3021 63.8793C57.1021 71.4653 52.6261 79.7463 48.4771 84.6693C52.9221 82.9833 56.5511 81.6093 60.5001 79.3143C62.9541 74.5663 64.6241 67.2363 65.5751 62.0243C67.0221 61.4013 68.7811 60.6023 71.0831 59.5783C71.1669 59.5401 71.2523 59.5054 71.3391 59.4743C70.8191 65.6943 67.6381 72.2243 64.2571 76.9003C65.1291 76.2891 65.9847 75.6549 66.8231 74.9983C69.7615 72.7052 72.9242 70.7151 76.2631 69.0583C77.7661 65.4863 78.7651 60.6263 79.3081 57.4763C80.5374 57.3829 81.7721 57.3856 83.0011 57.4843C82.5301 61.1613 80.7791 64.9343 78.8291 67.8763C86.2391 64.7023 92.8171 64.0153 95.9751 65.4383C88.1651 66.5573 78.6611 70.3543 71.0111 75.5493C76.1511 74.1823 83.8731 73.3353 89.4281 74.9493L89.4201 74.9503Z" fill="#57947D"/>
<path d="M3.75404 114.965C3.75404 114.965 5.00104 103.095 13.826 101.92C22.651 100.745 25.152 99.8095 32.315 93.7335C39.477 87.6585 46.919 88.9695 55.895 94.8615C64.88 100.752 63.273 100.289 74.072 101.049C84.872 101.808 91.722 110.105 90.555 115.533C89.388 120.96 80.419 119.026 72.162 122.367C63.905 125.708 59.708 132.095 51.747 130.808C43.777 129.521 36.983 122.807 30.604 127.163C24.217 131.52 4.14604 122.663 0.78804 126.06C-0.38696 120.089 3.75404 114.973 3.75404 114.973V114.965Z" fill="#85BF99"/>
<path d="M81.7574 120.088C80.6794 120.256 79.5514 120.424 78.3844 120.64C75.5544 118.681 69.8154 114.876 65.6834 113.35C63.7564 113.629 61.9024 114.029 60.1594 114.549C58.6404 115.004 57.0894 115.284 55.5074 115.452C60.0394 116.595 66.4744 119.273 70.9274 122.894C69.8917 123.373 68.8805 123.904 67.8974 124.485C64.2204 121.735 57.9294 117.298 53.4854 115.612C50.1594 115.764 46.7624 115.468 43.3734 115.06C48.8014 117.89 56.4984 123.27 60.8394 128.905C59.9034 129.425 58.9604 129.88 57.9854 130.224C55.2434 127.258 47.1454 118.713 41.3434 114.805C37.7864 114.341 34.2604 113.837 30.8874 113.693C28.9774 113.613 26.8114 113.853 24.5244 114.325C29.2244 116.083 38.6734 121.935 44.2444 128.369C41.9664 127.41 39.7764 126.451 37.6504 125.987C33.4304 121.735 27.7944 116.467 23.9254 114.445C20.1124 115.292 15.9874 116.787 12.1194 118.593C16.1634 118.705 25.8034 121.895 30.8074 127.026C30.7354 127.074 30.6634 127.114 30.5834 127.162C29.7764 127.714 28.7534 128.05 27.5784 128.234C24.0934 125.516 16.0834 119.577 11.6554 118.817C7.39544 120.848 3.48544 123.262 0.695438 125.612L0.648438 125.236C2.25544 123.342 5.39644 119.96 9.67344 116.819C11.1994 113.334 11.8234 106.875 12.0794 102.327C12.6224 102.151 13.1984 102.015 13.8054 101.927C14.2854 101.863 14.7404 101.799 15.1884 101.735C14.7004 107.171 12.5024 112.99 10.5844 116.163C12.7824 114.629 15.2524 113.182 17.9624 112.039C19.7764 109.217 21.3434 104.245 22.4144 100.169C23.67 99.7227 24.8777 99.1522 26.0194 98.4655C24.5724 103.606 21.4394 108.809 18.9854 111.631C21.8394 110.528 24.9324 109.777 28.2094 109.609C31.0474 105.66 33.3254 96.1955 34.1734 92.3345C35.1761 91.6553 36.2544 91.0948 37.3864 90.6645C37.2424 97.6105 32.0304 106.331 28.7694 109.577C29.2809 109.557 29.793 109.557 30.3044 109.577C32.4064 109.633 34.3164 109.721 36.0674 109.841C40.8554 106.252 45.7234 94.3965 47.2104 90.5605C48.5374 90.9595 49.8964 91.5105 51.2864 92.1985C49.3364 100.049 41.5904 107.562 36.9784 109.897C39.8964 110.104 42.3904 110.384 44.6124 110.656C49.6964 107.411 55.7874 99.6085 58.1854 96.3795C59.7444 97.4095 60.9034 98.1775 61.9104 98.7535C58.6964 104.421 51.9664 108.881 46.8344 110.936C50.8794 111.455 54.1884 111.879 58.0974 111.727C61.8704 109.121 66.0904 104.245 68.9204 100.68C70.2714 100.792 71.9264 100.896 74.0764 101.048C74.1564 101.048 74.2364 101.064 74.3084 101.072C71.4064 105.572 66.3624 109.233 61.9184 111.415C62.8247 111.302 63.7283 111.169 64.6284 111.016C67.7785 110.465 70.9761 110.235 74.1724 110.328C76.7544 108.226 79.4724 104.957 81.1504 102.782C82.1504 103.222 83.0844 103.726 83.9404 104.277C82.1014 106.867 79.2564 109.025 76.5864 110.456C83.4764 111.04 88.7364 113.174 90.5584 115.532C84.1964 113.23 75.4674 112.271 67.5694 113.118C72.0144 114.157 78.2004 116.627 81.7584 120.096L81.7574 120.088Z" fill="#57947D"/>
<path d="M36.9351 106.988C45.8401 101.665 57.9421 92.9036 68.6691 80.0016L67.7341 79.6816C57.1421 92.3356 45.2321 100.945 36.4641 106.197C25.0801 113.007 16.4161 115.797 16.3281 115.829L16.6081 116.716C16.6951 116.684 25.4721 113.862 36.9431 106.996L36.9351 106.988Z" fill="#AFEFBE"/>
<path d="M64.2812 84.3326C64.2812 84.3326 72.8582 83.7096 75.4082 66.9316C67.1342 74.7086 64.8082 81.7746 64.2812 84.3326ZM61.5982 87.7946C61.5982 87.7946 66.6422 78.8896 61.1022 69.3296C55.3722 81.2956 60.3032 87.5226 61.5982 87.7946Z" fill="#AFEFBE"/>
<path d="M60.8823 88.1131C60.8823 88.1131 66.5983 92.6291 78.8683 87.1301C65.3433 82.7101 61.1383 86.8101 60.8823 88.1131ZM53.5723 94.845C53.5723 94.845 58.9923 85.405 53.0283 75.373C48.4563 87.235 52.2773 94.573 53.5723 94.845Z" fill="#AFEFBE"/>
<path d="M52.8678 95.1638C52.8678 95.1638 58.5828 99.6798 70.8528 94.1808C57.3278 89.7608 53.1228 93.8608 52.8678 95.1638ZM44.2518 101.968C44.2518 101.968 51.3978 93.7578 47.4888 82.7598C40.7018 93.5098 43.0358 101.448 44.2518 101.968Z" fill="#AFEFBE"/>
<path d="M43.4925 102.141C43.4925 102.141 48.2245 107.681 61.3335 104.668C48.9195 97.7052 43.9955 100.917 43.4925 102.141ZM36.3515 107.043C36.3515 107.043 42.9705 100.057 39.9325 90.2012C33.5385 99.4412 35.2955 106.54 36.3515 107.043Z" fill="#AFEFBE"/>
<path d="M35.6834 107.179C35.6834 107.179 39.6564 112.247 51.3434 110.081C40.6394 103.47 36.1714 106.116 35.6834 107.179ZM28.5984 111.191C28.5984 111.191 34.2014 105.284 31.6284 96.9473C26.2164 104.765 27.7034 110.768 28.5984 111.191Z" fill="#AFEFBE"/>
<path d="M28.0271 111.303C28.0271 111.303 31.3921 115.588 41.2721 113.757C32.2161 108.162 28.4421 110.408 28.0271 111.303ZM20.8791 114.896C20.8791 114.896 25.6911 109.82 23.4771 102.658C18.8331 109.373 20.1121 114.528 20.8791 114.896Z" fill="#AFEFBE"/>
<path d="M20.3906 114.994C20.3906 114.994 23.2766 118.679 31.7656 117.104C23.9876 112.3 20.7426 114.226 20.3906 114.994ZM48.1506 64.929C55.3676 54.922 64.4646 39.646 70.1076 20.502L68.9326 20.598C63.3206 39.406 54.3676 54.418 47.2536 64.29C38.0296 77.087 29.8676 84.226 29.7886 84.298L30.5076 85.128C30.5876 85.057 38.8446 77.838 48.1416 64.938L48.1506 64.929Z" fill="#AFEFBE"/>
<path d="M67.3585 27.3125C67.3585 27.3125 76.4385 22.5965 71.3155 3.06055C65.9435 15.4505 66.7195 24.2675 67.3585 27.3125ZM66.0475 32.3595C66.0475 32.3595 67.3655 20.2575 56.8145 12.4245C56.1915 28.1945 64.5055 32.6715 66.0475 32.3595Z" fill="#AFEFBE"/>
<path d="M65.4319 33.0463C65.4319 33.0463 73.8089 35.2843 84.6239 23.5023C67.7659 25.0453 65.1039 31.5033 65.4319 33.0463ZM60.6039 43.8373C60.6039 43.8373 62.0749 30.9753 50.8359 22.8223C51.4279 37.9383 59.0619 44.1493 60.6039 43.8373Z" fill="#AFEFBE"/>
<path d="M59.9864 44.5232C59.9864 44.5232 68.3634 46.7612 79.1784 34.9782C62.3204 36.5212 59.6584 42.9812 59.9864 44.5232ZM53.7694 56.0002C53.7694 56.0002 57.7104 43.6662 48.2624 33.4902C45.9124 48.4302 52.1954 56.0082 53.7694 56.0002Z" fill="#AFEFBE"/>
<path d="M53.0356 56.5515C53.0356 56.5515 60.8126 60.3715 73.7146 50.9075C56.8806 49.1495 53.0126 54.9765 53.0356 56.5515ZM47.5436 65.2735C47.5436 65.2735 51.4836 54.5305 43.5226 45.1855C40.8926 58.2955 46.1536 65.2255 47.5436 65.2735Z" fill="#AFEFBE"/>
<path d="M46.8599 65.7389C46.8599 65.7389 53.5899 69.4079 65.3329 61.5339C50.5289 59.3519 46.8999 64.3479 46.8599 65.7389ZM41.0219 73.4569C41.0219 73.4569 44.3549 64.3679 37.6239 56.4629C35.3939 67.5499 39.8469 73.4089 41.0219 73.4569Z" fill="#AFEFBE"/>
<path d="M40.4457 73.8429C40.4457 73.8429 46.1367 76.9449 56.0727 70.2859C43.5467 68.4399 40.4777 72.6679 40.4457 73.8429ZM34.3357 81.1409C34.3357 81.1409 37.1977 73.3309 31.4177 66.5449C29.5077 76.0649 33.3277 81.1009 34.3357 81.1409Z" fill="#AFEFBE"/>
<path d="M33.8516 81.4771C33.8516 81.4771 38.7436 84.1391 47.2726 78.4231C36.5126 76.8411 33.8746 80.4701 33.8516 81.4771Z" fill="#AFEFBE"/>
</svg>
