<svg width="70" height="70" viewBox="0 0 70 70" fill="none" xmlns="http://www.w3.org/2000/svg">
<rect x="0.277344" y="0.222656" width="69.4444" height="69.4444" rx="34.7222" fill="white"/>
<g clip-path="url(#clip0_47_207)">
<path d="M46.3062 37.3662C46.1838 37.4917 45.7281 38.0209 45.3019 38.4584C41.6608 41.9896 37.4659 44.9007 32.8837 47.0759C32.0824 47.4252 31.238 47.6661 30.373 47.7921C29.7022 47.7959 29.0406 47.6362 28.4453 47.327C27.6805 46.8886 27.0818 46.2099 26.7424 45.3962C26.5204 44.6448 26.3406 43.8816 26.2039 43.1102C25.8146 40.4121 25.6417 37.6872 25.6866 34.9615C25.6625 32.3218 25.8147 29.6834 26.1423 27.0639C26.3081 26.0983 26.5516 25.1476 26.8705 24.2211C27.184 23.5908 27.6651 23.0592 28.2611 22.6846C28.8571 22.3099 29.5448 22.1069 30.2487 22.0977H30.3742C31.3522 22.255 32.3031 22.5496 33.1988 22.9727C37.6728 25.1358 41.7703 28.0036 45.3346 31.4665C45.7051 31.8381 46.0507 32.2338 46.369 32.651C46.8497 33.3132 47.105 34.1124 47.0971 34.9308C47.1081 35.8074 46.8301 36.6632 46.3062 37.3662Z" fill="#FEC23B"/>
</g>
<defs>
<clipPath id="clip0_47_207">
<rect width="21.418" height="25.6944" fill="white" transform="translate(25.6797 22.0977)"/>
</clipPath>
</defs>
</svg>
