<svg width="163" height="153" viewBox="0 0 163 153" fill="none" xmlns="http://www.w3.org/2000/svg">
<path d="M69.3218 37.4863L107.547 143.777L84.3198 152.131L46.0938 45.8403L69.3218 37.4863Z" fill="#FCDB3D"/>
<path d="M69.3114 37.4824L107.536 143.772L89.7094 150.183L51.4844 43.8934L69.3114 37.4824Z" fill="#F9C00B"/>
<path d="M92.7778 146.982L92.9377 147.426L89.1688 148.781L89.0087 148.337L92.7778 146.982ZM92.0037 144.92L92.1637 145.363L88.3957 146.719L88.2358 146.275L92.0037 144.92ZM91.2737 142.818L91.4338 143.262L87.6647 144.617L87.5047 144.173L91.2737 142.818ZM90.5037 140.763L90.6637 141.207L86.8957 142.563L86.7358 142.119L90.5037 140.763ZM91.3517 138.099L91.5117 138.543L86.1717 140.464L86.0117 140.02L91.3517 138.099ZM88.9687 136.482L89.1287 136.926L85.3608 138.282L85.2007 137.838L88.9687 136.482ZM88.2388 134.392L88.3987 134.836L84.6297 136.191L84.4697 135.747L88.2388 134.392ZM87.4807 132.322L87.6408 132.766L83.8727 134.122L83.7127 133.678L87.4807 132.322ZM86.7467 130.232L86.9067 130.676L83.1367 132.031L82.9777 131.587L86.7467 130.232ZM87.5438 127.599L87.7037 128.043L82.3638 129.964L82.2037 129.521L87.5438 127.599ZM85.2147 125.951L85.3748 126.395L81.6067 127.75L81.4468 127.307L85.2147 125.951ZM84.4568 123.877L84.6167 124.32L80.8488 125.676L80.6887 125.232L84.4568 123.877ZM83.6838 121.81L83.8437 122.254L80.0757 123.61L79.9158 123.166L83.6838 121.81ZM82.9458 119.724L83.1057 120.168L79.3368 121.524L79.1767 121.08L82.9458 119.724ZM83.7737 117.076L83.9338 117.52L78.5937 119.441L78.4338 118.997L83.7737 117.076ZM81.4377 115.419L81.5978 115.863L77.8287 117.219L77.6688 116.775L81.4377 115.419ZM80.6607 113.365L80.8208 113.809L77.0517 115.164L76.8918 114.721L80.6607 113.365ZM79.9267 111.279L80.0868 111.723L76.3167 113.078L76.1577 112.634L79.9267 111.279ZM79.1528 109.209L79.3127 109.652L75.5438 111.008L75.3837 110.564L79.1528 109.209ZM79.9807 106.564L80.1408 107.008L74.8007 108.929L74.6408 108.486L79.9807 106.564ZM77.6217 104.939L77.7817 105.383L74.0128 106.739L73.8527 106.295L77.6217 104.939ZM76.8947 102.841L77.0548 103.285L73.2857 104.64L73.1258 104.197L76.8947 102.841ZM76.1447 100.755L76.3048 101.199L72.5367 102.555L72.3768 102.111L76.1447 100.755ZM75.3717 98.6973L75.5317 99.1413L71.7628 100.497L71.6027 100.053L75.3717 98.6973ZM76.2228 96.0333L76.3827 96.4773L71.0428 98.3973L70.8827 97.9533L76.2228 96.0333ZM73.8638 94.3923L74.0237 94.8363L70.2547 96.1923L70.0947 95.7483L73.8638 94.3923ZM73.1067 92.3223L73.2658 92.7663L69.4967 94.1203L69.3368 93.6763L73.1067 92.3223ZM72.3328 90.2523L72.4927 90.6953L68.7238 92.0513L68.5637 91.6073L72.3328 90.2523ZM71.6138 88.1623L71.7737 88.6063L68.0047 89.9613L67.8447 89.5173L71.6138 88.1623ZM72.4188 85.5253L72.5787 85.9693L67.2388 87.8903L67.0787 87.4463L72.4188 85.5253ZM70.0897 83.8733L70.2498 84.3163L66.4817 85.6723L66.3218 85.2283L70.0897 83.8733ZM69.3048 81.8223L69.4647 82.2663L65.6968 83.6203L65.5367 83.1773L69.3048 81.8223ZM68.5507 79.7403L68.7108 80.1843L64.9428 81.5403L64.7827 81.0963L68.5507 79.7403ZM67.8247 77.6383L67.9848 78.0823L64.2157 79.4373L64.0557 78.9933L67.8247 77.6383ZM68.6767 74.9783L68.8368 75.4223L63.4958 77.3423L63.3358 76.8993L68.6757 74.9793L68.6767 74.9783ZM66.3007 73.3653L66.4608 73.8093L62.6927 75.1643L62.5327 74.7203L66.3007 73.3653ZM65.5197 71.2983L65.6798 71.7423L61.9118 73.0983L61.7518 72.6543L65.5197 71.2983ZM64.8088 69.1933L64.9687 69.6373L61.1997 70.9923L61.0397 70.5483L64.8088 69.1933ZM64.0267 67.1383L64.1867 67.5823L60.4188 68.9383L60.2588 68.4943L64.0267 67.1383ZM64.8667 64.4823L65.0268 64.9263L59.6867 66.8463L59.5267 66.4033L64.8667 64.4823ZM62.5077 62.8533L62.6677 63.2973L58.8997 64.6533L58.7397 64.2093L62.5077 62.8533ZM61.7388 60.7833L61.8988 61.2273L58.1297 62.5833L57.9697 62.1393L61.7388 60.7833ZM60.9847 58.7003L61.1447 59.1443L57.3757 60.5003L57.2157 60.0573L60.9847 58.7003ZM60.2588 56.6103L60.4188 57.0553L56.6488 58.4103L56.4897 57.9663L60.2588 56.6103ZM61.0667 53.9823L61.2267 54.4263L55.8867 56.3473L55.7267 55.9033L61.0667 53.9823ZM58.7227 52.3303L58.8827 52.7733L55.1147 54.1293L54.9548 53.6863L58.7227 52.3303ZM57.9497 50.2713L58.1097 50.7153L54.3407 52.0713L54.1807 51.6273L57.9497 50.2713ZM57.2038 48.1973L57.3638 48.6413L53.5947 49.9963L53.4347 49.5533L57.2038 48.1973ZM56.4567 46.1153L56.6167 46.5593L52.8487 47.9143L52.6887 47.4713L56.4567 46.1153ZM57.3088 43.4473L57.4688 43.8913L52.1287 45.8123L51.9688 45.3683L57.3088 43.4473Z" fill="#CE7720"/>
<path d="M155.414 28.8448L161.824 30.9708L155.414 33.0968L153.287 39.5158L151.153 33.0968L144.742 30.9708L151.153 28.8438L153.287 22.4258L155.414 28.8448Z" fill="#F9B800"/>
<path d="M127.73 21.3291L130.512 22.2481L127.73 23.1751L126.811 25.9571L125.883 23.1751L123.102 22.2481L125.883 21.3281L126.811 18.5391L127.73 21.3291Z" fill="#F7DAC4"/>
<path d="M99.1562 5.14953L103.912 6.72453L99.1562 8.30753L97.5812 13.0635L95.9982 8.30753L91.2422 6.72453L95.9982 5.15053L97.5812 0.394531L99.1562 5.14953Z" fill="#7DD3C7"/>
<path d="M5.42097 40.4216L8.21097 41.3416L5.42097 42.2686L4.50197 45.0506L3.58197 42.2686L0.792969 41.3416L3.58297 40.4216L4.50297 37.6406L5.42097 40.4216Z" fill="#F7DAC4"/>
</svg>
