<svg width="114" height="73" viewBox="0 0 114 73" fill="none" xmlns="http://www.w3.org/2000/svg">
<path d="M10.3197 62.6558L15.9677 64.5258L10.3197 66.3978L8.44869 72.0458L6.57769 66.3978L0.929688 64.5268L6.57769 62.6558L8.44769 57.0078L10.3197 62.6558Z" fill="#F9B800"/>
<path d="M39.2437 44.3663L42.2897 45.3793L39.2437 46.3853L38.2307 49.4373L37.2247 46.3853L34.1797 45.3793L37.2247 44.3663L38.2307 41.3203L39.2437 44.3663Z" fill="#F7DAC4"/>
<path d="M30.2485 23.096L32.8445 23.961L30.2485 24.819L29.3905 27.414L28.5325 24.819L25.9375 23.961L28.5325 23.096L29.3905 20.5L30.2485 23.096Z" fill="#7DD3C7"/>
<path d="M110.791 38.3454L113.387 39.2034L110.791 40.0614L109.926 42.6564L109.068 40.0614L106.473 39.2034L109.068 38.3454L109.926 35.7494L110.791 38.3454ZM50.8315 4.40641L54.6795 5.68641L50.8315 6.95941L49.5585 10.7994L48.2855 6.95941L44.4375 5.68641L48.2855 4.40641L49.5585 0.566406L50.8315 4.40641Z" fill="#FCDB3D"/>
<path d="M92.0601 12.8968L94.1561 13.5928L92.0601 14.2828L91.3701 16.3778L90.6741 14.2828L88.5781 13.5928L90.6741 12.8968L91.3711 10.8008L92.0601 12.8968Z" fill="#F7DAC4"/>
</svg>
