<svg width="126" height="142" viewBox="0 0 126 142" fill="none" xmlns="http://www.w3.org/2000/svg">
<path d="M88.3532 133.067C87.2771 133.463 86.088 133.416 85.0464 132.937C84.0049 132.458 83.1957 131.585 82.7962 130.51L79.3792 121.271C78.9837 120.195 79.0306 119.007 79.5096 117.965C79.9887 116.924 80.8608 116.114 81.9352 115.714C83.0112 115.319 84.2 115.366 85.2415 115.845C86.283 116.324 87.0923 117.196 87.4922 118.27L90.9102 127.51C91.3057 128.587 91.2586 129.776 90.7794 130.817C90.3001 131.859 89.4277 132.668 88.3532 133.067ZM30.9492 129.268C31.9637 129.802 33.1484 129.912 34.2438 129.574C35.3393 129.237 36.2563 128.479 36.7942 127.466L41.3992 118.757C41.9329 117.743 42.043 116.558 41.7053 115.462C41.3676 114.367 40.6096 113.45 39.5972 112.911C38.5827 112.378 37.398 112.268 36.3026 112.605C35.2071 112.943 34.2901 113.701 33.7522 114.713L29.1472 123.422C28.6132 124.437 28.503 125.622 28.8407 126.718C29.1785 127.813 29.9366 128.731 30.9492 129.268ZM82.8432 56.7615C83.3671 57.127 84.0141 57.271 84.6437 57.1622C85.2732 57.0534 85.8343 56.7006 86.2052 56.1805L103.447 31.7185C103.813 31.1944 103.956 30.5473 103.848 29.9178C103.739 29.2883 103.386 28.7272 102.865 28.3565C102.342 27.9893 101.694 27.8443 101.065 27.9534C100.435 28.0625 99.8736 28.4167 99.5042 28.9385L82.2602 53.4005C81.893 53.9238 81.7481 54.5712 81.8572 55.2011C81.9662 55.831 82.3214 56.3921 82.8432 56.7615Z" fill="#1D4482"/>
<path d="M75.25 37.7567C75.7 36.7587 76.247 35.7857 76.907 34.8557C82.345 27.1937 92.97 25.3957 100.623 30.8327C108.285 36.2707 110.084 46.8947 104.646 54.5477C103.986 55.4777 103.252 56.3137 102.452 57.0647L75.251 37.7477L75.25 37.7567Z" fill="#FEC23B"/>
<path d="M96.4366 29.3216C95.6161 28.7459 94.7164 28.2922 93.7656 27.9746C96.2374 28.4095 98.5826 29.3851 100.634 30.8316C108.296 36.2696 110.094 46.8946 104.657 54.5476C103.997 55.4776 103.263 56.3136 102.463 57.0646L95.5256 52.1396C96.2574 51.3922 96.9288 50.588 97.5336 49.7346C102.656 42.5246 102.162 33.3806 96.4366 29.3126V29.3216Z" fill="#E77D44"/>
<path d="M45.2597 54.2719C44.692 54.5651 44.0316 54.6224 43.4219 54.4314C42.8123 54.2404 42.3026 53.8165 42.0037 53.2519L28.1337 26.7319C27.8405 26.1642 27.7832 25.5038 27.9742 24.8941C28.1652 24.2845 28.589 23.7748 29.1537 23.4759C29.7208 23.1809 30.3818 23.1226 30.9918 23.3137C31.6019 23.5049 32.1113 23.93 32.4087 24.4959L46.2787 51.0159C46.5737 51.583 46.632 52.244 46.4408 52.854C46.2497 53.4641 45.8246 53.9735 45.2587 54.2709L45.2597 54.2719Z" fill="#1D4482"/>
<path d="M67.0772 24.6957L65.5642 24.5957L64.2812 43.9947L65.7933 44.0947L67.0772 24.6957Z" fill="#7285B2"/>
<path d="M71.8907 20.534L61.3247 19.834L60.9297 25.811L71.4957 26.511L71.8907 20.534Z" fill="#7285B2"/>
<path d="M103.533 103.206C113.52 80.4388 103.16 53.8868 80.3928 43.9008C57.6268 33.9138 31.0748 44.2738 21.0878 67.0408C11.1018 89.8068 21.4618 116.359 44.2278 126.346C66.9948 136.332 93.5468 125.972 103.533 103.206Z" fill="#FEC23B"/>
<path d="M100.343 92.2005C104.228 71.2065 90.3593 51.0375 69.3653 47.1525C48.3703 43.2665 28.2023 57.1365 24.3163 78.1305C20.4313 99.1245 34.3003 119.294 55.2943 123.179C76.2893 127.064 96.4573 113.195 100.343 92.2005Z" fill="#E77D44"/>
<path d="M96.2252 97.3223C102.964 78.5893 93.2412 57.9413 74.5083 51.2023C55.7753 44.4633 35.1262 54.1863 28.3882 72.9193C21.6482 91.6523 31.3722 112.301 50.1052 119.04C68.8382 125.779 89.4872 116.055 96.2252 97.3223Z" fill="#FCF7EB"/>
<path d="M64.4091 53.5175C55.8791 52.9535 47.9271 55.8215 41.8711 60.9325C46.4437 58.9821 51.412 58.1385 56.3721 58.4705C73.8401 59.6265 87.0631 74.7224 85.9071 92.1904C85.3171 101.13 81.0651 108.951 74.7251 114.311C85.3611 109.771 93.1281 99.5744 93.9441 87.2464C95.1001 69.7784 81.8771 54.6825 64.4081 53.5265L64.4091 53.5175Z" fill="white"/>
<path d="M47.9346 67.8869C47.5476 68.2009 49.7606 76.6109 52.8626 77.9239C55.9656 79.2369 61.2096 86.3819 61.2096 86.3819L62.2396 85.5479L63.2676 84.7129C63.2676 84.7129 57.3716 78.1059 56.7236 74.7929C56.0846 71.4909 48.3136 67.5729 47.9256 67.8869H47.9346Z" fill="#1D4482"/>
<path d="M88.9024 92.2182C89.0324 91.7362 77.7984 85.3472 74.5144 86.1032C71.2304 86.8602 62.7974 84.1582 62.7974 84.1582L62.4534 85.4392L62.1094 86.7212C62.1094 86.7212 70.7664 88.6072 73.2224 90.9042C75.6884 93.2022 88.7724 92.6922 88.9034 92.2092V92.2192L88.9024 92.2182Z" fill="#1D4482"/>
<path d="M36.9541 103.661C36.8754 103.658 36.7995 103.63 36.7374 103.582C36.6752 103.534 36.63 103.467 36.6083 103.391C36.5865 103.315 36.5893 103.234 36.6162 103.16C36.6431 103.086 36.6928 103.023 36.7581 102.979L62.1101 84.6186C62.1504 84.5887 62.1963 84.5672 62.245 84.5554C62.2938 84.5436 62.3444 84.5417 62.3939 84.55C62.4433 84.5582 62.4906 84.5763 62.533 84.6032C62.5753 84.6301 62.6117 84.6653 62.6401 84.7066C62.6699 84.7469 62.6913 84.7928 62.7031 84.8415C62.7148 84.8902 62.7166 84.9408 62.7084 84.9903C62.7002 85.0397 62.6821 85.087 62.6553 85.1293C62.6284 85.1716 62.5934 85.2081 62.5521 85.2366L37.2001 103.597C37.1304 103.651 37.0424 103.677 36.9541 103.67V103.661Z" fill="#E77D44"/>
<path d="M64.7965 85.2997C64.7349 85.9441 64.4246 86.5391 63.9314 86.9585C63.4383 87.3778 62.8011 87.5884 62.1552 87.5455C61.5093 87.5027 60.9055 87.2099 60.472 86.7291C60.0385 86.2484 59.8095 85.6176 59.8335 84.9707C59.8951 84.3264 60.2054 83.7313 60.6985 83.312C61.1917 82.8927 61.8289 82.6821 62.4748 82.7249C63.1207 82.7677 63.7245 83.0606 64.1579 83.5414C64.5914 84.0221 64.8205 84.6529 64.7965 85.2997ZM66.1075 55.1057C66.0902 55.3634 66.0223 55.6151 65.9076 55.8464C65.7929 56.0778 65.6337 56.2842 65.4391 56.4539C65.2445 56.6236 65.0183 56.7533 64.7735 56.8355C64.5287 56.9176 64.2701 56.9507 64.0125 56.9327C63.4926 56.8986 63.0075 56.6597 62.6633 56.2685C62.3192 55.8774 62.1441 55.3657 62.1765 54.8457C62.2124 54.3251 62.4529 53.8398 62.8454 53.4958C63.2379 53.1518 63.7506 52.9771 64.2715 53.0097C64.5297 53.0268 64.782 53.0945 65.014 53.2091C65.246 53.3236 65.4532 53.4828 65.6237 53.6774C65.7942 53.872 65.9246 54.0984 66.0077 54.3434C66.0907 54.5885 66.1246 54.8476 66.1075 55.1057ZM62.0795 115.989C62.0621 116.246 61.9941 116.498 61.8793 116.729C61.7646 116.961 61.6054 117.167 61.4108 117.337C61.2162 117.506 60.9901 117.636 60.7453 117.718C60.5006 117.8 60.2421 117.834 59.9845 117.816C59.4647 117.781 58.9797 117.542 58.6356 117.151C58.2916 116.76 58.1164 116.249 58.1485 115.729C58.1847 115.208 58.4254 114.723 58.8181 114.379C59.2107 114.035 59.7235 113.86 60.2445 113.893C60.7657 113.928 61.2516 114.168 61.5957 114.561C61.9398 114.954 62.1138 115.468 62.0795 115.989ZM50.4265 57.1847C50.9065 58.1547 50.5065 59.3347 49.5285 59.8147C49.297 59.9292 49.0451 59.9967 48.7874 60.0134C48.5297 60.0302 48.2712 59.9959 48.0268 59.9124C47.7824 59.829 47.5569 59.6981 47.3633 59.5272C47.1696 59.3563 47.0117 59.1489 46.8985 58.9167C46.7841 58.6852 46.7165 58.4334 46.6998 58.1757C46.683 57.9179 46.7173 57.6595 46.8008 57.4151C46.8842 57.1707 47.0152 56.9452 47.186 56.7515C47.3569 56.5579 47.5644 56.3999 47.7965 56.2867C48.028 56.1723 48.2799 56.1048 48.5376 56.088C48.7953 56.0713 49.0538 56.1056 49.2982 56.189C49.5426 56.2725 49.768 56.4034 49.9617 56.5743C50.1553 56.7452 50.3133 56.9526 50.4265 57.1847ZM77.3755 111.927C77.8555 112.897 77.4555 114.076 76.4775 114.557C76.246 114.671 75.9941 114.739 75.7364 114.755C75.4787 114.772 75.2202 114.738 74.9758 114.654C74.7314 114.571 74.5059 114.44 74.3123 114.269C74.1186 114.098 73.9607 113.891 73.8475 113.659C73.7332 113.427 73.6658 113.175 73.6491 112.918C73.6325 112.66 73.6668 112.402 73.7503 112.158C73.8337 111.913 73.9646 111.688 74.1354 111.494C74.3061 111.301 74.5135 111.143 74.7455 111.03C74.977 110.915 75.2287 110.848 75.4864 110.831C75.7441 110.814 76.0025 110.848 76.2469 110.932C76.4913 111.015 76.7168 111.146 76.9105 111.317C77.1042 111.487 77.2622 111.695 77.3755 111.927ZM37.8685 66.8207C38.3012 67.1107 38.6013 67.5603 38.703 68.071C38.8048 68.5818 38.7 69.1121 38.4115 69.5457C38.1216 69.9781 37.6722 70.278 37.1616 70.3798C36.6511 70.4816 36.121 70.3769 35.6875 70.0887C35.2547 69.799 34.9544 69.3494 34.8524 68.8387C34.7504 68.3279 34.8551 67.7975 35.1435 67.3637C35.4334 66.9311 35.883 66.631 36.3938 66.5292C36.9046 66.4274 37.4349 66.5322 37.8685 66.8207ZM88.5795 100.747C89.0122 101.037 89.3123 101.486 89.414 101.997C89.5158 102.508 89.411 103.038 89.1225 103.472C88.8326 103.904 88.3832 104.204 87.8726 104.306C87.3621 104.408 86.832 104.303 86.3985 104.015C85.9657 103.725 85.6654 103.275 85.5634 102.765C85.4614 102.254 85.5661 101.723 85.8545 101.29C86.1444 100.857 86.594 100.557 87.1048 100.455C87.6156 100.353 88.1459 100.458 88.5795 100.747ZM31.8185 81.4397C32.0767 81.4568 32.329 81.5245 32.561 81.6391C32.793 81.7536 33.0002 81.9128 33.1707 82.1074C33.3412 82.302 33.4716 82.5284 33.5547 82.7734C33.6377 83.0185 33.6716 83.2775 33.6545 83.5357C33.6371 83.7933 33.5691 84.0449 33.4543 84.2761C33.3396 84.5073 33.1803 84.7137 32.9857 84.8833C32.7911 85.0529 32.565 85.1825 32.3203 85.2646C32.0755 85.3467 31.817 85.3797 31.5595 85.3617C31.0396 85.3278 30.5544 85.0892 30.2101 84.6982C29.8657 84.3072 29.6904 83.7957 29.7225 83.2757C29.7584 82.7549 29.9991 82.2694 30.3918 81.9254C30.7845 81.5814 31.2974 81.4068 31.8185 81.4397ZM92.6975 85.4667C92.9557 85.4838 93.208 85.5515 93.44 85.6661C93.672 85.7806 93.8792 85.9398 94.0497 86.1344C94.2202 86.329 94.3506 86.5554 94.4337 86.8004C94.5167 87.0455 94.5506 87.3046 94.5335 87.5627C94.5162 87.8204 94.4483 88.0721 94.3336 88.3034C94.2189 88.5348 94.0597 88.7412 93.8651 88.9109C93.6705 89.0807 93.4443 89.2103 93.1995 89.2925C92.9547 89.3746 92.6961 89.4077 92.4385 89.3897C91.9184 89.3558 91.433 89.1171 91.0887 88.7259C90.7443 88.3347 90.5691 87.8229 90.6015 87.3027C90.6374 86.7819 90.8781 86.2964 91.2708 85.9524C91.6635 85.6084 92.1764 85.4338 92.6975 85.4667ZM33.8945 97.1307C34.126 97.0163 34.3779 96.9488 34.6356 96.932C34.8933 96.9153 35.1518 96.9496 35.3962 97.033C35.6406 97.1165 35.866 97.2474 36.0597 97.4183C36.2533 97.5892 36.4113 97.7966 36.5245 98.0287C37.0045 98.9987 36.6045 100.179 35.6265 100.659C35.395 100.773 35.1431 100.841 34.8854 100.857C34.6277 100.874 34.3692 100.84 34.1248 100.756C33.8804 100.673 33.6549 100.542 33.4613 100.371C33.2676 100.2 33.1097 99.9929 32.9965 99.7607C32.8821 99.5292 32.8145 99.2774 32.7978 99.0197C32.781 98.7619 32.8153 98.5035 32.8988 98.2591C32.9822 98.0147 33.1132 97.7892 33.284 97.5955C33.4549 97.4019 33.6624 97.2439 33.8945 97.1307ZM88.6365 70.1817C88.868 70.0673 89.1197 69.9997 89.3774 69.9829C89.6351 69.966 89.8935 70.0003 90.1379 70.0836C90.3823 70.167 90.6078 70.2978 90.8015 70.4686C90.9952 70.6393 91.1532 70.8467 91.2665 71.0787C91.7465 72.0587 91.3465 73.2287 90.3685 73.7087C89.3895 74.1887 88.2185 73.7897 87.7385 72.8107C87.624 72.5793 87.5563 72.3275 87.5395 72.0699C87.5227 71.8122 87.557 71.5537 87.6405 71.3094C87.7239 71.065 87.8549 70.8396 88.0258 70.6461C88.1968 70.4525 88.4043 70.2947 88.6365 70.1817ZM43.5385 109.685C43.8282 109.252 44.2778 108.952 44.7886 108.85C45.2994 108.748 45.8297 108.852 46.2635 109.141C46.6962 109.431 46.9963 109.88 47.098 110.391C47.1998 110.902 47.095 111.432 46.8065 111.866C46.5165 112.298 46.067 112.598 45.5563 112.7C45.0456 112.802 44.5153 112.698 44.0815 112.41C43.6488 112.12 43.3487 111.67 43.2469 111.159C43.1452 110.649 43.25 110.118 43.5385 109.685ZM77.4675 58.9777C77.7573 58.5449 78.2068 58.2446 78.7176 58.1426C79.2284 58.0407 79.7587 58.1453 80.1925 58.4337C80.6253 58.7235 80.9256 59.173 81.0276 59.6838C81.1296 60.1946 81.0249 60.725 80.7365 61.1587C80.4467 61.5916 79.9972 61.8919 79.4864 61.9938C78.9756 62.0958 78.4452 61.9911 78.0115 61.7027C77.5787 61.413 77.2784 60.9634 77.1764 60.4527C77.0744 59.9419 77.1791 59.4115 77.4675 58.9777Z" fill="#1D4482"/>
<path d="M55.2911 36.4334C54.9721 35.3638 54.5501 34.3276 54.0311 33.3394C49.6511 25.0274 39.3551 21.8454 31.0521 26.2274C22.7411 30.6074 19.5581 40.9034 23.9401 49.2064C24.4602 50.1937 25.078 51.1264 25.7841 51.9904L55.2911 36.4244V36.4334Z" fill="#FEC23B"/>
<path d="M35.4117 25.2818C36.3012 24.8193 37.2531 24.4882 38.2377 24.2988C35.8007 24.4058 33.3567 25.0208 31.0527 26.2268C22.7407 30.6068 19.5587 40.9028 23.9397 49.2058C24.4597 50.1931 25.0775 51.1258 25.7837 51.9898L33.3087 48.0208C32.6817 47.1837 32.122 46.2983 31.6347 45.3728C27.5077 37.5518 29.2017 28.5518 35.4127 25.2728V25.2828L35.4117 25.2818Z" fill="#E77D44"/>
<path d="M96.9915 19.714C92.4155 11.62 86.6115 7.28899 67.5495 6.02799C48.4895 4.76699 42.1625 8.30499 36.5625 15.716C31.7555 22.08 21.2545 25.521 21.1445 25.558L22.0335 28.333C22.4985 28.185 33.5105 24.581 38.8845 17.477C43.9655 10.757 49.5145 7.75599 67.3565 8.93599C85.1985 10.116 90.3055 13.813 94.4565 21.154C98.8375 28.912 109.289 33.927 109.731 34.134L110.977 31.502C110.873 31.45 100.934 26.674 96.9985 19.714H96.9895H96.9915Z" fill="#7285B2"/>
</svg>
