<svg width="80" height="84" viewBox="0 0 80 84" fill="none" xmlns="http://www.w3.org/2000/svg">
<g style="mix-blend-mode:multiply">
<path d="M31.8241 56.816C31.1881 57.4255 30.5388 56.7166 30.5388 56.7166C30.5388 56.7166 19.6273 45.4275 18.9251 44.9306C17.9313 44.2217 15.8113 43.122 13.7244 45.3215C12.8565 46.2358 11.4387 48.263 14.1484 51.4696C14.7314 52.1586 31.7247 69.6488 32.7119 70.5895C32.7119 70.5895 40.5559 78.0428 45.273 80.8253C46.5848 81.6004 48.0555 82.4153 49.7714 82.9784C51.4807 83.5416 53.4086 83.9192 55.4359 83.8993C57.4631 83.8993 59.5633 83.4819 61.5442 82.7333C63.5251 81.9781 65.3669 80.8849 67.0364 79.6328C67.4471 79.3148 67.8579 78.9901 68.2488 78.6523L69.3684 77.7049C70.1502 77.0357 70.8723 76.3401 71.5679 75.618C72.9658 74.187 74.2246 72.6698 75.331 71.1129C76.4307 69.5494 77.3649 67.9329 78.1003 66.3296C78.8356 64.7264 79.3524 63.1165 79.6505 61.5927C79.9685 60.0755 80.048 58.6445 79.9818 57.4056C79.9553 56.1601 79.6969 55.0935 79.4783 54.2455C79.2331 53.3975 78.9814 52.7615 78.776 52.3441C78.5773 51.9267 78.4713 51.7015 78.4713 51.7015C78.193 50.9528 77.9346 50.2373 77.6895 49.5947C77.027 47.7794 76.2651 45.7389 75.4701 43.6454C75.1322 42.7576 74.9798 42.3535 74.9798 42.3535L74.9865 42.3667C72.0714 34.728 68.9378 26.8508 68.9378 26.8508C68.4608 25.4661 66.7647 24.9958 65.5192 25.91C61.9483 28.5402 60.8883 32.3297 62.2067 36.3445L65.5722 45.2354C66.0426 46.2291 64.7905 47.3952 63.9292 46.7128C61.2262 44.5662 55.4955 38.6236 55.4955 38.6236C52.9382 36.2253 38.4955 21.7627 37.5217 20.8816C35.5805 19.1127 33.1425 18.2183 31.3073 19.603C29.4391 21.0075 28.9356 23.1606 30.784 25.4794C31.2875 26.1088 45.8891 41.1808 45.8891 41.1808C46.7438 42.0553 45.7633 43.3075 44.8291 42.4661C44.8291 42.4661 26.6632 23.9556 25.8416 23.0877C23.98 21.1201 21.0252 20.716 19.2961 22.3722C17.6067 23.9954 17.6796 26.6255 19.5677 28.6661C20.1706 29.3153 32.9636 42.5125 38.0914 47.9185C38.4359 48.2829 38.7009 48.7665 38.2107 49.2369C38.204 49.2435 37.7072 49.8001 37.0447 49.1044C35.6534 47.6535 21.7474 33.5024 20.9722 32.7339C19.1967 30.9782 16.8315 30.1633 14.9633 31.919C13.254 33.5222 13.0089 36.2783 15.0163 38.2062L31.8638 55.6036C31.8771 55.6102 32.4203 56.2463 31.8241 56.816Z" fill="#FAC036"/>
<path d="M25.5882 52.6332C25.2437 53.4415 24.3626 53.0374 24.3626 53.0374C24.3626 53.0374 9.9199 46.8827 9.07851 46.6972C7.886 46.4322 5.5076 46.2467 4.44096 49.0822C3.99708 50.2615 3.48032 52.6796 7.22349 54.581C8.03175 54.9918 30.4841 64.4855 31.7628 64.9758C31.7628 64.9758 41.8859 68.7918 47.3185 69.5139C48.829 69.7127 50.5051 69.8982 52.3005 69.7458C54.0959 69.6001 56.0172 69.2026 57.8722 68.3877C59.7405 67.5993 61.5094 66.3935 63.0398 64.936C64.5702 63.4719 65.8422 61.7494 66.8889 59.9473C67.1473 59.4968 67.3991 59.0397 67.6243 58.5759L68.2934 57.2708C68.7506 56.3499 69.1481 55.4224 69.5125 54.4949C70.2478 52.6332 70.811 50.7451 71.2284 48.8768C71.6325 47.0086 71.8644 45.1602 71.9174 43.3913C71.9704 41.6224 71.818 39.9396 71.5066 38.4225C71.2151 36.8987 70.7249 35.5538 70.1816 34.4342C69.6715 33.2946 69.0156 32.4201 68.4922 31.7179C67.9357 31.0355 67.4587 30.5452 67.1076 30.2405C66.7631 29.9357 66.5776 29.7701 66.5776 29.7701C66.0343 29.1871 65.5109 28.6306 65.0405 28.1337C63.7221 26.7159 62.2249 25.1392 60.6812 23.5227C60.0253 22.8337 59.7272 22.5289 59.7272 22.5289L59.7405 22.5421C54.076 16.6392 48.1267 10.6038 48.1267 10.6038C47.1528 9.51062 45.4038 9.7425 44.6154 11.0675C42.3496 14.8836 42.8465 18.7791 45.6224 21.9658L52.1813 28.8492C53.0028 29.578 52.3005 31.1415 51.2405 30.85C47.9147 29.9225 40.329 26.6762 40.329 26.6762C37.0363 25.4638 18.1019 17.7588 16.863 17.3216C14.3852 16.4471 11.7948 16.573 10.642 18.5605C9.46939 20.5811 9.8404 22.7608 12.4507 24.1785C13.1596 24.5628 32.4717 32.7646 32.4717 32.7646C33.5979 33.235 33.1805 34.772 31.9947 34.3613C31.9947 34.3613 8.05825 24.3773 6.96511 23.8937C4.48733 22.8005 1.60543 23.5823 0.65804 25.7818C-0.262845 27.935 0.830292 30.3332 3.36107 31.4727C4.16271 31.8371 21.0898 39.0187 27.9136 42C28.3707 42.1988 28.8014 42.5433 28.5364 43.1726C28.5364 43.1793 28.2912 43.8881 27.4101 43.5039C25.5617 42.7089 7.24999 35.0768 6.23635 34.6727C3.91758 33.7452 1.42655 33.9174 0.379787 36.2561C-0.574224 38.396 0.273786 41.0327 2.87082 42.0265L25.1576 51.5004C25.1576 51.5004 25.9128 51.878 25.5882 52.6332Z" fill="#FAC036"/>
<path d="M64.7251 42.6022C65.4737 44.3379 66.6662 45.5967 64.8841 46.8886C62.4593 48.6442 57.4971 42.6287 55.5096 40.608C53.0384 38.0839 50.6335 35.4139 48.116 32.9229C44.6908 29.5243 39.9936 24.9132 36.648 21.4218C32.7723 17.3805 28.8966 22.2035 30.7318 25.9533C30.904 26.3243 31.1558 26.6887 31.4804 27.073C32.4742 28.2059 33.5474 29.2593 34.6008 30.3391C34.6141 30.3524 42.8491 38.2362 45.5455 40.9591C46.7711 42.2311 46.1086 43.8013 45.3268 43.0924C44.5451 42.3835 39.2583 37.6598 36.86 35.2152C33.0903 31.3727 28.2805 26.5761 23.9742 22.9919C21.5362 20.958 15.8055 25.0788 21.2116 30.3855C21.4169 30.5909 37.3635 46.2194 39.3841 48.2136C40.04 48.8562 38.9866 49.532 38.9866 49.532C38.5494 49.9162 21.3706 33.6252 20.7279 32.9825C17.21 29.4514 11.1547 33.8173 16.1102 38.8722C17.9189 40.714 23.6496 46.6037 27.3729 50.4529C28.6051 51.7315 31.6328 54.4743 33.4481 56.0577C33.8257 56.3889 32.8982 56.7798 32.6729 57.0846C32.3417 57.5417 20.0124 46.3784 18.7404 45.3582C15.9115 43.0924 11.0089 47.0807 13.8842 50.9166C15.3616 52.8843 25.6305 62.5966 27.1145 64.0078C34.8195 71.3285 36.2969 73.1438 45.6713 79.7755C46.8638 80.6235 50.2625 83.247 49.2621 82.823C36.0981 77.1784 24.5108 64.1138 14.4937 54.9844C11.5654 52.3145 9.31292 47.3457 12.7778 44.0332C14.1426 42.7347 15.0767 42.4564 16.8456 42.5624C16.8456 42.5624 16.7396 42.4365 15.196 40.7935C13.7053 39.2101 10.2736 34.4401 13.4602 31.3594C15.9645 28.9346 18.7669 29.9946 18.5549 29.7561C16.1765 26.914 16.468 23.7671 18.4953 21.8657C20.9333 19.5734 24.2458 19.474 28.5455 23.9128C28.2805 23.1178 27.6644 21.1568 29.7182 19.2951C33.6932 15.6778 37.0587 18.2749 44.6312 26.4237C50.925 33.1747 60.6838 43.1322 60.6838 43.1322C61.2403 43.629 62.6912 45.3714 63.5988 44.8216C64.1288 44.4969 63.294 43.523 62.4195 41.5223C59.2792 34.3606 59.213 28.1396 66.2289 25.5757C66.6795 25.1583 63.5657 27.8879 62.6249 30.9619C61.7173 33.9167 63.0025 38.594 64.7251 42.6022Z" fill="#E48C15"/>
<path d="M64.6158 2L60.3691 15.323M25.667 14.9719L18.5781 6.53818M32.4908 2L30.9206 14.2961M72.1816 14.0841L63.9996 20.6562" stroke="#444444" stroke-width="2.65003" stroke-miterlimit="10" stroke-linecap="round"/>
</g>
</svg>
