<svg width="75" height="75" viewBox="0 0 75 75" fill="none" xmlns="http://www.w3.org/2000/svg">
<path d="M50.8547 37.5L51.2083 37.1464L73.9581 14.3966C73.9584 14.3963 73.9586 14.3961 73.9589 14.3958C74.3019 14.0481 74.4942 13.5794 74.4942 13.091C74.4942 12.6027 74.3019 12.1339 73.9589 11.7863C73.9586 11.786 73.9584 11.7858 73.9581 11.7855L63.2124 1.03979C62.8667 0.694162 62.3978 0.5 61.909 0.5C61.4201 0.5 60.9513 0.694144 60.6056 1.03974C60.6055 1.03976 60.6055 1.03977 60.6055 1.03979L37.8536 23.7917L37.5 24.1453L37.1464 23.7917L14.3945 1.03979C14.3945 1.03977 14.3945 1.03976 14.3944 1.03974C14.0487 0.694143 13.5799 0.5 13.091 0.5C12.6022 0.5 12.1334 0.694143 11.7876 1.03974L50.8547 37.5ZM50.8547 37.5L51.2083 37.8536L73.9602 60.6055C74.3058 60.9512 74.5 61.4201 74.5 61.909C74.5 62.3978 74.3059 62.8666 73.9603 63.2124C73.9602 63.2124 73.9602 63.2124 73.9602 63.2124M50.8547 37.5L73.9602 63.2124M63.2124 73.9602L63.2124 73.9603C62.8666 74.3059 62.3978 74.5 61.909 74.5C61.4201 74.5 60.9512 74.3058 60.6055 73.9602L37.8536 51.2083L37.5 50.8547L37.1464 51.2083L14.3945 73.9602C14.0488 74.3058 13.5799 74.5 13.091 74.5C12.6022 74.5 12.1333 74.3058 11.7876 73.9602L1.03979 63.2124C0.694162 62.8667 0.5 62.3978 0.5 61.909C0.5 61.4201 0.694144 60.9513 1.03974 60.6056C1.03976 60.6055 1.03977 60.6055 1.03979 60.6055L23.7917 37.8536L24.1453 37.5L23.7917 37.1464L1.03979 14.3945C1.03977 14.3945 1.03976 14.3945 1.03974 14.3944C0.694143 14.0487 0.5 13.5799 0.5 13.091C0.5 12.6022 0.694143 12.1334 1.03974 11.7876C1.03976 11.7876 1.03977 11.7876 1.03979 11.7876L11.7876 1.03979L63.2124 73.9602ZM63.2124 73.9602L73.9602 63.2124M63.2124 73.9602L73.9602 63.2124" fill="#C90C0C" stroke="#A30000"/>
</svg>
