<svg width="19" height="20" viewBox="0 0 19 20" fill="none" xmlns="http://www.w3.org/2000/svg">
<path d="M15.0274 8.28303V8.29358C15.0274 8.44651 14.9667 8.59317 14.8586 8.7013C14.7504 8.80943 14.6038 8.87018 14.4508 8.87018H11.5576L10.3277 11.3465L10.3273 11.3474C10.2789 11.4431 10.2052 11.5237 10.1141 11.5804C10.0231 11.637 9.9182 11.6676 9.81097 11.6687L9.80072 11.6688L9.79056 11.6675C9.67407 11.6527 9.56473 11.6032 9.47674 11.5255C9.38876 11.4477 9.3262 11.3453 9.29721 11.2315L9.29704 11.2308L8.22457 6.94094L7.04048 8.61777C7.04032 8.618 7.04017 8.61823 7.04001 8.61845C6.98618 8.69609 6.91435 8.75954 6.83066 8.80338C6.74672 8.84735 6.65336 8.87027 6.55861 8.87018M15.0274 8.28303L11.1663 7.77671L11.166 7.92671V7.77671H11.1661C11.0581 7.77654 10.9522 7.80669 10.8606 7.86374C10.769 7.92072 10.6952 8.00224 10.6477 8.09904C10.6476 8.09923 10.6475 8.09942 10.6474 8.0996L9.97594 9.44249L8.96537 5.40801L8.81973 5.44389L8.96523 5.40745L8.96527 5.40759C8.93853 5.29939 8.881 5.20126 8.79964 5.12507C8.71817 5.04878 8.61632 4.99777 8.50644 4.97824C8.39655 4.9587 8.28336 4.97148 8.18059 5.01502C8.07783 5.05855 7.9899 5.13098 7.92749 5.2235L7.92704 5.22418L6.26517 7.71698H4.21245C4.05952 7.71698 3.91286 7.77773 3.80473 7.88586C3.6966 7.994 3.63585 8.14066 3.63585 8.29358C3.63585 8.44651 3.6966 8.59317 3.80473 8.7013C3.91286 8.80943 4.05952 8.87018 4.21245 8.87018H6.55861M15.0274 8.28303L15.026 8.27259C15.0064 8.13405 14.9371 8.00735 14.831 7.91612C14.7251 7.82505 14.5898 7.77552 14.4502 7.77671M15.0274 8.28303L14.4502 7.77671M6.55861 8.87018L6.55875 8.72018M6.55861 8.87018H6.55875V8.72018M6.55875 8.72018C6.62921 8.72025 6.69864 8.7032 6.76106 8.6705C6.82348 8.63781 6.87702 8.59044 6.91709 8.53248L6.55875 8.72018ZM14.4502 7.77671H14.4508V7.92671L14.4494 7.77671C14.4496 7.77671 14.4499 7.77671 14.4502 7.77671ZM3.80473 18.1243L3.9108 18.2303L3.80473 18.1243C3.6966 18.2324 3.63585 18.3791 3.63585 18.532C3.63585 18.6849 3.6966 18.8316 3.80473 18.9397C3.91286 19.0478 4.05952 19.1086 4.21245 19.1086H14.4508C14.6038 19.1086 14.7504 19.0478 14.8586 18.9397C14.9667 18.8316 15.0274 18.6849 15.0274 18.532C15.0274 18.3791 14.9667 18.2324 14.8586 18.1243C14.7504 18.0161 14.6038 17.9554 14.4508 17.9554H4.21245C4.05952 17.9554 3.91286 18.0161 3.80473 18.1243ZM16.5838 0.891382H2.07945C1.5871 0.891382 1.11492 1.08697 0.766774 1.43511C0.418631 1.78325 0.223047 2.25543 0.223047 2.74778V13.8394C0.223047 14.3317 0.418631 14.8039 0.766774 15.1521C1.11492 15.5002 1.5871 15.6958 2.07945 15.6958H16.5838C17.0762 15.6958 17.5484 15.5002 17.8965 15.1521C18.2447 14.8039 18.4402 14.3317 18.4402 13.8394V2.74778C18.4402 2.25543 18.2447 1.78325 17.8965 1.43511C17.5484 1.08697 17.0762 0.891382 16.5838 0.891382ZM17.287 13.8394C17.287 14.0259 17.213 14.2047 17.0811 14.3366C16.9492 14.4685 16.7703 14.5426 16.5838 14.5426H2.07945C1.89295 14.5426 1.71408 14.4685 1.58221 14.3366C1.45033 14.2047 1.37625 14.0259 1.37625 13.8394V2.74778C1.37625 2.56128 1.45033 2.38242 1.58221 2.25054C1.71408 2.11867 1.89295 2.04458 2.07945 2.04458H16.5838C16.7703 2.04458 16.9492 2.11867 17.0811 2.25054C17.213 2.38242 17.287 2.56128 17.287 2.74778V13.8394ZM7.64413 17.2333C7.75226 17.3414 7.89892 17.4022 8.05185 17.4022H10.6114C10.7644 17.4022 10.911 17.3414 11.0192 17.2333C11.1273 17.1252 11.188 16.9785 11.188 16.8256C11.188 16.6727 11.1273 16.526 11.0192 16.4179C10.911 16.3097 10.7644 16.249 10.6114 16.249H8.05185C7.89892 16.249 7.75226 16.3097 7.64413 16.4179C7.536 16.526 7.47525 16.6727 7.47525 16.8256C7.47525 16.9785 7.53599 17.1252 7.64413 17.2333Z" fill="black" stroke="black" stroke-width="0.3"/>
</svg>
