<svg width="22" height="22" viewBox="0 0 22 22" fill="none" xmlns="http://www.w3.org/2000/svg">
<path d="M16.6668 6.69783C16.6135 6.68894 16.5512 6.68894 16.4979 6.69783C15.2712 6.65339 14.2935 5.64894 14.2935 4.4045C14.2935 3.13338 15.3157 2.11116 16.5868 2.11116C17.8579 2.11116 18.8801 3.14227 18.8801 4.4045C18.8712 5.64894 17.8935 6.65339 16.6668 6.69783Z" stroke="#202020" stroke-width="2" stroke-linecap="round" stroke-linejoin="round"/>
<path d="M15.751 13.1689C16.9688 13.3734 18.311 13.16 19.2533 12.5289C20.5066 11.6934 20.5066 10.3245 19.2533 9.48893C18.3021 8.85782 16.9421 8.64448 15.7244 8.85782" stroke="#202020" stroke-width="2" stroke-linecap="round" stroke-linejoin="round"/>
<path d="M5.97359 6.69783C6.02692 6.68894 6.08914 6.68894 6.14248 6.69783C7.36914 6.65339 8.34692 5.64894 8.34692 4.4045C8.34692 3.13338 7.3247 2.11116 6.05359 2.11116C4.78248 2.11116 3.76025 3.14227 3.76025 4.4045C3.76914 5.64894 4.74692 6.65339 5.97359 6.69783Z" stroke="#202020" stroke-width="2" stroke-linecap="round" stroke-linejoin="round"/>
<path d="M6.889 13.1689C5.67122 13.3734 4.329 13.16 3.38678 12.5289C2.13344 11.6934 2.13344 10.3245 3.38678 9.48893C4.33789 8.85782 5.69789 8.64448 6.91566 8.85782" stroke="#202020" stroke-width="2" stroke-linecap="round" stroke-linejoin="round"/>
<path d="M11.3333 13.3378C11.28 13.329 11.2177 13.329 11.1644 13.3378C9.93774 13.2934 8.95996 12.289 8.95996 11.0445C8.95996 9.7734 9.98218 8.75117 11.2533 8.75117C12.5244 8.75117 13.5466 9.78229 13.5466 11.0445C13.5377 12.289 12.56 13.3023 11.3333 13.3378Z" stroke="#202020" stroke-width="2" stroke-linecap="round" stroke-linejoin="round"/>
<path d="M8.74664 16.1378C7.49331 16.9734 7.49331 18.3423 8.74664 19.1778C10.1689 20.1289 12.4978 20.1289 13.92 19.1778C15.1733 18.3423 15.1733 16.9734 13.92 16.1378C12.5066 15.1956 10.1689 15.1956 8.74664 16.1378Z" stroke="#202020" stroke-width="2" stroke-linecap="round" stroke-linejoin="round"/>
</svg>
