<svg width="25" height="24" viewBox="0 0 25 24" fill="none" xmlns="http://www.w3.org/2000/svg">
<g clip-path="url(#clip0_803_4398)">
<path d="M16.0478 1.2799L16.0477 1.27996L7.08824 6.49579H9.04284L17.4201 1.61841C17.2813 1.39917 17.0702 1.24289 16.8199 1.17588L16.0478 1.2799ZM16.0478 1.2799C16.2829 1.14232 16.5573 1.10578 16.8198 1.17588L16.0478 1.2799ZM18.4784 1.06704L18.4784 1.067C18.1815 0.549493 17.7019 0.179331 17.128 0.0256804L17.128 0.0256737C16.5569 -0.126929 15.9594 -0.0467427 15.4483 0.250751L15.4734 0.293964L15.4483 0.250754L4.72133 6.49579H2.84879C1.61791 6.49579 0.616992 7.49666 0.616992 8.72759V21.8183C0.616992 23.0492 1.61786 24.0501 2.84879 24.0501H21.394C22.6248 24.0501 23.6258 23.0492 23.6258 21.8183V18.48C24.2609 18.2385 24.7166 17.6292 24.7166 16.9093V13.6366C24.7166 12.9167 24.2609 12.3074 23.6258 12.0659V8.72759C23.6258 7.5661 22.7318 6.62042 21.598 6.51582L18.4784 1.06704ZM19.0932 4.53845L20.2138 6.49579H15.7312L19.0932 4.53845ZM18.0127 2.65134L18.5015 3.50499L13.3643 6.49579H11.4096L18.0127 2.65134ZM22.4348 21.8183C22.4348 22.392 21.9677 22.8592 21.394 22.8592H2.84879C2.27505 22.8592 1.80792 22.392 1.80792 21.8183V8.72759C1.80792 8.15385 2.27505 7.68672 2.84879 7.68672H21.394C21.9677 7.68672 22.4348 8.15385 22.4348 8.72759V11.9503H19.2122C17.3799 11.9503 15.8895 13.4407 15.8895 15.2729C15.8895 17.1052 17.3799 18.5956 19.2122 18.5956H22.4348V21.8183ZM23.5258 16.9093C23.5258 17.1826 23.3037 17.4047 23.0303 17.4047H19.2122C18.0365 17.4047 17.0804 16.4486 17.0804 15.2729C17.0804 14.0973 18.0365 13.1411 19.2122 13.1411H23.0303C23.3036 13.1411 23.5258 13.3632 23.5258 13.6366V16.9093Z" fill="black" stroke="black" stroke-width="0.1"/>
<path d="M18.0711 15.2729C18.0711 14.644 18.583 14.1321 19.212 14.1321C19.841 14.1321 20.3529 14.644 20.3528 15.2729H18.0711ZM18.0711 15.2729C18.0711 15.9019 18.583 16.4138 19.212 16.4138M18.0711 15.2729L19.212 16.4138M19.212 16.4138C19.8409 16.4138 20.3528 15.9019 20.3528 15.2729L19.212 16.4138Z" fill="black" stroke="black" stroke-width="0.1"/>
</g>
<defs>
<clipPath id="clip0_803_4398">
<rect width="24" height="24" fill="white" transform="translate(0.666748 7.62939e-05)"/>
</clipPath>
</defs>
</svg>
