<svg width="57" height="58" viewBox="0 0 57 58" fill="none" xmlns="http://www.w3.org/2000/svg">
<path d="M28.5 5.41998V22.045L33.25 17.295" stroke="#202020" stroke-width="3" stroke-linecap="round" stroke-linejoin="round"/>
<path d="M28.5 22.045L23.75 17.295" stroke="#202020" stroke-width="3" stroke-linecap="round" stroke-linejoin="round"/>
<path d="M4.70239 31.545H15.1761C16.0786 31.545 16.8861 32.0437 17.2899 32.8512L20.0686 38.4087C20.8761 40.0237 22.5149 41.045 24.3199 41.045H32.7036C34.5086 41.045 36.1474 40.0237 36.9549 38.4087L39.7336 32.8512C40.1374 32.0437 40.9686 31.545 41.8474 31.545H52.2024" stroke="#202020" stroke-width="3" stroke-linecap="round" stroke-linejoin="round"/>
<path d="M16.625 10.4788C8.2175 11.7138 4.75 16.6538 4.75 26.795V36.295C4.75 48.17 9.5 52.92 21.375 52.92H35.625C47.5 52.92 52.25 48.17 52.25 36.295V26.795C52.25 16.6538 48.7825 11.7138 40.375 10.4788" stroke="#202020" stroke-width="3" stroke-linecap="round" stroke-linejoin="round"/>
</svg>
