<svg width="22" height="22" viewBox="0 0 22 22" fill="none" xmlns="http://www.w3.org/2000/svg">
<path d="M19.929 13.0445L19.5734 17.489C19.4401 18.849 19.3334 19.889 16.9245 19.889H5.74229C3.3334 19.889 3.22673 18.849 3.0934 17.489L2.73784 13.0445C2.66673 12.3067 2.89784 11.6223 3.31562 11.0978C3.32451 11.089 3.32451 11.089 3.3334 11.0801C3.82229 10.4845 4.56006 10.1112 5.38673 10.1112H17.2801C18.1067 10.1112 18.8356 10.4845 19.3156 11.0623C19.3245 11.0712 19.3334 11.0801 19.3334 11.089C19.769 11.6134 20.009 12.2978 19.929 13.0445Z" stroke="#202020" stroke-width="2" stroke-miterlimit="10"/>
<path d="M3.77783 10.4934V5.9156C3.77783 2.89337 4.53339 2.13782 7.55561 2.13782H8.6845C9.81339 2.13782 10.0712 2.4756 10.4978 3.04448L11.6267 4.5556C11.9112 4.92893 12.0801 5.16004 12.8356 5.16004H15.1023C18.1245 5.16004 18.8801 5.9156 18.8801 8.93782V10.5289" stroke="#202020" stroke-width="2" stroke-miterlimit="10" stroke-linecap="round" stroke-linejoin="round"/>
<path d="M9.04883 15.4445H13.6177" stroke="#202020" stroke-width="2" stroke-miterlimit="10" stroke-linecap="round" stroke-linejoin="round"/>
</svg>
