<?xml version="1.0" standalone="no"?>
<!DOCTYPE svg PUBLIC "-//W3C//DTD SVG 20010904//EN"
 "http://www.w3.org/TR/2001/REC-SVG-20010904/DTD/svg10.dtd">
<svg version="1.0" xmlns="http://www.w3.org/2000/svg"
 width="225.000000pt" height="225.000000pt" viewBox="0 0 225.000000 225.000000"
 preserveAspectRatio="xMidYMid meet">

<g transform="translate(0.000000,225.000000) scale(0.100000,-0.100000)"
fill="#000000" stroke="none">
<path d="M382 2147 c-50 -19 -102 -65 -123 -111 -18 -39 -19 -79 -19 -759 0
-784 -2 -757 58 -820 15 -16 45 -39 67 -50 40 -22 45 -22 610 -22 l570 0 48
24 c60 29 102 85 117 154 8 37 10 257 8 742 -3 685 -3 690 -25 730 -27 51 -68
90 -115 109 -32 14 -113 16 -600 15 -407 0 -572 -4 -596 -12z m1162 -156 l26
-24 0 -694 0 -694 -25 -24 -24 -25 -543 0 c-411 1 -547 4 -559 13 -39 30 -39
37 -39 735 0 666 0 680 20 705 11 14 30 28 43 30 12 3 259 4 549 3 l526 -1 26
-24z"/>
<path d="M583 1710 c-33 -13 -55 -53 -47 -84 13 -55 21 -56 365 -56 305 0 317
1 343 21 31 25 34 66 7 100 l-19 24 -314 2 c-172 1 -323 -2 -335 -7z"/>
<path d="M583 1340 c-33 -13 -55 -53 -47 -84 14 -56 14 -56 442 -56 l393 0 24
25 c30 29 32 64 6 96 l-19 24 -389 2 c-214 1 -398 -2 -410 -7z"/>
<path d="M583 970 c-33 -13 -55 -53 -47 -84 14 -56 14 -56 442 -56 l393 0 24
25 c30 29 32 64 6 96 l-19 24 -389 2 c-214 1 -398 -2 -410 -7z"/>
<path d="M1894 1776 c-18 -14 -19 -36 -24 -755 l-5 -740 -23 -23 -23 -23 -587
-3 c-583 -2 -587 -2 -604 -23 -24 -28 -23 -74 2 -99 20 -20 33 -20 606 -20
411 0 598 3 625 11 52 16 103 61 128 112 21 43 21 53 21 788 l0 746 -23 21
c-27 25 -65 28 -93 8z"/>
</g>
</svg>
