<svg width="22" height="20" viewBox="0 0 22 20" fill="none" xmlns="http://www.w3.org/2000/svg">
<path d="M3.94797 10.3431L3.94813 10.343C9.16573 8.74797 13.7946 5.64824 17.2558 1.43468H15.4507C15.2915 1.43468 15.139 1.37148 15.0264 1.25897C14.9139 1.14646 14.8507 0.99387 14.8507 0.834761C14.8507 0.675652 14.9139 0.523059 15.0264 0.410552C15.139 0.298045 15.2915 0.234839 15.4507 0.234839H18.4918C18.651 0.234839 18.8035 0.298044 18.9161 0.410552C19.0286 0.523059 19.0918 0.675652 19.0918 0.834761V3.87595C19.0918 4.03506 19.0286 4.18765 18.9161 4.30016C18.8035 4.41267 18.651 4.47587 18.4918 4.47587C18.3327 4.47587 18.1801 4.41267 18.0676 4.30016C17.9551 4.18765 17.8919 4.03506 17.8919 3.87595V2.54321C16.2634 4.45835 14.3927 6.15408 12.3266 7.58755C9.86844 9.29431 7.16116 10.6107 4.3007 11.49M3.94797 10.3431L4.27132 11.3944M3.94797 10.3431C3.87265 10.3663 3.80264 10.404 3.74192 10.4542C3.68121 10.5045 3.63098 10.5662 3.59411 10.6358C3.55724 10.7054 3.53445 10.7817 3.52703 10.8601C3.51963 10.9385 3.52774 11.0177 3.55092 11.093M3.94797 10.3431L3.6465 11.0636M4.3007 11.49L4.27132 11.3944M4.3007 11.49C4.30074 11.49 4.30077 11.49 4.30081 11.49L4.27132 11.3944M4.3007 11.49C4.22541 11.5132 4.14629 11.5214 4.06785 11.514C3.98937 11.5066 3.91312 11.4838 3.84345 11.4469C3.77379 11.4101 3.71209 11.3598 3.66187 11.299C3.61164 11.2383 3.57401 11.1683 3.55092 11.093M4.27132 11.3944C4.20856 11.4138 4.1426 11.4206 4.07721 11.4144C4.01182 11.4083 3.94829 11.3893 3.89025 11.3586C3.8322 11.3278 3.78079 11.286 3.73895 11.2353C3.69711 11.1847 3.66575 11.1264 3.6465 11.0636M3.55092 11.093L3.6465 11.0636M3.55092 11.093C3.55091 11.093 3.5509 11.0929 3.55089 11.0929L3.6465 11.0636M17.9919 2.26924C17.9587 2.30908 17.9254 2.34882 17.8919 2.38847L17.9919 2.42497V2.26924ZM1.16643 19.7652H21.4966C21.6557 19.7652 21.8083 19.7019 21.9208 19.5894C22.0333 19.4769 22.0965 19.3243 22.0965 19.1652C22.0965 19.0061 22.0333 18.8535 21.9208 18.741C21.8083 18.6285 21.6557 18.5653 21.4966 18.5653H19.0918V7.62537C19.0918 7.46626 19.0286 7.31366 18.9161 7.20116C18.8035 7.08865 18.651 7.02544 18.4918 7.02544H15.4715C15.3124 7.02544 15.1598 7.08865 15.0473 7.20116C14.9348 7.31366 14.8716 7.46626 14.8716 7.62537V18.5653H13.4416V10.0625C13.4416 9.90338 13.3784 9.75078 13.2659 9.63828C13.1534 9.52577 13.0008 9.46256 12.8417 9.46256H9.82132C9.66221 9.46256 9.50962 9.52577 9.39711 9.63828C9.28461 9.75078 9.2214 9.90338 9.2214 10.0625V18.5653H7.79145V12.4996C7.79145 12.3405 7.72824 12.1879 7.61573 12.0754C7.50323 11.9629 7.35063 11.8997 7.19153 11.8997H4.17116C4.01206 11.8997 3.85946 11.9629 3.74696 12.0754C3.63445 12.1879 3.57124 12.3405 3.57124 12.4996V18.5653H1.16643C1.00732 18.5653 0.854724 18.6285 0.742217 18.741C0.62971 18.8535 0.566504 19.0061 0.566504 19.1652C0.566504 19.3243 0.62971 19.4769 0.742217 19.5894C0.854724 19.7019 1.00732 19.7652 1.16643 19.7652ZM16.0714 8.22529H17.8919V18.5653H16.0714V8.22529ZM10.4212 10.6624H12.2418V18.5653H10.4212V10.6624ZM4.77109 13.0995H6.5916V18.5653H4.77109V13.0995Z" fill="black" stroke="black" stroke-width="0.2"/>
</svg>
