<svg width="31" height="31" viewBox="0 0 31 31" fill="none" xmlns="http://www.w3.org/2000/svg">
<path d="M27.5419 18.0172L27.0468 24.2068C26.8611 26.1008 26.7125 27.5492 23.3578 27.5492H7.78479C4.43004 27.5492 4.28149 26.1008 4.0958 24.2068L3.60063 18.0172C3.5016 16.9898 3.82346 16.0366 4.40528 15.3062C4.41766 15.2938 4.41766 15.2938 4.43004 15.2814C5.11089 14.452 6.13836 13.9321 7.28962 13.9321H23.853C25.0042 13.9321 26.0193 14.452 26.6878 15.2567C26.7002 15.269 26.7125 15.2814 26.7125 15.2938C27.3191 16.0242 27.6534 16.9774 27.5419 18.0172Z" stroke="#E67D4B" stroke-width="2" stroke-miterlimit="10"/>
<path d="M5.04898 14.4644V8.08915C5.04898 3.88023 6.10121 2.828 10.3101 2.828H11.8823C13.4544 2.828 13.8134 3.29841 14.4076 4.09068L15.9798 6.19514C16.3759 6.71506 16.6111 7.03692 17.6634 7.03692H20.82C25.029 7.03692 26.0812 8.08915 26.0812 12.2981V14.5139" stroke="#E67D4B" stroke-width="2" stroke-miterlimit="10" stroke-linecap="round" stroke-linejoin="round"/>
<path d="M12.3899 21.3596H18.7528" stroke="#E67D4B" stroke-width="2" stroke-miterlimit="10" stroke-linecap="round" stroke-linejoin="round"/>
</svg>
